<svg width="471" height="64" viewBox="0 0 471 64" fill="none" xmlns="http://www.w3.org/2000/svg">
<path d="M67.7 63.8H112.9V51.9H81.4V37.3H107.5V25.4H81.4V11.9H113.1V0H67.7V63.8ZM167.3 40.2L137.7 0H117.3L123.7 8.1V64H137.3V22.1L167.9 63.8H181V0H167.3V40.2ZM47.1 31C53.1 29.9 58.1 24.3 58.1 16.4C58.1 7.9 51.9 0 39.6 0H0L6.2 7.9V63.9H41C53.3 63.9 59.7 56.2 59.7 46.6C59.4 38.7 54 31.9 47.1 31ZM19.8 12H36.9C41.5 12 44.4 14.7 44.4 18.7C44.4 22.7 41.5 25.4 36.9 25.4H19.8V12ZM37.5 52H19.8V37.3H37.5C42.7 37.3 45.6 40.6 45.6 44.6C45.6 49.2 42.5 51.9 37.5 52ZM380.8 40.2H387.9V47.7C384.2 50.7 379.6 52.4 374.8 52.5C363.4 52.5 355.4 43.8 355.4 32.1C355.4 20.4 363.5 11.7 374.8 11.7C380.7 11.7 386.2 14.8 389.4 19.8L400.2 13.8C395.6 6.5 387.5 0 374.7 0C356.6 0 341.6 12.5 341.6 31.9C341.6 51.3 356.4 63.8 374.7 63.8C384.7 64 394.2 59.7 400.8 52.3V28.7H371.6L380.8 40.2ZM319.3 40.2L289.6 0H269.3L275.6 8.1V64H289.3V22.1L319.9 63.8H332.9V0H319.3V40.2ZM446 0H419.7L426 8.1L424.9 11.2L404.5 64H419.9L423.9 53.2H451.4L455.4 64H470.8L446 0ZM427.4 41.2L437.4 13.7L447.4 41.2H427.4ZM247.7 0H261.4V64.1H247.7V0ZM236.8 11V0H188.7V11.9H218.9L188.7 52.9V63.8H237.3V51.9H206.4L236.8 11Z" fill="#093451"/>
</svg>
