<svg width="276" height="55" viewBox="0 0 276 55" fill="none" xmlns="http://www.w3.org/2000/svg">
<g clip-path="url(#clip0_3566_646)">
<path d="M129.359 24.0581C130.176 24.0581 130.916 24.3306 131.539 24.9145C132.123 25.5374 132.395 26.2381 132.395 27.0945C132.395 31.2987 130.916 34.8411 127.918 37.7997C124.96 40.7582 121.417 42.2764 117.213 42.2764C113.009 42.2764 109.467 40.7971 106.508 37.7997C103.549 34.8411 102.031 31.2987 102.031 27.0945C102.031 22.8902 103.511 19.3478 106.508 16.3893C109.467 13.4307 113.009 11.9126 117.213 11.9126C120.911 11.9126 124.142 13.0804 126.945 15.455C127.568 16 127.957 16.7007 128.035 17.5182C128.074 18.3746 127.879 19.0753 127.334 19.7371C126.789 20.3599 126.089 20.7103 125.271 20.7881C124.415 20.866 123.714 20.6324 123.052 20.0874C121.378 18.686 119.432 17.9464 117.213 17.9464C114.683 17.9464 112.581 18.8417 110.79 20.6324C108.999 22.3842 108.104 24.5252 108.104 27.0555C108.104 29.5859 108.999 31.688 110.79 33.4787C112.542 35.2694 114.683 36.1647 117.213 36.1647C119.16 36.1647 120.95 35.6197 122.507 34.4908C124.065 33.3619 125.155 31.9215 125.816 30.1309H119.821C118.965 30.1309 118.264 29.8194 117.641 29.2355C117.057 28.6516 116.785 27.9509 116.785 27.0945C116.785 26.2381 117.057 25.5374 117.641 24.9145C118.264 24.3306 118.965 24.0581 119.821 24.0581H129.359Z" fill="white"/>
<path d="M151.901 42.2374C147.697 42.2374 144.154 40.7581 141.196 37.7607C138.237 34.8021 136.719 31.2597 136.719 27.0555C136.719 22.8512 138.198 19.3088 141.196 16.3503C144.154 13.3917 147.697 11.8735 151.901 11.8735C156.105 11.8735 159.647 13.3528 162.606 16.3503C165.564 19.3088 167.083 22.8512 167.083 27.0555C167.083 31.2597 165.603 34.8021 162.606 37.7607C159.647 40.7581 156.105 42.2374 151.901 42.2374ZM151.901 17.9852C149.37 17.9852 147.268 18.8806 145.478 20.6713C143.687 22.423 142.792 24.5641 142.792 27.0944C142.792 29.6247 143.687 31.7268 145.478 33.5175C147.229 35.3082 149.37 36.2035 151.901 36.2035C154.431 36.2035 156.533 35.3082 158.324 33.5175C160.115 31.7657 161.01 29.6247 161.01 27.0944C161.01 24.5641 160.115 22.462 158.324 20.6713C156.533 18.8806 154.431 17.9852 151.901 17.9852Z" fill="white"/>
<path d="M171.591 17.9853C170.735 17.9853 170.034 17.7128 169.412 17.1289C168.828 16.5061 168.555 15.8054 168.555 14.9489C168.555 14.0925 168.828 13.3918 169.412 12.769C170.034 12.185 170.735 11.9126 171.591 11.9126H192.379C193.235 11.9126 193.936 12.185 194.559 12.769C195.143 13.3918 195.415 14.0925 195.415 14.9489C195.415 15.8054 195.143 16.5061 194.559 17.1289C193.936 17.7128 193.235 17.9853 192.379 17.9853H185.022V39.24C185.022 40.0964 184.749 40.7971 184.165 41.381C183.542 42.0039 182.842 42.2764 181.985 42.2764C181.129 42.2764 180.428 41.965 179.844 41.381C179.221 40.7971 178.949 40.0964 178.949 39.24V17.9853H171.591Z" fill="white"/>
<path d="M218.387 11.9126C220.917 11.9126 223.019 12.8079 224.81 14.5986C226.601 16.3503 227.496 18.4914 227.496 21.0217C227.496 22.8902 226.951 24.6031 225.9 26.1602C228.119 27.9898 229.248 30.2866 229.248 33.1283C229.248 35.6586 228.353 37.7607 226.562 39.5514C224.81 41.3421 222.669 42.2375 220.139 42.2375H204.529C203.672 42.2375 202.971 41.926 202.388 41.3421C201.765 40.7582 201.492 40.0575 201.492 39.2011V14.9489C201.492 14.0925 201.804 13.3918 202.388 12.769C202.971 12.185 203.672 11.9126 204.529 11.9126H218.387ZM207.565 24.0581H218.387C219.243 24.0581 219.944 23.7467 220.528 23.1627C221.151 22.5788 221.423 21.8781 221.423 21.0217C221.423 20.1653 221.112 19.4646 220.528 18.8807C219.944 18.2578 219.243 17.9853 218.387 17.9853H207.565V24.0581ZM220.139 36.2036C220.995 36.2036 221.696 35.8922 222.28 35.3083C222.903 34.7244 223.175 34.0237 223.175 33.1672C223.175 32.3108 222.864 31.6101 222.28 31.0262C221.696 30.4034 220.995 30.1309 220.139 30.1309H207.565V36.2036H220.139Z" fill="white"/>
<path d="M240.927 42.2375C240.071 42.2375 239.37 41.965 238.747 41.381C238.163 40.7582 237.891 40.0575 237.891 39.2011V14.9489C237.891 14.0925 238.163 13.3918 238.747 12.769C239.37 12.185 240.071 11.9126 240.927 11.9126C241.745 11.9126 242.484 12.185 243.107 12.769C243.691 13.3918 243.963 14.0925 243.963 14.9489V39.24C243.963 40.0964 243.691 40.7971 243.107 41.42C242.484 41.965 241.745 42.2375 240.927 42.2375Z" fill="white"/>
<path d="M252.178 17.9853C251.321 17.9853 250.62 17.7128 249.998 17.1289C249.414 16.5061 249.141 15.8054 249.141 14.9489C249.141 14.0925 249.414 13.3918 249.998 12.769C250.62 12.185 251.321 11.9126 252.178 11.9126H272.965C273.822 11.9126 274.522 12.185 275.145 12.769C275.729 13.3918 276.001 14.0925 276.001 14.9489C276.001 15.8054 275.729 16.5061 275.145 17.1289C274.522 17.7128 273.822 17.9853 272.965 17.9853H265.608V39.24C265.608 40.0964 265.335 40.7971 264.751 41.381C264.128 42.0039 263.428 42.2764 262.571 42.2764C261.715 42.2764 261.014 41.965 260.43 41.381C259.807 40.7971 259.535 40.0964 259.535 39.24V17.9853H252.178Z" fill="white"/>
<path d="M3.8928 31.0258C6.04273 31.0258 7.7856 29.2829 7.7856 27.133C7.7856 24.9831 6.04273 23.2402 3.8928 23.2402C1.74287 23.2402 0 24.9831 0 27.133C0 29.2829 1.74287 31.0258 3.8928 31.0258Z" fill="white"/>
<path d="M30.9084 46.831C33.0583 46.831 34.8012 45.0881 34.8012 42.9382C34.8012 40.7882 33.0583 39.0454 30.9084 39.0454C28.7585 39.0454 27.0156 40.7882 27.0156 42.9382C27.0156 45.0881 28.7585 46.831 30.9084 46.831Z" fill="white"/>
<path d="M86.8519 24.2132C85.8788 23.3179 85.0223 23.2011 84.2438 23.2789C84.0881 23.2789 83.9713 23.24 83.8156 23.24H42.4351C44.2258 14.4034 52.0892 7.74667 61.432 7.74667C66.5705 7.74667 71.4365 9.732 75.0957 13.3523C76.5749 14.8316 78.9885 14.9484 80.5067 13.5469C82.1417 12.0288 82.1806 9.49843 80.6235 7.94131C75.485 2.80282 68.6726 0 61.432 0C55.0088 0 49.0529 2.25782 44.4204 6.03384C42.2794 7.66882 40.6833 7.74667 37.2966 7.74667H30.7956C28.6157 7.74667 26.8639 9.53736 26.9028 11.7563C26.9418 13.8584 28.8103 15.4933 30.9124 15.4933H36.8684H36.9073H41.2283L37.2966 16.194C36.8295 16.2719 36.4013 16.5833 36.2455 17.0505C35.7006 18.4519 35.3113 19.9311 34.922 21.4104C34.5716 22.695 32.6252 23.2789 29.8224 23.2789H15.6916C13.5505 23.2789 11.7209 24.9139 11.6431 27.055C11.5652 29.2349 13.3559 31.0645 15.5359 31.0645H34.5716H39.9437L35.9341 31.7263C35.2334 31.8431 34.8052 32.5049 34.9609 33.2056C37.7248 45.2733 48.5079 54.3435 61.432 54.3435C75.9521 54.3435 87.8641 42.8597 88.5648 28.4953C88.6037 26.8603 88.0198 25.3032 86.8519 24.2132ZM61.432 46.519C52.0503 46.519 44.2258 39.8623 42.4351 31.0256H80.4288C78.5992 39.8623 70.7747 46.519 61.432 46.519Z" fill="white"/>
</g>
<defs>
<clipPath id="clip0_3566_646">
<rect width="276" height="55" fill="white"/>
</clipPath>
</defs>
</svg>
