<svg width="96" height="114" viewBox="0 0 96 114" fill="none" xmlns="http://www.w3.org/2000/svg">
<g filter="url(#filter0_d_2096_3947)">
<path d="M65.5794 50.5084C63.604 44.1057 59.8528 38.0909 56.3014 33.4344C51.9953 27.735 48 24 48 24C48 24 44.0047 27.7107 39.6986 33.4344C36.1472 38.0909 32.396 44.1057 30.4206 50.5084C29.5327 53.3703 29 56.3291 29 59.2637C29 70.7111 37.5012 80 48 80C58.4988 80 67 70.7111 67 59.2637C67 56.3291 66.4673 53.3703 65.5794 50.5084ZM44.9369 50.3387V41.3893H51.0631V50.3387H53.9486L48 60.0398L42.0514 50.3387H44.9369ZM48 75.2707C40.4089 75.2707 34.1717 69.0134 33.3505 60.9615C36.5023 66.1516 41.896 69.547 48 69.547C54.104 69.547 59.4977 66.1516 62.6495 60.9615C61.8283 69.0134 55.5911 75.2707 48 75.2707Z" fill="url(#paint0_linear_2096_3947)" shape-rendering="crispEdges"/>
<path d="M65.5794 50.5084C63.604 44.1057 59.8528 38.0909 56.3014 33.4344C51.9953 27.735 48 24 48 24C48 24 44.0047 27.7107 39.6986 33.4344C36.1472 38.0909 32.396 44.1057 30.4206 50.5084C29.5327 53.3703 29 56.3291 29 59.2637C29 70.7111 37.5012 80 48 80C58.4988 80 67 70.7111 67 59.2637C67 56.3291 66.4673 53.3703 65.5794 50.5084ZM44.9369 50.3387V41.3893H51.0631V50.3387H53.9486L48 60.0398L42.0514 50.3387H44.9369ZM48 75.2707C40.4089 75.2707 34.1717 69.0134 33.3505 60.9615C36.5023 66.1516 41.896 69.547 48 69.547C54.104 69.547 59.4977 66.1516 62.6495 60.9615C61.8283 69.0134 55.5911 75.2707 48 75.2707Z" stroke="url(#paint1_radial_2096_3947)" stroke-opacity="0.2" stroke-width="1.66622" shape-rendering="crispEdges"/>
</g>
<defs>
<filter id="filter0_d_2096_3947" x="0.709963" y="0.895756" width="94.5801" height="112.886" filterUnits="userSpaceOnUse" color-interpolation-filters="sRGB">
<feFlood flood-opacity="0" result="BackgroundImageFix"/>
<feColorMatrix in="SourceAlpha" type="matrix" values="0 0 0 0 0 0 0 0 0 0 0 0 0 0 0 0 0 0 127 0" result="hardAlpha"/>
<feOffset dy="5.49138"/>
<feGaussianBlur stdDeviation="13.7285"/>
<feComposite in2="hardAlpha" operator="out"/>
<feColorMatrix type="matrix" values="0 0 0 0 0 0 0 0 0 0 0 0 0 0 0 0 0 0 0.5 0"/>
<feBlend mode="normal" in2="BackgroundImageFix" result="effect1_dropShadow_2096_3947"/>
<feBlend mode="normal" in="SourceGraphic" in2="effect1_dropShadow_2096_3947" result="shape"/>
</filter>
<linearGradient id="paint0_linear_2096_3947" x1="48" y1="24" x2="48" y2="80" gradientUnits="userSpaceOnUse">
<stop stop-color="white"/>
<stop offset="1" stop-color="white" stop-opacity="0"/>
</linearGradient>
<radialGradient id="paint1_radial_2096_3947" cx="0" cy="0" r="1" gradientUnits="userSpaceOnUse" gradientTransform="translate(29 24) rotate(55.8403) scale(67.6757 62.8882)">
<stop stop-color="#FAFAFA"/>
<stop offset="1" stop-color="#F7F7F7" stop-opacity="0"/>
</radialGradient>
</defs>
</svg>
