<svg width="98" height="94" viewBox="0 0 98 94" fill="none" xmlns="http://www.w3.org/2000/svg">
<g filter="url(#filter0_d_2096_3929)">
<path d="M68.8444 33.0214L61.9142 23H59.3269L52.3966 33.0214L53.6902 35.8387H57.331V47.8322C57.331 50.086 55.7046 51.9876 53.6348 52.038C51.5095 52.0883 49.7631 50.2168 49.7631 47.9127V34.3093C49.7631 28.051 45.0782 22.9698 39.3215 23.0101C33.5925 23.0402 29 28.2019 29 34.4401V47.9227H35.5884H35.5976V34.3898C35.5976 32.136 37.2239 30.2343 39.2938 30.184C41.419 30.1337 43.1655 32.0052 43.1655 34.3093V47.9227C43.1655 54.1811 47.8503 59.2622 53.6071 59.222C59.3361 59.1918 63.9286 54.0302 63.9286 47.7919V35.8387H67.56L68.8444 33.0214Z" fill="url(#paint0_linear_2096_3929)" shape-rendering="crispEdges"/>
<path d="M68.8444 33.0214L61.9142 23H59.3269L52.3966 33.0214L53.6902 35.8387H57.331V47.8322C57.331 50.086 55.7046 51.9876 53.6348 52.038C51.5095 52.0883 49.7631 50.2168 49.7631 47.9127V34.3093C49.7631 28.051 45.0782 22.9698 39.3215 23.0101C33.5925 23.0402 29 28.2019 29 34.4401V47.9227H35.5884H35.5976V34.3898C35.5976 32.136 37.2239 30.2343 39.2938 30.184C41.419 30.1337 43.1655 32.0052 43.1655 34.3093V47.9227C43.1655 54.1811 47.8503 59.2622 53.6071 59.222C59.3361 59.1918 63.9286 54.0302 63.9286 47.7919V35.8387H67.56L68.8444 33.0214Z" stroke="url(#paint1_radial_2096_3929)" stroke-opacity="0.2" stroke-width="1.66622" shape-rendering="crispEdges"/>
</g>
<defs>
<filter id="filter0_d_2096_3929" x="0.710085" y="0.201375" width="96.5457" height="92.8022" filterUnits="userSpaceOnUse" color-interpolation-filters="sRGB">
<feFlood flood-opacity="0" result="BackgroundImageFix"/>
<feColorMatrix in="SourceAlpha" type="matrix" values="0 0 0 0 0 0 0 0 0 0 0 0 0 0 0 0 0 0 127 0" result="hardAlpha"/>
<feOffset dy="5.49138"/>
<feGaussianBlur stdDeviation="13.7285"/>
<feComposite in2="hardAlpha" operator="out"/>
<feColorMatrix type="matrix" values="0 0 0 0 0 0 0 0 0 0 0 0 0 0 0 0 0 0 0.5 0"/>
<feBlend mode="normal" in2="BackgroundImageFix" result="effect1_dropShadow_2096_3929"/>
<feBlend mode="normal" in="SourceGraphic" in2="effect1_dropShadow_2096_3929" result="shape"/>
</filter>
<linearGradient id="paint0_linear_2096_3929" x1="48.9222" y1="23" x2="48.9222" y2="59.2222" gradientUnits="userSpaceOnUse">
<stop stop-color="white"/>
<stop offset="1" stop-color="white" stop-opacity="0"/>
</linearGradient>
<radialGradient id="paint1_radial_2096_3929" cx="0" cy="0" r="1" gradientUnits="userSpaceOnUse" gradientTransform="translate(29 23) rotate(42.2737) scale(53.8482 53.6045)">
<stop stop-color="#FAFAFA"/>
<stop offset="1" stop-color="#F7F7F7" stop-opacity="0"/>
</radialGradient>
</defs>
</svg>
