<svg width="99" height="95" viewBox="0 0 99 95" fill="none" xmlns="http://www.w3.org/2000/svg">
<g filter="url(#filter0_d_2096_3951)">
<path d="M38.4615 23C33.2356 23 29 27.2528 29 32.5C29 36.015 30.9049 39.0762 33.7308 40.7197V56.25C33.7308 58.8736 35.8486 61 38.4615 61C41.0745 61 43.1923 58.8736 43.1923 56.25V40.7197C46.0182 39.0762 47.9231 36.015 47.9231 32.5C47.9231 31.1067 47.6184 29.7865 47.0823 28.5942L41.6154 34.0833H40.0385H36.8846V29.3333L42.3515 23.8442C41.1641 23.3059 39.8492 23 38.4615 23ZM50.655 35.6667C50.3648 36.7798 49.9246 37.8438 49.3522 38.8333H52.429C54.0138 38.8333 55.4852 39.6233 56.3652 40.9486L58.1515 43.6359C58.0465 43.6207 57.9386 43.598 57.8343 43.5833H46.3462L46.4262 56.25H57.9452C58.839 58.1109 60.7227 59.4167 62.9038 59.4167C65.3359 59.4167 67.3938 57.7943 68.1212 55.5851L70 54.6667V48.4849C70 46.9997 68.9744 45.7107 67.5299 45.3924C66.1687 45.0921 64.3523 44.7216 62.4234 44.3595L58.9923 39.1921C57.5258 36.9849 55.075 35.6667 52.4321 35.6667H50.655ZM62.9038 51.5C64.2289 51.5 65.2692 52.5446 65.2692 53.875C65.2692 55.2054 64.2289 56.25 62.9038 56.25C61.5788 56.25 60.5385 55.2054 60.5385 53.875C60.5385 52.5446 61.5788 51.5 62.9038 51.5ZM38.4615 54.6667C39.332 54.6667 40.0385 55.376 40.0385 56.25C40.0385 57.124 39.332 57.8333 38.4615 57.8333C37.5911 57.8333 36.8846 57.124 36.8846 56.25C36.8846 55.376 37.5911 54.6667 38.4615 54.6667Z" fill="url(#paint0_linear_2096_3951)" shape-rendering="crispEdges"/>
<path d="M38.4615 23C33.2356 23 29 27.2528 29 32.5C29 36.015 30.9049 39.0762 33.7308 40.7197V56.25C33.7308 58.8736 35.8486 61 38.4615 61C41.0745 61 43.1923 58.8736 43.1923 56.25V40.7197C46.0182 39.0762 47.9231 36.015 47.9231 32.5C47.9231 31.1067 47.6184 29.7865 47.0823 28.5942L41.6154 34.0833H40.0385H36.8846V29.3333L42.3515 23.8442C41.1641 23.3059 39.8492 23 38.4615 23ZM50.655 35.6667C50.3648 36.7798 49.9246 37.8438 49.3522 38.8333H52.429C54.0138 38.8333 55.4852 39.6233 56.3652 40.9486L58.1515 43.6359C58.0465 43.6207 57.9386 43.598 57.8343 43.5833H46.3462L46.4262 56.25H57.9452C58.839 58.1109 60.7227 59.4167 62.9038 59.4167C65.3359 59.4167 67.3938 57.7943 68.1212 55.5851L70 54.6667V48.4849C70 46.9997 68.9744 45.7107 67.5299 45.3924C66.1687 45.0921 64.3523 44.7216 62.4234 44.3595L58.9923 39.1921C57.5258 36.9849 55.075 35.6667 52.4321 35.6667H50.655ZM62.9038 51.5C64.2289 51.5 65.2692 52.5446 65.2692 53.875C65.2692 55.2054 64.2289 56.25 62.9038 56.25C61.5788 56.25 60.5385 55.2054 60.5385 53.875C60.5385 52.5446 61.5788 51.5 62.9038 51.5ZM38.4615 54.6667C39.332 54.6667 40.0385 55.376 40.0385 56.25C40.0385 57.124 39.332 57.8333 38.4615 57.8333C37.5911 57.8333 36.8846 57.124 36.8846 56.25C36.8846 55.376 37.5911 54.6667 38.4615 54.6667Z" stroke="url(#paint1_radial_2096_3951)" stroke-opacity="0.2" stroke-width="1.66622" shape-rendering="crispEdges"/>
</g>
<defs>
<filter id="filter0_d_2096_3951" x="0.710085" y="0.201375" width="97.5798" height="94.58" filterUnits="userSpaceOnUse" color-interpolation-filters="sRGB">
<feFlood flood-opacity="0" result="BackgroundImageFix"/>
<feColorMatrix in="SourceAlpha" type="matrix" values="0 0 0 0 0 0 0 0 0 0 0 0 0 0 0 0 0 0 127 0" result="hardAlpha"/>
<feOffset dy="5.49138"/>
<feGaussianBlur stdDeviation="13.7285"/>
<feComposite in2="hardAlpha" operator="out"/>
<feColorMatrix type="matrix" values="0 0 0 0 0 0 0 0 0 0 0 0 0 0 0 0 0 0 0.5 0"/>
<feBlend mode="normal" in2="BackgroundImageFix" result="effect1_dropShadow_2096_3951"/>
<feBlend mode="normal" in="SourceGraphic" in2="effect1_dropShadow_2096_3951" result="shape"/>
</filter>
<linearGradient id="paint0_linear_2096_3951" x1="49.5" y1="23" x2="49.5" y2="61" gradientUnits="userSpaceOnUse">
<stop stop-color="white"/>
<stop offset="1" stop-color="white" stop-opacity="0"/>
</linearGradient>
<radialGradient id="paint1_radial_2096_3951" cx="0" cy="0" r="1" gradientUnits="userSpaceOnUse" gradientTransform="translate(29 23) rotate(42.8253) scale(55.9017 55.7407)">
<stop stop-color="#FAFAFA"/>
<stop offset="1" stop-color="#F7F7F7" stop-opacity="0"/>
</radialGradient>
</defs>
</svg>
