<svg width="97" height="103" viewBox="0 0 97 103" fill="none" xmlns="http://www.w3.org/2000/svg">
<g filter="url(#filter0_d_2096_3891)">
<path d="M48.3727 53.9238C48.328 53.9768 48.282 54.0285 48.2332 54.0787H48.5122C48.4689 54.0285 48.4229 53.9768 48.3727 53.9238Z" fill="url(#paint0_linear_2096_3891)" stroke="url(#paint1_radial_2096_3891)" stroke-opacity="0.2" stroke-width="1.66622"/>
<path d="M67.5153 43.8645L64.8145 36.8153C64.3849 35.696 63.5286 34.793 62.4336 34.3046C61.3387 33.8163 60.0947 33.7825 58.9748 34.2107L53.9903 36.122L51.0133 37.2687H51.0063C50.8633 37.324 50.7236 37.3873 50.5878 37.4584C50.4985 37.5058 50.412 37.5561 50.3269 37.6091L50.2307 37.6733C50.1986 37.6942 50.1665 37.7165 50.1358 37.7402C50.0389 37.8092 49.9458 37.8832 49.8568 37.962C49.8191 37.9941 49.7828 38.0276 49.748 38.0611C49.6894 38.1155 49.6322 38.1727 49.5778 38.2313C49.5234 38.2899 49.5052 38.3094 49.4704 38.3499L49.4118 38.4196C49.3839 38.4531 49.356 38.488 49.3295 38.5228L49.2723 38.5982C49.1725 38.7354 49.0816 38.879 49.0002 39.0278C48.9765 39.0697 48.9556 39.1116 48.9347 39.1534C48.9137 39.1953 48.8775 39.2706 48.851 39.332C48.8244 39.3934 48.8077 39.431 48.7882 39.4812C48.7686 39.5315 48.7366 39.6207 48.7156 39.6849C48.7108 39.6968 48.7066 39.7089 48.7031 39.7212C48.6961 39.7421 48.6905 39.763 48.6849 39.784C48.6767 39.8073 48.6697 39.831 48.664 39.8551C48.664 39.8719 48.6542 39.89 48.6501 39.9067C48.6361 39.9611 48.6236 40.0142 48.6096 40.07C48.6096 40.0937 48.5998 40.1174 48.5957 40.1425C48.5845 40.1955 48.5761 40.2485 48.5664 40.3029C48.5566 40.3573 48.5482 40.4313 48.5412 40.4968C48.5329 40.5638 48.5287 40.6363 48.5259 40.6991C48.5259 40.7256 48.5259 40.7507 48.5259 40.7772C48.5259 40.8038 48.5259 40.8512 48.5259 40.8889C48.5259 40.9265 48.5259 40.9809 48.5259 41.0284C48.5482 41.6478 48.7179 42.253 49.0211 42.7937C49.3243 43.3343 49.7522 43.7948 50.2691 44.1368C50.7861 44.4789 51.3772 44.6926 51.9933 44.7602C52.6095 44.8279 53.2329 44.7475 53.8118 44.5257L56.7428 43.4069C57.6381 43.8709 58.4195 44.5275 59.0307 45.3296C59.642 46.1316 60.0679 47.0591 60.2778 48.0455L60.4173 48.7193H57.0831L56.9562 48.3384C56.7179 47.6319 56.2636 47.0182 55.6576 46.5839C55.0516 46.1495 54.3244 45.9166 53.5788 45.918C53.3692 45.9175 53.16 45.9362 52.9538 45.9738C52.3247 46.0853 51.7374 46.3644 51.2537 46.7818C50.77 47.1992 50.4079 47.7394 50.2055 48.3454L50.0772 48.7263H46.6789L46.5505 48.3454C46.2622 47.4817 45.6521 46.7622 44.8472 46.3365C44.8081 46.3156 44.769 46.2947 44.7286 46.2765C44.5084 46.17 44.278 46.0864 44.0408 46.0268C43.1724 45.8095 42.2541 45.9273 41.4687 46.3567C40.6832 46.7862 40.0884 47.4957 39.8026 48.344L39.6757 48.7249H34.3522C33.6447 48.7248 32.9482 48.5494 32.325 48.2144C31.7018 47.8795 31.1713 47.3953 30.7808 46.8053L30.4684 46.3309C30.4172 46.2535 30.3408 46.1963 30.2521 46.1689C30.1634 46.1416 30.068 46.146 29.9821 46.1812C29.8963 46.2165 29.8254 46.2805 29.7815 46.3622C29.7376 46.444 29.7235 46.5385 29.7415 46.6295L31.71 56.4409C31.8705 57.2314 32.2837 57.9482 32.8874 58.4832L33.9127 59.3928C34.287 59.725 34.5902 60.1294 34.804 60.5818C35.0179 61.0342 35.138 61.5252 35.1571 62.0253L35.2771 65.1544C35.3143 66.116 35.7235 67.0255 36.4184 67.6913C37.1133 68.357 38.0396 68.7269 39.0019 68.7229L54.5874 68.6574C55.5684 68.6518 56.5073 68.258 57.1988 67.5621C57.8903 66.8662 58.2781 65.9248 58.2773 64.9437V59.5518C58.2775 58.6591 58.5995 57.7963 59.1841 57.1217L66.7048 48.4458C67.2421 47.8272 67.6014 47.0742 67.7441 46.2673C67.8869 45.4605 67.8078 44.6299 67.5153 43.8645ZM60.3225 50.6375C60.1079 51.903 59.5414 53.0826 58.6877 54.0412C57.834 54.9998 56.7276 55.6987 55.4953 56.0578C54.2629 56.4169 52.9543 56.4218 51.7193 56.0718C50.4843 55.7219 49.3728 55.0313 48.512 54.0791H48.2329C47.372 55.0305 46.2607 55.7203 45.0261 56.0698C43.7915 56.4192 42.4834 56.4141 41.2516 56.0551C40.0197 55.696 38.9138 54.9975 38.0603 54.0395C37.2068 53.0814 36.6402 51.9024 36.4252 50.6375L36.3136 49.986H39.6185L39.7287 50.4045C39.9321 51.1612 40.3793 51.8297 41.0012 52.3065C41.623 52.7832 42.3847 53.0416 43.1682 53.0416C43.9518 53.0416 44.7134 52.7832 45.3353 52.3065C45.9571 51.8297 46.4043 51.1612 46.6077 50.4045L46.7179 49.986H50.02L50.1316 50.4045C50.3345 51.1615 50.7815 51.8303 51.4032 52.3074C52.025 52.7844 52.7867 53.043 53.5704 53.043C54.3541 53.043 55.1159 52.7844 55.7376 52.3074C56.3594 51.8303 56.8063 51.1615 57.0092 50.4045L57.1208 49.986H60.4257L60.3225 50.6375Z" fill="url(#paint2_linear_2096_3891)" stroke="url(#paint3_radial_2096_3891)" stroke-opacity="0.2" stroke-width="1.66622"/>
<path d="M48.5122 54.0787H48.2332C48.2792 54.0285 48.3252 53.9768 48.3727 53.9238C48.4229 53.9768 48.4689 54.0285 48.5122 54.0787Z" fill="url(#paint4_linear_2096_3891)" stroke="url(#paint5_radial_2096_3891)" stroke-opacity="0.2" stroke-width="1.66622"/>
<path d="M60.9282 28.8983C60.9286 29.7471 60.6249 30.568 60.0723 31.2123C59.5196 31.8565 58.7545 32.2816 57.9156 32.4104C57.0766 32.5393 56.2192 32.3634 55.4987 31.9146C54.7782 31.4659 54.2422 30.7739 53.9879 29.9641L53.2485 27.619C52.9656 26.7203 53.0514 25.7461 53.4868 24.9106C53.9223 24.0751 54.6718 23.4468 55.5705 23.1639C56.4692 22.8811 57.4435 22.9668 58.279 23.4023C59.1145 23.8378 59.7428 24.5873 60.0256 25.486L60.7636 27.8311C60.8726 28.1764 60.9281 28.5362 60.9282 28.8983Z" fill="url(#paint6_linear_2096_3891)" stroke="url(#paint7_radial_2096_3891)" stroke-opacity="0.2" stroke-width="1.66622"/>
<path d="M38.2667 42.093C38.537 42.9876 38.4437 43.9528 38.0072 44.7791C37.5706 45.6055 36.826 46.2265 35.9346 46.5075C35.0433 46.7885 34.0771 46.7069 33.2456 46.2804C32.414 45.8538 31.7841 45.1167 31.4923 44.2288L29.164 36.8504C28.881 35.9519 28.9664 34.9777 29.4017 34.1422C29.8369 33.3067 30.5861 32.6783 31.4847 32.3953C32.3832 32.1122 33.3574 32.1977 34.1928 32.6329C35.0283 33.0682 35.6567 33.8174 35.9398 34.716L38.2667 42.093Z" fill="url(#paint8_linear_2096_3891)" stroke="url(#paint9_radial_2096_3891)" stroke-opacity="0.2" stroke-width="1.66622"/>
<path d="M46.6993 40.2944C46.9624 41.1179 46.9162 42.0092 46.5691 42.801C46.2221 43.5929 45.5982 44.231 44.8144 44.5957C44.0305 44.9604 43.1405 45.0267 42.3113 44.7822C41.482 44.5376 40.7705 43.999 40.31 43.2673C40.1496 43.0165 40.0225 42.7459 39.9319 42.4623C39.9276 42.4523 39.9239 42.4421 39.9207 42.4316L38.7084 38.5841V38.5687L38.2006 36.9588V36.9435C38.2006 36.9281 38.1895 36.9142 38.1853 36.8988L37.199 33.767L36.9688 33.0373C36.686 32.1386 36.7717 31.1644 37.2072 30.3289C37.6426 29.4934 38.3922 28.8651 39.2909 28.5822C40.1896 28.2994 41.1638 28.3851 41.9993 28.8206C42.8348 29.2561 43.4631 30.0056 43.746 30.9043L43.9748 31.6311L44.9527 34.7574L45.4842 36.4413L46.6993 40.2944Z" fill="url(#paint10_linear_2096_3891)" stroke="url(#paint11_radial_2096_3891)" stroke-opacity="0.2" stroke-width="1.66622"/>
<path d="M52.8894 32.033C52.8883 32.8813 52.5838 33.7011 52.0309 34.3445C51.478 34.9878 50.7132 35.412 49.8748 35.5406C49.0363 35.6692 48.1795 35.4935 47.4593 35.0454C46.739 34.5974 46.2028 33.9064 45.9476 33.0974L44.8567 29.6335C44.5742 28.7348 44.6603 27.7607 45.096 26.9255C45.5318 26.0902 46.2814 25.4623 47.1802 25.1798C48.0789 24.8973 49.053 24.9834 49.8882 25.4192C50.7234 25.8549 51.3514 26.6046 51.6339 27.5033L52.7234 30.9672C52.8324 31.312 52.8884 31.6714 52.8894 32.033Z" fill="url(#paint12_linear_2096_3891)" stroke="url(#paint13_radial_2096_3891)" stroke-opacity="0.2" stroke-width="1.66622"/>
</g>
<defs>
<filter id="filter0_d_2096_3891" x="0.709841" y="0.201436" width="95.3934" height="102.303" filterUnits="userSpaceOnUse" color-interpolation-filters="sRGB">
<feFlood flood-opacity="0" result="BackgroundImageFix"/>
<feColorMatrix in="SourceAlpha" type="matrix" values="0 0 0 0 0 0 0 0 0 0 0 0 0 0 0 0 0 0 127 0" result="hardAlpha"/>
<feOffset dy="5.49138"/>
<feGaussianBlur stdDeviation="13.7285"/>
<feComposite in2="hardAlpha" operator="out"/>
<feColorMatrix type="matrix" values="0 0 0 0 0 0 0 0 0 0 0 0 0 0 0 0 0 0 0.5 0"/>
<feBlend mode="normal" in2="BackgroundImageFix" result="effect1_dropShadow_2096_3891"/>
<feBlend mode="normal" in="SourceGraphic" in2="effect1_dropShadow_2096_3891" result="shape"/>
</filter>
<linearGradient id="paint0_linear_2096_3891" x1="48.3727" y1="53.9238" x2="48.3727" y2="54.0787" gradientUnits="userSpaceOnUse">
<stop stop-color="white"/>
<stop offset="1" stop-color="white" stop-opacity="0"/>
</linearGradient>
<radialGradient id="paint1_radial_2096_3891" cx="0" cy="0" r="1" gradientUnits="userSpaceOnUse" gradientTransform="translate(48.2332 53.9238) rotate(29.03) scale(0.3191 0.270789)">
<stop stop-color="#FAFAFA"/>
<stop offset="1" stop-color="#F7F7F7" stop-opacity="0"/>
</radialGradient>
<linearGradient id="paint2_linear_2096_3891" x1="48.7736" y1="33.9123" x2="48.7736" y2="68.7229" gradientUnits="userSpaceOnUse">
<stop stop-color="white"/>
<stop offset="1" stop-color="white" stop-opacity="0"/>
</linearGradient>
<radialGradient id="paint3_radial_2096_3891" cx="0" cy="0" r="1" gradientUnits="userSpaceOnUse" gradientTransform="translate(29.7339 33.9123) rotate(42.4323) scale(51.5929 51.3858)">
<stop stop-color="#FAFAFA"/>
<stop offset="1" stop-color="#F7F7F7" stop-opacity="0"/>
</radialGradient>
<linearGradient id="paint4_linear_2096_3891" x1="48.3727" y1="53.9238" x2="48.3727" y2="54.0787" gradientUnits="userSpaceOnUse">
<stop stop-color="white"/>
<stop offset="1" stop-color="white" stop-opacity="0"/>
</linearGradient>
<radialGradient id="paint5_radial_2096_3891" cx="0" cy="0" r="1" gradientUnits="userSpaceOnUse" gradientTransform="translate(48.2332 53.9238) rotate(29.03) scale(0.3191 0.270789)">
<stop stop-color="#FAFAFA"/>
<stop offset="1" stop-color="#F7F7F7" stop-opacity="0"/>
</radialGradient>
<linearGradient id="paint6_linear_2096_3891" x1="57.0064" y1="23.0001" x2="57.0064" y2="32.4516" gradientUnits="userSpaceOnUse">
<stop stop-color="white"/>
<stop offset="1" stop-color="white" stop-opacity="0"/>
</linearGradient>
<radialGradient id="paint7_radial_2096_3891" cx="0" cy="0" r="1" gradientUnits="userSpaceOnUse" gradientTransform="translate(53.0846 23.0001) rotate(50.3114) scale(12.2823 12.0718)">
<stop stop-color="#FAFAFA"/>
<stop offset="1" stop-color="#F7F7F7" stop-opacity="0"/>
</radialGradient>
<linearGradient id="paint8_linear_2096_3891" x1="33.7092" y1="32.2312" x2="33.7092" y2="46.6719" gradientUnits="userSpaceOnUse">
<stop stop-color="white"/>
<stop offset="1" stop-color="white" stop-opacity="0"/>
</linearGradient>
<radialGradient id="paint9_radial_2096_3891" cx="0" cy="0" r="1" gradientUnits="userSpaceOnUse" gradientTransform="translate(28.9999 32.2312) rotate(56.8866) scale(17.2408 15.7778)">
<stop stop-color="#FAFAFA"/>
<stop offset="1" stop-color="#F7F7F7" stop-opacity="0"/>
</radialGradient>
<linearGradient id="paint10_linear_2096_3891" x1="41.8364" y1="28.4184" x2="41.8364" y2="44.9272" gradientUnits="userSpaceOnUse">
<stop stop-color="white"/>
<stop offset="1" stop-color="white" stop-opacity="0"/>
</linearGradient>
<radialGradient id="paint11_radial_2096_3891" cx="0" cy="0" r="1" gradientUnits="userSpaceOnUse" gradientTransform="translate(36.8049 28.4184) rotate(58.6359) scale(19.334 17.1849)">
<stop stop-color="#FAFAFA"/>
<stop offset="1" stop-color="#F7F7F7" stop-opacity="0"/>
</radialGradient>
<linearGradient id="paint12_linear_2096_3891" x1="48.7913" y1="25.0164" x2="48.7913" y2="35.5817" gradientUnits="userSpaceOnUse">
<stop stop-color="white"/>
<stop offset="1" stop-color="white" stop-opacity="0"/>
</linearGradient>
<radialGradient id="paint13_radial_2096_3891" cx="0" cy="0" r="1" gradientUnits="userSpaceOnUse" gradientTransform="translate(44.6932 25.0164) rotate(52.197) scale(13.3717 12.952)">
<stop stop-color="#FAFAFA"/>
<stop offset="1" stop-color="#F7F7F7" stop-opacity="0"/>
</radialGradient>
</defs>
</svg>
