<svg width="107" height="106" viewBox="0 0 107 106" fill="none" xmlns="http://www.w3.org/2000/svg">
<g filter="url(#filter0_d_2096_3909)">
<path d="M71.4373 23C69.8167 23 68.2613 23.6451 67.1156 24.7908L62.8257 29.0807L65.7068 31.9618L69.9967 27.6719C70.3792 27.2895 70.8982 27.075 71.4373 27.075H77.9V23H71.4373ZM47.3375 29.1125L44.7389 31.7111C43.1034 33.3466 42.8632 35.8299 43.9828 37.7361L33.1108 48.608C31.9113 49.8075 31.2743 51.3492 31.133 52.9298C29.7573 54.9465 29 57.342 29 59.8183V71.9H33.075V59.8183C33.075 59.4072 33.1336 59.0059 33.1944 58.6045L40.3416 65.7517C43.0619 68.472 47.5342 68.472 50.2545 65.7517L61.1264 54.8797C63.0319 55.9993 65.5159 55.7591 67.1514 54.1236L69.75 51.525V41.3375L57.525 29.1125H47.3375ZM49.375 45.0623C50.4177 45.0623 51.4605 45.4605 52.2562 46.2562L58.1219 52.1219L47.3733 62.8705C46.2101 64.0337 44.3859 64.0337 43.2227 62.8705L36.5531 56.1969L45.3 47.45V53.5625C45.2962 53.8325 45.3461 54.1006 45.4467 54.3511C45.5474 54.6017 45.6969 54.8297 45.8865 55.022C46.0761 55.2142 46.302 55.3669 46.5511 55.4711C46.8002 55.5754 47.0675 55.629 47.3375 55.629C47.6075 55.629 47.8748 55.5754 48.1239 55.4711C48.373 55.3669 48.5989 55.2142 48.7885 55.022C48.9781 54.8297 49.1276 54.6017 49.2283 54.3511C49.3289 54.1006 49.3788 53.8325 49.375 53.5625V45.0623Z" fill="url(#paint0_linear_2096_3909)" shape-rendering="crispEdges"/>
<path d="M71.4373 23C69.8167 23 68.2613 23.6451 67.1156 24.7908L62.8257 29.0807L65.7068 31.9618L69.9967 27.6719C70.3792 27.2895 70.8982 27.075 71.4373 27.075H77.9V23H71.4373ZM47.3375 29.1125L44.7389 31.7111C43.1034 33.3466 42.8632 35.8299 43.9828 37.7361L33.1108 48.608C31.9113 49.8075 31.2743 51.3492 31.133 52.9298C29.7573 54.9465 29 57.342 29 59.8183V71.9H33.075V59.8183C33.075 59.4072 33.1336 59.0059 33.1944 58.6045L40.3416 65.7517C43.0619 68.472 47.5342 68.472 50.2545 65.7517L61.1264 54.8797C63.0319 55.9993 65.5159 55.7591 67.1514 54.1236L69.75 51.525V41.3375L57.525 29.1125H47.3375ZM49.375 45.0623C50.4177 45.0623 51.4605 45.4605 52.2562 46.2562L58.1219 52.1219L47.3733 62.8705C46.2101 64.0337 44.3859 64.0337 43.2227 62.8705L36.5531 56.1969L45.3 47.45V53.5625C45.2962 53.8325 45.3461 54.1006 45.4467 54.3511C45.5474 54.6017 45.6969 54.8297 45.8865 55.022C46.0761 55.2142 46.302 55.3669 46.5511 55.4711C46.8002 55.5754 47.0675 55.629 47.3375 55.629C47.6075 55.629 47.8748 55.5754 48.1239 55.4711C48.373 55.3669 48.5989 55.2142 48.7885 55.022C48.9781 54.8297 49.1276 54.6017 49.2283 54.3511C49.3289 54.1006 49.3788 53.8325 49.375 53.5625V45.0623Z" stroke="url(#paint1_radial_2096_3909)" stroke-opacity="0.2" stroke-width="1.66622" shape-rendering="crispEdges"/>
</g>
<defs>
<filter id="filter0_d_2096_3909" x="0.709963" y="0.201375" width="105.48" height="105.48" filterUnits="userSpaceOnUse" color-interpolation-filters="sRGB">
<feFlood flood-opacity="0" result="BackgroundImageFix"/>
<feColorMatrix in="SourceAlpha" type="matrix" values="0 0 0 0 0 0 0 0 0 0 0 0 0 0 0 0 0 0 127 0" result="hardAlpha"/>
<feOffset dy="5.49138"/>
<feGaussianBlur stdDeviation="13.7285"/>
<feComposite in2="hardAlpha" operator="out"/>
<feColorMatrix type="matrix" values="0 0 0 0 0 0 0 0 0 0 0 0 0 0 0 0 0 0 0.5 0"/>
<feBlend mode="normal" in2="BackgroundImageFix" result="effect1_dropShadow_2096_3909"/>
<feBlend mode="normal" in="SourceGraphic" in2="effect1_dropShadow_2096_3909" result="shape"/>
</filter>
<linearGradient id="paint0_linear_2096_3909" x1="53.45" y1="23" x2="53.45" y2="71.9" gradientUnits="userSpaceOnUse">
<stop stop-color="white"/>
<stop offset="1" stop-color="white" stop-opacity="0"/>
</linearGradient>
<radialGradient id="paint1_radial_2096_3909" cx="0" cy="0" r="1" gradientUnits="userSpaceOnUse" gradientTransform="translate(29 23) rotate(45) scale(69.155)">
<stop stop-color="#FAFAFA"/>
<stop offset="1" stop-color="#F7F7F7" stop-opacity="0"/>
</radialGradient>
</defs>
</svg>
