<svg width="47" height="47" viewBox="0 0 47 47" fill="none" xmlns="http://www.w3.org/2000/svg">
<path d="M36.8166 0.435547H9.32606C4.17734 0.435547 0.00878906 4.60409 0.00878906 9.7528V37.2491C0.00878906 42.392 4.17734 46.5605 9.32606 46.5605H36.8224C41.9653 46.5605 46.1396 42.392 46.1396 37.2433V9.7528C46.1339 4.60409 41.9653 0.435547 36.8166 0.435547Z" fill="url(#paint0_linear_2492_1955)"/>
<path d="M22.7291 11.1085L23.6632 9.49411C24.2397 8.48513 25.5255 8.14496 26.5345 8.72152C27.5434 9.29808 27.8836 10.5838 27.3071 11.5928L18.3069 27.1713H24.8163C26.9265 27.1713 28.1085 29.6505 27.1917 31.3687H8.10748C6.94282 31.3687 6.00879 30.4347 6.00879 29.27C6.00879 28.1054 6.94282 27.1713 8.10748 27.1713H13.458L20.3076 15.3L18.1685 11.587C17.592 10.578 17.9321 9.30384 18.9411 8.71576C19.9501 8.1392 21.2243 8.47937 21.8124 9.48834L22.7291 11.1085ZM14.6342 33.5308L12.6162 37.0305C12.0396 38.0394 10.7539 38.3796 9.74492 37.803C8.73594 37.2265 8.39576 35.9408 8.97233 34.9318L10.4714 32.3373C12.1665 31.8126 13.5445 32.2162 14.6342 33.5308ZM32.0118 27.1829H37.4719C38.6365 27.1829 39.5706 28.1169 39.5706 29.2815C39.5706 30.4462 38.6365 31.3802 37.4719 31.3802H34.4392L36.486 34.9318C37.0625 35.9408 36.7224 37.215 35.7134 37.803C34.7044 38.3796 33.4302 38.0394 32.8421 37.0305C29.3942 31.0516 26.8054 26.5775 25.0873 23.5967C23.3288 20.564 24.5857 17.5198 25.8253 16.4877C27.2033 18.8516 29.2616 22.4205 32.0118 27.1829Z" fill="black"/>
<defs>
<linearGradient id="paint0_linear_2492_1955" x1="23.0742" y1="0.435547" x2="23.0742" y2="46.5605" gradientUnits="userSpaceOnUse">
<stop stop-color="#21E7D6"/>
<stop offset="1" stop-color="#88CAD5"/>
</linearGradient>
</defs>
</svg>
