<svg width="45" height="39" viewBox="0 0 45 39" fill="none" xmlns="http://www.w3.org/2000/svg">
<path fill-rule="evenodd" clip-rule="evenodd" d="M2.70986 17.2246C12.7427 12.8922 24.8774 6.72533 35.3936 2.55839C45.102 -1.11734 44.9398 -0.114861 43.4834 9.89148C42.3481 17.8929 41.0506 25.8926 39.7629 33.894C39.2763 37.7268 37.3301 39.7267 33.29 37.4026L20.6703 28.235C18.8863 26.7313 19.3729 25.5618 20.8325 24.0681L32.4807 12.7335C35.5623 9.55899 34.1026 8.39947 30.5345 10.8956L14.517 22.0631C12.2464 23.7339 9.82495 23.7339 7.23647 22.8985L1.73512 20.8936C-1.83297 19.557 0.92419 18.0533 2.70824 17.2262L2.70986 17.2246Z" fill="#1FE5D3"/>
</svg>
