<svg width="47" height="37" viewBox="0 0 47 37" fill="none" xmlns="http://www.w3.org/2000/svg">
<path fill-rule="evenodd" clip-rule="evenodd" d="M22.8075 11.5314C20.9853 2.18549 32.5259 -3.37404 39.3265 3.36274C39.3265 3.36274 42.3642 2.53466 45.0368 0.878491C44.2543 3.02583 42.758 4.8573 40.7853 6.08244C40.7853 6.08244 44.4283 5.60993 46.0088 4.66333C46.0088 4.66333 44.4283 7.85713 41.5139 9.04079C43.0928 30.4524 19.4064 43.4647 0.214844 32.8181C0.214844 32.8181 9.68973 33.2986 13.7011 28.7962C13.7011 28.7962 7.87075 29.2687 4.95477 22.4086C4.95477 22.4086 7.14216 23.2367 9.32792 22.1716C9.32792 22.1716 2.5256 21.1064 1.92694 13.1812C1.92694 13.1812 4.1127 14.8374 6.54187 14.2447C6.54187 14.2447 -0.989043 9.86887 3.26241 1.94203C3.26241 1.94203 11.2801 11.8726 22.8191 11.525L22.8075 11.5314Z" fill="#1FE5D3"/>
</svg>
