<svg width="247" height="63" viewBox="0 0 247 63" fill="none" xmlns="http://www.w3.org/2000/svg">
<g opacity="0.56">
<path d="M36.9001 29.5077C36.9267 27.4435 37.475 25.4195 38.494 23.6241C39.513 21.8287 40.9695 20.3202 42.7282 19.2389C41.611 17.6433 40.1371 16.3302 38.4236 15.4039C36.7101 14.4775 34.8042 13.9634 32.8573 13.9025C28.7041 13.4665 24.6779 16.3876 22.5614 16.3876C20.4042 16.3876 17.1458 13.9458 13.637 14.018C11.3674 14.0913 9.15547 14.7512 7.21674 15.9335C5.278 17.1158 3.67859 18.7802 2.57434 20.7644C-2.20885 29.046 1.35901 41.2166 5.94113 47.9106C8.23355 51.1886 10.9125 54.85 14.4183 54.7201C17.8487 54.5779 19.1298 52.5326 23.2709 52.5326C27.3735 52.5326 28.5755 54.7201 32.1522 54.6375C35.8334 54.5779 38.1525 51.3452 40.3645 48.0363C42.0116 45.7007 43.279 43.1193 44.1199 40.3879C41.9813 39.4833 40.1562 37.9693 38.8723 36.0345C37.5885 34.0997 36.9025 31.8297 36.9001 29.5077ZM30.1442 9.49992C32.1513 7.0905 33.1401 3.99362 32.9006 0.866923C29.8342 1.18898 27.0018 2.65449 24.9676 4.97147C23.973 6.10337 23.2112 7.42021 22.7259 8.84669C22.2405 10.2732 22.0411 11.7813 22.1389 13.2849C23.6727 13.3007 25.19 12.9683 26.5767 12.3127C27.9633 11.657 29.1831 10.6953 30.1442 9.49992ZM80.2639 46.422H68.5572L65.7459 54.7231H60.7871L71.8757 24.0108H77.0274L88.1158 54.7231H83.0727L80.2639 46.422ZM69.7695 42.5913H79.049L74.4746 29.1192H74.3465L69.7695 42.5913ZM112.063 43.5286C112.063 50.4867 108.339 54.9573 102.718 54.9573C101.295 55.0318 99.8787 54.7039 98.6327 54.0111C97.3867 53.3182 96.361 52.2885 95.673 51.0398H95.5666V62.1306H90.9704V32.3314H95.4195V36.0558H95.5041C96.2237 34.8131 97.2667 33.7887 98.5221 33.0916C99.7776 32.3946 101.199 32.0509 102.634 32.0972C108.317 32.0972 112.063 36.5895 112.063 43.5284V43.5286ZM107.339 43.5286C107.339 38.9952 104.996 36.0147 101.421 36.0147C97.9095 36.0147 95.5476 39.0578 95.5476 43.5284C95.5476 48.0402 97.9095 51.0618 101.421 51.0618C104.996 51.0618 107.339 48.1031 107.339 43.5284V43.5286ZM136.708 43.5286C136.708 50.4867 132.984 54.9573 127.363 54.9573C125.94 55.0318 124.524 54.7038 123.278 54.011C122.032 53.3181 121.006 52.2884 120.318 51.0398H120.212V62.1306H115.616V32.3314H120.065V36.0558H120.149C120.869 34.8131 121.912 33.7887 123.167 33.0916C124.423 32.3946 125.844 32.0509 127.279 32.0972C132.962 32.0972 136.708 36.5895 136.708 43.5284V43.5286ZM131.984 43.5286C131.984 38.9952 129.641 36.0147 126.067 36.0147C122.555 36.0147 120.193 39.0578 120.193 43.5284C120.193 48.0402 122.555 51.0618 126.067 51.0618C129.641 51.0618 131.984 48.1031 131.984 43.5284V43.5286ZM152.997 46.166C153.337 49.2116 156.296 51.2114 160.339 51.2114C164.213 51.2114 167 49.2116 167 46.4653C167 44.0814 165.319 42.6541 161.339 41.6759L157.358 40.7171C151.719 39.3548 149.101 36.7174 149.101 32.4375C149.101 27.1384 153.719 23.4988 160.276 23.4988C166.766 23.4988 171.215 27.1384 171.364 32.4375H166.725C166.447 29.3727 163.913 27.5225 160.211 27.5225C156.508 27.5225 153.975 29.3944 153.975 32.1187C153.975 34.2902 155.593 35.5678 159.551 36.5457L162.935 37.3767C169.236 38.8669 171.855 41.3982 171.855 45.8903C171.855 51.6363 167.278 55.2351 159.998 55.2351C153.187 55.2351 148.589 51.7206 148.292 46.1658L152.997 46.166ZM181.774 27.0325V32.3314H186.032V35.9712H181.774V48.3155C181.774 50.2332 182.627 51.1268 184.499 51.1268C185.004 51.118 185.509 51.0825 186.011 51.0205V54.6388C185.169 54.7959 184.314 54.867 183.458 54.851C178.924 54.851 177.156 53.1484 177.156 48.8057V35.9712H173.9V32.3314H177.156V27.0325H181.774ZM188.498 43.5286C188.498 36.4832 192.648 32.0561 199.118 32.0561C205.611 32.0561 209.741 36.4832 209.741 43.5286C209.741 50.5931 205.632 55.0009 199.118 55.0009C192.607 55.0009 188.498 50.5931 188.498 43.5286ZM205.057 43.5286C205.057 38.6957 202.842 35.8431 199.118 35.8431C195.394 35.8431 193.181 38.7172 193.181 43.5286C193.181 48.3808 195.394 51.2114 199.118 51.2114C202.842 51.2114 205.057 48.3808 205.057 43.5286ZM213.53 32.3314H217.913V36.1426H218.02C218.316 34.9523 219.014 33.9003 219.995 33.1636C220.976 32.4269 222.18 32.0503 223.406 32.0972C223.936 32.0953 224.464 32.1528 224.981 32.2686V36.5677C224.312 36.3634 223.614 36.2696 222.916 36.29C222.248 36.2629 221.582 36.3806 220.964 36.6351C220.346 36.8895 219.791 37.2747 219.336 37.7641C218.881 38.2536 218.537 38.8357 218.328 39.4705C218.12 40.1053 218.051 40.7777 218.126 41.4417V54.7231H213.53V32.3314ZM246.172 48.1463C245.554 52.2113 241.595 55.0009 236.53 55.0009C230.016 55.0009 225.973 50.6366 225.973 43.6347C225.973 36.6113 230.038 32.0561 236.337 32.0561C242.532 32.0561 246.428 36.3118 246.428 43.101V44.6757H230.613V44.9534C230.54 45.7775 230.643 46.6077 230.916 47.3888C231.188 48.17 231.624 48.8842 232.193 49.4841C232.763 50.084 233.454 50.5558 234.22 50.8682C234.986 51.1806 235.81 51.3264 236.636 51.296C237.723 51.3978 238.813 51.1463 239.744 50.5788C240.676 50.0113 241.4 49.1582 241.808 48.1463H246.172ZM230.635 41.4635H241.829C241.87 40.7225 241.758 39.981 241.499 39.2855C241.24 38.59 240.841 37.9555 240.325 37.4218C239.809 36.8882 239.189 36.4669 238.502 36.1844C237.816 35.9019 237.079 35.7643 236.337 35.7803C235.588 35.7758 234.847 35.9197 234.154 36.2035C233.461 36.4873 232.832 36.9054 232.302 37.4338C231.772 37.9621 231.351 38.5903 231.065 39.2819C230.779 39.9735 230.633 40.715 230.635 41.4635ZM69.1935 0.893387C70.1571 0.824224 71.1241 0.969792 72.0246 1.31959C72.9252 1.66939 73.7369 2.2147 74.4011 2.91618C75.0654 3.61767 75.5657 4.45784 75.8659 5.3761C76.1662 6.29435 76.2589 7.2678 76.1373 8.22622C76.1373 12.9407 73.5892 15.6508 69.1935 15.6508H63.863V0.893139L69.1935 0.893387ZM66.1552 13.5637H68.9376C69.6261 13.6048 70.3151 13.4919 70.9545 13.2331C71.5939 12.9744 72.1676 12.5763 72.6338 12.0679C73.0999 11.5595 73.4468 10.9535 73.6493 10.2942C73.8518 9.63477 73.9046 8.93854 73.8041 8.25614C73.8974 7.57643 73.8391 6.88451 73.6336 6.22995C73.428 5.57539 73.0802 4.9744 72.6151 4.47004C72.15 3.96568 71.5791 3.57043 70.9433 3.31262C70.3075 3.0548 69.6226 2.94081 68.9376 2.9788H66.1552V13.5637ZM78.7265 10.0774C78.6565 9.34555 78.7402 8.60712 78.9723 7.9095C79.2044 7.21188 79.5797 6.57046 80.0742 6.02639C80.5687 5.48232 81.1714 5.04761 81.8438 4.75014C82.5161 4.45267 83.2432 4.299 83.9784 4.299C84.7136 4.299 85.4407 4.45267 86.1131 4.75014C86.7854 5.04761 87.3881 5.48232 87.8826 6.02639C88.3771 6.57046 88.7525 7.21188 88.9845 7.9095C89.2166 8.60712 89.3003 9.34555 89.2303 10.0774C89.3018 10.8101 89.2193 11.5497 88.9879 12.2486C88.7565 12.9475 88.3814 13.5903 87.8868 14.1356C87.3922 14.6809 86.7889 15.1166 86.1158 15.4148C85.4427 15.713 84.7146 15.8671 83.9784 15.8671C83.2422 15.8671 82.5141 15.713 81.841 15.4148C81.1679 15.1166 80.5646 14.6809 80.07 14.1356C79.5754 13.5903 79.2003 12.9475 78.9689 12.2486C78.7375 11.5497 78.655 10.8101 78.7265 10.0774ZM86.9697 10.0774C86.9697 7.66331 85.8852 6.2516 83.9821 6.2516C82.0716 6.2516 80.9969 7.66331 80.9969 10.0774C80.9969 12.5108 82.0718 13.9116 83.9821 13.9116C85.8852 13.9116 86.9697 12.5012 86.9697 10.0774ZM103.193 15.6506H100.913L98.6112 7.44839H98.4373L96.1454 15.6506H93.8871L90.8173 4.51367H93.0464L95.0416 13.0116H95.2058L97.4955 4.51367H99.6039L101.894 13.0116H102.067L104.053 4.51367H106.251L103.193 15.6506ZM108.832 4.51392H110.948V6.28301H111.113C111.391 5.64755 111.861 5.11484 112.457 4.75916C113.053 4.40347 113.744 4.24252 114.436 4.29875C114.978 4.25803 115.522 4.33974 116.028 4.53784C116.534 4.73594 116.989 5.04535 117.359 5.44314C117.729 5.84094 118.005 6.31693 118.167 6.83585C118.328 7.35478 118.37 7.90334 118.291 8.44089V15.6503H116.093V8.99291C116.093 7.20329 115.315 6.31318 113.69 6.31318C113.322 6.29607 112.954 6.35871 112.613 6.4968C112.272 6.63488 111.964 6.84516 111.711 7.11321C111.459 7.38126 111.267 7.70075 111.15 8.04978C111.032 8.39881 110.991 8.76913 111.03 9.13537V15.6506H108.832V4.51392ZM121.793 0.166263H123.991V15.6506H121.793V0.166263ZM127.046 10.0774C126.976 9.34545 127.06 8.60692 127.292 7.90921C127.524 7.21149 127.899 6.56999 128.394 6.02584C128.888 5.4817 129.491 5.04693 130.164 4.74942C130.836 4.45191 131.563 4.29822 132.299 4.29822C133.034 4.29822 133.761 4.45191 134.433 4.74942C135.106 5.04693 135.709 5.4817 136.203 6.02584C136.698 6.56999 137.073 7.21149 137.305 7.90921C137.537 8.60692 137.621 9.34545 137.551 10.0774C137.622 10.81 137.539 11.5494 137.308 12.2481C137.076 12.9468 136.701 13.5893 136.206 14.1344C135.712 14.6794 135.109 15.115 134.436 15.413C133.763 15.7111 133.035 15.8651 132.299 15.8651C131.562 15.8651 130.835 15.7111 130.162 15.413C129.489 15.115 128.885 14.6794 128.391 14.1344C127.896 13.5893 127.521 12.9468 127.289 12.2481C127.058 11.5494 126.975 10.81 127.046 10.0774ZM135.289 10.0774C135.289 7.66331 134.205 6.2516 132.302 6.2516C130.391 6.2516 129.316 7.66331 129.316 10.0774C129.316 12.5108 130.391 13.9116 132.302 13.9116C134.205 13.9116 135.289 12.5012 135.289 10.0774ZM139.865 12.5012C139.865 10.4964 141.357 9.34065 144.007 9.17642L147.024 9.00256V8.04122C147.024 6.86496 146.246 6.2009 144.744 6.2009C143.517 6.2009 142.666 6.65127 142.423 7.43874H140.295C140.519 5.52571 142.319 4.299 144.845 4.299C147.637 4.299 149.212 5.68895 149.212 8.04122V15.6506H147.096V14.0855H146.922C146.569 14.6469 146.074 15.1045 145.486 15.4117C144.898 15.7189 144.24 15.8647 143.577 15.8341C143.11 15.8827 142.637 15.8328 142.19 15.6876C141.743 15.5425 141.331 15.3052 140.982 14.9912C140.632 14.6772 140.352 14.2934 140.159 13.8645C139.967 13.4356 139.867 12.9712 139.865 12.5012ZM147.024 11.5495V10.6183L144.304 10.7922C142.77 10.8948 142.075 11.4167 142.075 12.3983C142.075 13.4007 142.944 13.9841 144.14 13.9841C144.49 14.0196 144.844 13.9842 145.18 13.8801C145.517 13.776 145.829 13.6053 146.098 13.3781C146.367 13.151 146.587 12.872 146.747 12.5579C146.906 12.2437 147 11.9008 147.024 11.5495ZM152.101 10.0774C152.101 6.55828 153.909 4.32917 156.723 4.32917C157.419 4.29709 158.11 4.46378 158.715 4.80977C159.32 5.15576 159.813 5.66675 160.139 6.28301H160.303V0.166016H162.5V15.6503H160.394V13.8906H160.221C159.87 14.5027 159.359 15.0074 158.743 15.3499C158.127 15.6924 157.428 15.8598 156.723 15.8338C153.89 15.8338 152.101 13.6045 152.101 10.0772V10.0774ZM154.371 10.0774C154.371 12.4393 155.484 13.8609 157.346 13.8609C159.199 13.8609 160.344 12.4191 160.344 10.0868C160.344 7.76595 159.187 6.30354 157.346 6.30354C155.496 6.30354 154.371 7.73454 154.371 10.0774ZM171.594 10.0774C171.524 9.34555 171.608 8.60712 171.84 7.9095C172.072 7.21188 172.447 6.57046 172.942 6.02639C173.436 5.48232 174.039 5.04761 174.711 4.75014C175.383 4.45267 176.111 4.299 176.846 4.299C177.581 4.299 178.308 4.45267 178.98 4.75014C179.653 5.04761 180.256 5.48232 180.75 6.02639C181.245 6.57046 181.62 7.21188 181.852 7.9095C182.084 8.60712 182.168 9.34555 182.098 10.0774C182.169 10.8101 182.087 11.5497 181.855 12.2486C181.624 12.9475 181.249 13.5903 180.754 14.1356C180.26 14.6809 179.656 15.1166 178.983 15.4148C178.31 15.713 177.582 15.8671 176.846 15.8671C176.11 15.8671 175.382 15.713 174.708 15.4148C174.035 15.1166 173.432 14.6809 172.937 14.1356C172.443 13.5903 172.068 12.9475 171.836 12.2486C171.605 11.5497 171.522 10.8101 171.594 10.0774ZM179.837 10.0774C179.837 7.66331 178.753 6.2516 176.85 6.2516C174.939 6.2516 173.864 7.66331 173.864 10.0774C173.864 12.5108 174.939 13.9116 176.85 13.9116C178.753 13.9116 179.837 12.5012 179.837 10.0774ZM185.047 4.51392H187.163V6.28301H187.327C187.605 5.64755 188.075 5.11484 188.671 4.75916C189.267 4.40347 189.959 4.24252 190.65 4.29875C191.192 4.25803 191.736 4.33974 192.242 4.53784C192.748 4.73594 193.203 5.04535 193.573 5.44314C193.944 5.84094 194.22 6.31693 194.381 6.83585C194.542 7.35478 194.585 7.90334 194.505 8.44089V15.6503H192.307V8.99291C192.307 7.20329 191.529 6.31318 189.904 6.31318C189.536 6.29607 189.169 6.35871 188.827 6.4968C188.486 6.63488 188.178 6.84516 187.926 7.11321C187.673 7.38126 187.482 7.70075 187.364 8.04978C187.246 8.39881 187.206 8.76913 187.245 9.13537V15.6506H185.047L185.047 4.51392ZM206.924 1.7412V4.56462H209.337V6.41582H206.924V12.1423C206.924 13.3089 207.405 13.8199 208.499 13.8199C208.779 13.8189 209.059 13.8019 209.337 13.7689V15.5999C208.942 15.6705 208.542 15.708 208.141 15.7121C205.697 15.7121 204.724 14.8522 204.724 12.7052V6.41582H202.956V4.56438H204.724V1.74145L206.924 1.7412ZM212.339 0.166263H214.518V6.30354H214.692C214.984 5.66216 215.467 5.12645 216.074 4.76942C216.682 4.41239 217.385 4.25141 218.087 4.3084C218.626 4.27906 219.165 4.36906 219.666 4.57198C220.166 4.77489 220.615 5.08573 220.982 5.4823C221.348 5.87888 221.622 6.35142 221.785 6.86621C221.948 7.381 221.995 7.92535 221.923 8.46043V15.6506H219.723V9.00256C219.723 7.22358 218.894 6.32283 217.341 6.32283C216.963 6.29187 216.583 6.34382 216.228 6.47504C215.872 6.60626 215.55 6.81358 215.283 7.08251C215.016 7.35143 214.81 7.67547 214.682 8.03194C214.553 8.38841 214.504 8.76872 214.537 9.14625V15.6506H212.339V0.166263ZM234.738 12.6434C234.44 13.6612 233.793 14.5417 232.911 15.1307C232.028 15.7198 230.967 15.9799 229.913 15.8655C229.179 15.8849 228.45 15.7443 227.776 15.4537C227.102 15.163 226.499 14.7292 226.01 14.1822C225.52 13.6353 225.156 12.9884 224.941 12.2865C224.727 11.5845 224.668 10.8443 224.768 10.1172C224.67 9.3879 224.73 8.64607 224.944 7.94198C225.158 7.2379 225.521 6.58799 226.008 6.03625C226.495 5.48452 227.094 5.04386 227.766 4.74409C228.438 4.44432 229.167 4.29244 229.903 4.29875C233.002 4.29875 234.871 6.41582 234.871 9.91295V10.6799H227.007V10.8031C226.973 11.2117 227.024 11.6231 227.158 12.0108C227.292 12.3985 227.505 12.7539 227.784 13.0543C228.064 13.3546 228.402 13.5934 228.779 13.7551C229.156 13.9168 229.563 13.998 229.973 13.9935C230.499 14.0566 231.031 13.962 231.503 13.7216C231.975 13.4811 232.365 13.1058 232.622 12.6434H234.738ZM227.007 9.05449H232.632C232.66 8.68073 232.609 8.3053 232.483 7.95233C232.357 7.59936 232.158 7.27667 231.9 7.00497C231.642 6.73327 231.33 6.51858 230.984 6.3747C230.638 6.23081 230.265 6.16091 229.891 6.16949C229.511 6.16471 229.133 6.23607 228.781 6.37938C228.429 6.52268 228.109 6.73503 227.841 7.0039C227.572 7.27278 227.36 7.59273 227.216 7.94491C227.073 8.29709 227.002 8.67437 227.007 9.05449Z" fill="white"/>
</g>
</svg>
