<svg width="50" height="50" viewBox="0 0 50 50" fill="none" xmlns="http://www.w3.org/2000/svg">
<g clip-path="url(#clip0_947_1789)">
<path d="M22.0807 36.4614C20.7538 37.4754 19.5011 38.7887 18.3227 40.4015C18.2361 40.5202 18.1684 40.6518 18.1223 40.7914C17.8234 41.6949 17.7575 42.4618 17.9226 43.1262C16.6713 44.0318 15.1598 44.7009 13.4017 45.0324C12.1898 45.26 10.9181 45.1955 9.67423 45.1955C6.61727 45.2111 3.5603 45.1954 0.503342 45.1839C0.380384 45.1839 0.256749 45.1656 0.133111 45.156L0.0651789 45.0535C3.2186 42.2322 4.96515 38.7731 4.96515 34.5056C4.96515 30.2381 3.24034 26.7993 0.0291748 23.9115C0.190661 23.8842 0.35347 23.8654 0.51693 23.8551C4.44275 23.8551 8.36993 23.7981 12.2944 23.8633C16.6624 23.936 20.6806 27.213 21.8776 31.6123C22.3062 33.1933 22.3756 34.8501 22.0807 36.4614Z" fill="#FFA71A"/>
<path d="M32.4859 38.1902C32.5547 38.4686 32.5943 38.7534 32.6041 39.04C32.2128 40.2132 31.6531 40.9346 30.9445 41.1867L30.7251 41.2648C30.7339 41.0461 30.8093 40.6813 31.0865 40.1099C31.5919 39.199 32.0532 38.5624 32.4547 38.1182C32.4648 38.1426 32.475 38.1657 32.4859 38.1902Z" fill="#FFA71A"/>
<path d="M43.3033 42.0561C43.1016 42.0053 42.9135 41.9107 42.7524 41.779L42.4868 41.5623C42.2862 41.3984 42.1344 41.1827 42.0479 40.9387C41.889 40.491 41.7803 39.8015 41.9073 38.1867C41.4182 38.5848 40.7001 39.0821 39.6288 39.7396C39.1982 42.925 39.0514 43.6845 38.9658 43.9936C38.8924 44.2589 38.7429 44.497 38.5358 44.6783C40.3326 44.2367 41.9838 43.336 43.3278 42.0643L43.3033 42.0561ZM36.684 43.7477C36.7012 43.765 36.7171 43.7836 36.7315 43.8034C36.7175 43.7834 36.7015 43.7647 36.684 43.7477ZM36.2424 23.6159C32.7602 23.5527 29.2753 23.5948 25.7917 23.5948H24.556L24.4602 23.7218C27.6082 26.5397 29.3595 29.994 29.371 34.2378C30.3839 33.3689 31.3044 32.7929 32.161 32.4892L32.2188 32.4688C32.4402 32.3905 32.6734 32.3507 32.9083 32.3513C33.4647 32.3513 34.0122 32.5551 34.5991 32.9824C34.8559 32.2351 35.2886 31.7487 35.8898 31.5348C35.9995 31.4959 36.1136 31.4708 36.2295 31.46L36.919 31.3921C38.7389 30.4777 40.4101 29.7488 41.8876 29.225C41.9727 29.1937 42.0608 29.1709 42.1505 29.1571C42.8509 28.8263 43.6756 28.4099 44.6131 27.9235C43.6504 26.6022 42.3921 25.5244 40.9387 24.776C39.4853 24.0276 37.8771 23.6294 36.2424 23.6131V23.6159Z" fill="#FFA71A"/>
<path d="M24.4013 19.0419C27.2266 16.4673 28.7646 13.4137 28.7538 9.65365C28.7429 5.89359 27.1811 2.86719 24.3463 0.306139C24.6113 0.273531 24.7417 0.24432 24.8714 0.24432C28.0948 0.24432 31.3182 0.230733 34.5416 0.24432C36.7867 0.251978 38.9563 1.05602 40.6641 2.51333C42.372 3.97064 43.5073 5.98668 43.8681 8.20261C44.5949 12.7541 41.898 17.2376 37.5334 18.6466C36.6806 18.9195 35.7922 19.0649 34.8969 19.0779C31.5567 19.1248 28.2164 19.0922 24.8762 19.0874C24.7661 19.0881 24.6568 19.0677 24.4013 19.0419Z" fill="#FFA71A"/>
<path d="M0.206437 0.508924H1.59362C4.44067 0.508924 7.285 0.487864 10.1327 0.496016C11.4731 0.491933 12.799 0.773268 14.0223 1.32131C15.2455 1.86936 16.3381 2.67156 17.2273 3.67456C18.1165 4.67756 18.7819 5.85838 19.1794 7.13849C19.5769 8.41861 19.6973 9.76868 19.5326 11.0989C19.004 15.6395 15.0021 19.2739 10.4255 19.3187C7.124 19.3493 3.82316 19.3187 0.521645 19.3187C0.401404 19.3187 0.281163 19.2909 0.0535889 19.2651C2.84901 16.6986 4.33673 13.6233 4.35439 9.91418C4.37206 6.20506 2.92781 3.11142 0.14258 0.634597L0.206437 0.508924Z" fill="#FFA71A"/>
<path d="M30.2644 44.9795C30.5317 45.0412 30.8052 45.0722 31.0796 45.0719C31.3621 45.071 31.6438 45.0405 31.9199 44.9809L30.2644 44.9795Z" fill="white"/>
<path d="M19.8651 48.8213L19.7559 48.8597L19.7741 48.9109L19.8833 48.8725L19.8651 48.8213ZM19.8651 48.8213L19.7559 48.8597L19.7741 48.9109L19.8833 48.8725L19.8651 48.8213ZM19.8651 48.8213L19.7559 48.8597L19.7741 48.9109L19.8833 48.8725L19.8651 48.8213Z" fill="#1D1D1B"/>
<path d="M49.8194 29.4249C49.8065 29.3925 49.7831 29.3654 49.7529 29.3479C49.7227 29.3304 49.6875 29.3235 49.653 29.3285C49.616 29.3288 49.5791 29.3332 49.5429 29.3414C49.5328 29.3128 49.5226 29.2863 49.511 29.2619C49.4995 29.2374 49.4879 29.2137 49.4757 29.194C49.4641 29.1737 49.4511 29.1542 49.437 29.1355C49.424 29.1186 49.4099 29.1025 49.3949 29.0873C49.3683 29.0602 49.3366 29.0387 49.3016 29.0241C49.2666 29.0095 49.229 29.0021 49.1911 29.0024C49.1463 29.003 49.1019 29.0113 49.0599 29.0268L49.0389 28.9691L49.0776 28.8971L49.0572 28.8393L48.7678 28.8835L48.7291 28.7741L48.7624 28.7062L48.6904 28.6661L48.7943 28.6294L48.7556 28.5201L48.5416 28.5955L48.5233 28.5438L49.1177 28.3332L49.0973 28.2762C49.0851 28.2446 49.0625 28.2182 49.0332 28.2012C49.004 28.1841 48.9698 28.1775 48.9363 28.1824C48.8796 28.1842 48.8234 28.1936 48.7692 28.2103L48.8079 28.1383C48.7625 28.0905 48.7081 28.0522 48.6478 28.0256C48.5876 27.9991 48.5226 27.9847 48.4567 27.9834H48.4119C48.3806 27.9862 48.3497 27.9919 48.3195 28.0004C48.3039 28.0045 48.2876 28.0099 48.2719 28.0153L47.24 28.3808L46.1898 28.6953C45.9077 28.8457 45.6343 28.9899 45.3699 29.1281C44.2191 29.7299 43.232 30.2209 42.4087 30.6008C42.3822 30.5893 42.3652 30.5764 42.3598 30.5594C40.8653 31.0897 39.1846 31.8288 37.3178 32.7767L36.3668 32.8684C36.11 32.959 35.9288 33.3116 35.8233 33.9261C36.0701 34.6213 36.1034 35.92 35.9232 37.8221C35.5609 36.9892 34.8154 36.2265 33.6868 35.5341L33.6685 35.4818C34.1793 35.1648 34.4058 34.9245 34.3478 34.761L34.2561 34.5015L34.1773 34.4642L34.1297 34.4214C34.0985 34.3928 34.0679 34.3657 34.0367 34.3392C33.8546 34.1777 33.655 34.0371 33.4416 33.92L33.3838 33.8908L33.341 33.8711C33.3125 33.8582 33.2853 33.8466 33.2575 33.8365L33.2167 33.8215C33.119 33.7867 33.0162 33.7681 32.9124 33.7665C32.8388 33.7658 32.7657 33.778 32.6964 33.8025L32.6386 33.8229C31.6876 34.1598 30.5624 34.9766 29.2631 36.2732L29.2359 36.3051C27.6802 38.094 26.9316 39.7079 26.99 41.1467C26.9019 41.0863 26.8022 41.0449 26.6973 41.0251C26.6762 41.0057 26.6535 40.9882 26.6293 40.9728C26.6123 40.9613 26.5946 40.9508 26.5763 40.9415C26.5573 40.9313 26.5376 40.9225 26.5166 40.9137C26.3781 40.8595 26.2322 40.8265 26.0838 40.8158C26.0363 40.8118 25.986 40.8084 25.9337 40.8057C25.8814 40.8029 25.8257 40.8057 25.7686 40.8057C25.6939 40.8057 25.6151 40.8077 25.5322 40.8118L25.3617 40.822C25.0981 40.8414 24.7988 40.8788 24.4636 40.934L24.2354 40.9734C24.0017 41.0156 23.7526 41.0656 23.4881 41.1236C23.3998 41.1426 23.3095 41.163 23.2164 41.184C22.8482 41.2683 22.4519 41.3663 22.0276 41.4782L21.9759 41.4965L21.9393 41.3926C23.6969 39.6789 25.2761 38.5738 26.6769 38.0775L26.9996 37.9627C27.3342 37.844 27.4289 37.4883 27.2835 36.8955L27.0023 36.2678L26.9785 36.0361L26.9269 36.0545L26.8589 36.0212C26.5981 35.9093 26.3895 35.8531 26.2333 35.8527C26.1811 35.8518 26.1292 35.8599 26.0797 35.8765L25.9704 35.9152C24.2988 36.5085 22.7209 37.5764 21.2368 39.1189C20.6009 39.7845 20.0108 40.4924 19.4706 41.2377C19.3926 41.4674 19.3331 41.703 19.2926 41.9422C19.2297 42.3267 19.2448 42.6505 19.3381 42.9136C19.4966 43.3597 19.7953 43.6344 20.2342 43.7376C20.2444 43.7663 20.2606 43.7924 20.2817 43.8144C20.2938 43.8269 20.3069 43.8383 20.3211 43.8483C20.3842 43.89 20.4552 43.9182 20.5297 43.9312C20.5623 43.9387 20.5976 43.9441 20.6363 43.9489C20.7224 43.959 20.8091 43.9637 20.8958 43.9632C21.4692 43.9632 22.408 43.7992 23.7123 43.4713C23.821 43.4442 23.9322 43.4156 24.0459 43.3857C24.3869 43.2974 24.751 43.1985 25.1382 43.0889C24.9231 43.4213 23.972 44.2605 22.285 45.6064C19.6832 47.4556 18.4152 48.4703 18.4808 48.6505L18.4992 48.7035C18.5299 48.6914 18.5626 48.6847 18.5956 48.6838C18.6186 48.6821 18.6414 48.6883 18.6603 48.7014C18.6792 48.7145 18.6931 48.7337 18.6996 48.7558L18.8028 48.7191L18.8212 48.7707L18.7879 48.8387L18.8062 48.8903L18.9156 48.8516L18.9496 48.7836C18.9582 48.8163 18.9777 48.845 19.0049 48.865C19.0321 48.885 19.0653 48.8951 19.099 48.8937C19.1404 48.8925 19.1813 48.8842 19.2199 48.8692L19.277 49.0309L19.2437 49.0989L19.6051 49.0941L19.6234 49.1457L19.5141 49.1844L19.5528 49.2938L19.7138 49.2368L19.7512 49.3414C19.584 49.4297 19.5148 49.516 19.5433 49.5961L19.5637 49.6532L20.1132 49.3359L20.152 49.4446L19.832 49.734L19.8524 49.7918L19.9203 49.825C22.2599 48.273 24.0766 46.9839 25.3705 45.9577C25.7405 45.6509 26.0906 45.321 26.4187 44.9699C26.8289 44.5317 27.2022 44.0605 27.5349 43.561C27.6028 43.5359 27.6415 43.4319 27.6395 43.2465L27.6748 43.3022L27.7088 43.3504C27.7196 43.3653 27.7305 43.3789 27.7407 43.3912L27.7713 43.4244C27.797 43.4568 27.8343 43.4779 27.8752 43.4836H27.8834C28.0063 43.616 28.1299 43.7397 28.2549 43.8558C28.3018 43.8986 28.3487 43.9407 28.3962 43.9822C28.4438 44.0236 28.4913 44.063 28.5389 44.1024C28.7336 44.2617 28.9402 44.4057 29.1571 44.5331C29.2325 44.5779 29.3086 44.6194 29.3847 44.6574C29.6633 44.8006 29.9585 44.9087 30.2637 44.9794H31.9213C31.9715 44.9692 32.0225 44.9577 32.0734 44.9448C32.1244 44.9319 32.1964 44.9129 32.2582 44.8945L32.3513 44.8667C32.4131 44.847 32.4756 44.8266 32.5381 44.8042L33.1495 44.5875C33.5879 44.4317 34.11 44.1468 34.716 43.7329C34.9921 43.5203 35.2467 43.2812 35.4762 43.0189C35.4934 43.3966 35.5369 43.6851 35.6066 43.8844C35.6365 43.9672 35.684 44.0087 35.7513 44.0087C35.7773 44.0082 35.8031 44.0031 35.8274 43.9937L36.1426 44.1873L36.2105 44.0386L36.2683 44.0182L36.341 44.0576C36.4252 44.0277 36.4456 43.917 36.4041 43.7234L36.3858 43.6717C36.4178 43.6599 36.4515 43.6536 36.4856 43.6534C36.5267 43.6535 36.5671 43.6637 36.6032 43.6833C36.6105 43.6873 36.6175 43.6919 36.6242 43.6969C36.6327 43.7021 36.6409 43.7077 36.6487 43.7138L36.665 43.7281L36.6806 43.7437C36.6982 43.7608 36.7141 43.7794 36.7282 43.7994C36.739 43.8138 36.749 43.8288 36.7581 43.8443C36.8314 43.8185 36.8484 43.7519 36.8104 43.6446L36.9197 43.6051L36.9979 43.8246L36.9578 43.8966L37.1616 43.9469L37.2132 43.9285C37.1752 43.8205 37.3029 43.7152 37.5943 43.6119C37.7012 43.2274 37.9392 41.648 38.3083 38.8737C40.2674 37.7116 41.4042 36.8778 41.7185 36.3724C41.704 36.3316 41.6429 36.3112 41.5351 36.3112C41.4668 36.3122 41.3988 36.3177 41.3313 36.3275L41.3116 36.2705L41.3503 36.1971L41.3306 36.1401L40.9624 36.1475L40.654 36.3208L40.6024 36.3391L40.582 36.282L40.7437 36.225L40.7253 36.1733L40.5582 36.0497L40.4672 35.7746C40.451 35.7801 40.434 35.7826 40.4169 35.782H40.3992L40.3585 35.7759C40.341 35.7722 40.3238 35.7674 40.3068 35.7617L40.2627 35.7454C40.223 35.7291 40.1843 35.7107 40.1465 35.6903C40.1153 35.674 40.082 35.655 40.0467 35.6333C40.0236 35.6197 39.9984 35.6041 39.9733 35.5878L38.5922 36.1937L38.5399 36.2121C38.5148 35.6075 38.5257 35.2957 38.5725 35.2787C38.4702 34.6623 38.6038 34.2884 38.9733 34.1571C39.548 33.8881 40.0759 33.639 40.5568 33.4098C40.605 33.4455 40.6551 33.4784 40.707 33.5083C40.7416 33.528 40.7749 33.5464 40.8109 33.5627C40.8333 33.5736 40.8557 33.5831 40.8788 33.5926C41.0534 33.6644 41.2404 33.7009 41.4291 33.6999C41.4821 33.6999 41.5357 33.6972 41.5901 33.6918C41.6309 33.6877 41.6723 33.6823 41.7137 33.6755C41.7552 33.6687 41.798 33.6605 41.8401 33.6503C41.9286 33.6296 42.0159 33.604 42.1016 33.5736L44.0037 32.5349L43.9358 33.7223C43.3108 37.4881 43.1281 39.7359 43.3876 40.466L43.6525 40.6827C44.0456 40.7814 44.2782 40.872 44.3502 40.9544C44.3575 40.9626 44.3637 40.9717 44.3685 40.9816L44.4202 40.9633L44.4575 40.8858C44.475 40.9418 44.5083 40.9916 44.5533 41.0292C44.5794 41.049 44.6096 41.063 44.6416 41.0699C44.6623 41.0746 44.6835 41.0769 44.7048 41.0767C44.7636 41.075 44.8217 41.0635 44.8767 41.0427L45.1735 41.184C45.3153 41.1338 45.457 40.9601 45.5988 40.663C45.602 40.2273 45.6472 39.5609 45.7347 38.6637C45.876 37.195 46.1282 35.1068 46.4914 32.399L46.5016 32.3202C46.4192 31.5757 46.5143 31.1545 46.7869 31.0567L49.8629 29.5377L49.8194 29.4249ZM19.7743 48.91L19.7559 48.8584L19.866 48.8197L19.8843 48.8713L19.7743 48.91ZM34.0136 39.284C33.4783 41.019 32.613 42.0991 31.4179 42.5243L30.9736 42.6819C30.8055 42.7218 30.6335 42.743 30.4607 42.7451C30.3838 42.7455 30.3071 42.7399 30.2311 42.7281C30.2053 42.7241 30.1795 42.7186 30.1543 42.7125C30.072 42.695 29.9924 42.6669 29.9173 42.629C29.8935 42.6167 29.8711 42.6038 29.8493 42.5902C29.7607 42.5343 29.6823 42.4635 29.6177 42.381C29.6014 42.3599 29.5851 42.3375 29.5701 42.3131C29.5142 42.2282 29.4685 42.137 29.4343 42.0413L29.4159 41.9897C29.1822 41.3321 29.3201 40.4893 29.8296 39.4613C30.8074 37.6882 31.8142 36.5354 32.8499 36.0028H32.8587C32.865 36.0033 32.8711 36.0054 32.8764 36.0089C32.8817 36.0123 32.8867 36.0162 32.8913 36.0205C32.905 36.0326 32.9177 36.0458 32.9294 36.0599C32.9368 36.068 32.9443 36.0776 32.9525 36.0877C32.9932 36.1387 33.0449 36.2141 33.1074 36.3119L33.1468 36.3737C33.2072 36.4702 33.2765 36.5864 33.3546 36.7209L33.3587 36.8955C33.4697 36.977 33.6295 37.2575 33.8383 37.7371C33.985 38.3508 34.0435 38.8664 34.0136 39.284Z" fill="white"/>
</g>
<defs>
<clipPath id="clip0_947_1789">
<rect width="50" height="50" fill="white"/>
</clipPath>
</defs>
</svg>
