<svg width="338" height="338" viewBox="0 0 338 338" fill="none" xmlns="http://www.w3.org/2000/svg">
<g filter="url(#filter0_dd_993_1006)">
<rect x="26" y="26" width="274" height="274" rx="26.6974" fill="url(#paint0_linear_993_1006)"/>
</g>
<g filter="url(#filter1_dd_993_1006)">
<path d="M129.544 260.007H96.0667C96.0667 260.007 111.36 250.626 111.36 228.539C111.36 206.451 96.0667 197.07 96.0667 197.07H129.544C143.71 197.07 162.275 203.739 162.275 228.539C162.275 253.338 143.716 260.007 129.544 260.007Z" fill="#FFA71A"/>
<path d="M125.592 184.56H96.0667C96.0667 184.56 109.554 176.288 109.554 156.811C109.554 137.334 96.0667 129.062 96.0667 129.062H125.592C138.108 129.062 154.45 134.944 154.45 156.811C154.45 178.678 138.084 184.56 125.592 184.56Z" fill="#FFA71A"/>
<path d="M198.023 184.56H168.504C168.504 184.56 181.985 176.288 181.985 156.811C181.985 137.334 168.504 129.062 168.504 129.062H198.023C210.539 129.062 226.887 134.944 226.887 156.811C226.887 178.678 210.515 184.56 198.023 184.56Z" fill="#FFA71A"/>
<path d="M201.653 260.007H168.152C168.152 260.007 183.445 250.626 183.445 228.539C183.445 206.451 168.152 197.07 168.152 197.07H201.635C215.796 197.07 234.361 203.739 234.361 228.539C234.361 253.338 215.832 260.007 201.653 260.007Z" fill="#FFA71A"/>
<path d="M155.541 275.699C155.231 275.7 154.926 275.631 154.647 275.497L154.444 275.401C154.297 275.332 154.159 275.246 154.033 275.145C153.942 275.125 153.852 275.099 153.764 275.068C153.477 274.961 153.216 274.793 153.001 274.575C152.786 274.356 152.621 274.093 152.519 273.804L152.459 273.637C152.408 273.492 152.372 273.343 152.352 273.19C152.247 273.113 152.148 273.03 152.054 272.94C151.812 272.915 151.576 272.849 151.357 272.743C151.134 272.632 150.932 272.483 150.761 272.302C150.449 272.206 150.164 272.038 149.928 271.813C149.692 271.587 149.512 271.31 149.402 271.003L149.348 270.848C148.752 269.132 150.141 267.904 152.674 265.883C154.557 264.376 157.442 262.236 161.268 259.518C162.055 258.922 162.758 258.326 163.396 257.802C161.764 258.167 160.102 258.378 158.431 258.434C156.995 258.434 155.922 258.118 155.231 257.48C154.442 257.184 153.731 256.714 153.151 256.104C152.571 255.494 152.137 254.76 151.881 253.958C151.285 252.283 151.41 250.227 152.251 247.67C152.321 247.458 152.421 247.257 152.549 247.074C158.604 238.778 165.374 233.259 172.669 230.666L172.991 230.553C173.361 230.424 173.75 230.36 174.141 230.362C174.963 230.395 175.772 230.581 176.525 230.911C176.856 230.941 177.174 231.05 177.455 231.227C177.722 231.395 177.947 231.623 178.113 231.891C178.279 232.159 178.382 232.462 178.415 232.776L178.45 233.128L179.142 234.671C179.193 234.784 179.233 234.902 179.261 235.023V235.059C179.932 234.153 180.673 233.237 181.484 232.311L181.579 232.204C185.668 228.127 189.172 225.612 192.307 224.504L192.48 224.444C192.907 224.293 193.356 224.216 193.809 224.218C195.293 224.218 196.896 224.998 198.708 226.602C199.189 226.854 199.556 227.28 199.733 227.794L200.002 228.562C200.158 229.029 200.185 229.529 200.08 230.009C199.975 230.49 199.742 230.933 199.406 231.292C199.936 231.697 200.431 232.109 200.896 232.532C200.925 229.76 200.663 228.282 200.383 227.496C200.264 227.157 200.234 226.794 200.294 226.441C200.46 225.475 200.973 222.531 203.274 221.72C203.433 221.662 203.599 221.624 203.768 221.607L206.188 221.375C210.963 218.92 215.885 216.764 220.927 214.92C221.132 214.848 221.347 214.808 221.564 214.801C224.36 213.49 227.84 211.726 231.923 209.556C232.044 209.49 232.172 209.438 232.304 209.401L235.35 208.489L238.33 207.429C238.727 207.283 239.147 207.209 239.569 207.208C240.291 207.207 240.994 207.435 241.578 207.858C241.999 207.94 242.391 208.132 242.716 208.413C243.04 208.694 243.285 209.055 243.425 209.461L243.485 209.628C243.618 210.011 243.637 210.426 243.539 210.82C243.725 210.968 243.895 211.136 244.045 211.32C244.392 211.445 244.706 211.645 244.965 211.907C245.224 212.169 245.421 212.486 245.541 212.834L245.66 213.156C245.83 213.638 245.818 214.165 245.626 214.638C245.433 215.111 245.075 215.498 244.617 215.725L235.833 220.064C235.77 220.647 235.782 221.236 235.868 221.816C235.889 221.984 235.889 222.154 235.868 222.322C234.146 235.154 233.258 243.331 233.228 246.627C233.227 246.932 233.158 247.234 233.025 247.509C232.602 248.403 231.881 249.655 230.588 250.114C230.067 250.297 229.495 250.267 228.997 250.03L228.74 249.905H228.514C228.069 249.907 227.63 249.805 227.232 249.607C226.782 249.54 226.364 249.331 226.04 249.011C225.662 248.871 225.276 248.753 224.884 248.659C224.587 248.587 224.31 248.448 224.074 248.254L223.287 247.616C222.994 247.374 222.771 247.057 222.643 246.698C222.047 244.976 221.654 241.102 224.086 226.31L221.857 227.597C221.755 227.651 221.654 227.692 221.553 227.734C220.694 228.046 219.79 228.212 218.877 228.223C217.953 228.223 217.042 228.02 216.207 227.627C215.062 228.175 213.823 228.753 212.529 229.361H212.476C212.437 229.671 212.447 229.984 212.505 230.291L213.751 229.748C214.066 229.608 214.411 229.549 214.754 229.576C215.098 229.603 215.429 229.716 215.718 229.903C215.885 230.011 216.004 230.076 216.087 230.124C216.383 230.129 216.674 230.198 216.94 230.327C217.341 230.514 217.671 230.825 217.881 231.215H218.608C219.159 231.211 219.688 231.425 220.08 231.811C220.453 231.899 220.797 232.079 221.082 232.334C221.367 232.589 221.584 232.911 221.714 233.271C221.817 233.564 221.854 233.877 221.821 234.186C221.788 234.496 221.686 234.794 221.523 235.059C220.778 236.251 218.972 238.188 211.641 242.598C210.264 252.861 209.853 255.072 209.615 255.829C209.527 256.153 209.362 256.451 209.133 256.697C208.905 256.943 208.62 257.13 208.304 257.242C208.054 257.676 207.657 258.006 207.183 258.171L207.034 258.225C206.811 258.306 206.575 258.346 206.337 258.344C206.173 258.344 206.009 258.326 205.848 258.29L205.312 258.159C205.128 258.298 204.928 258.414 204.716 258.505C204.481 258.718 204.202 258.877 203.899 258.97C203.705 259.024 203.505 259.052 203.303 259.053C202.918 259.055 202.54 258.948 202.213 258.743L201.825 258.505C201.483 258.463 201.153 258.349 200.858 258.171C200.564 257.992 200.31 257.752 200.115 257.468C198.588 258.552 196.933 259.441 195.186 260.114L193.398 260.752C191.798 261.332 190.111 261.636 188.409 261.652C184.947 261.652 181.711 260.293 178.766 257.611C177.076 259.912 175.113 261.999 172.92 263.827C169.046 266.903 163.598 270.771 156.691 275.354C156.349 275.578 155.949 275.698 155.541 275.699ZM186.58 244.046C185.388 246.484 185 248.48 185.477 249.827L185.531 249.982C185.698 250.447 185.853 250.668 186.586 250.668C186.9 250.663 187.214 250.627 187.521 250.56L188.713 250.137C191.55 249.13 193.601 246.532 194.983 242.199C194.99 241.012 194.841 239.83 194.542 238.682C194.315 238.136 194.046 237.608 193.738 237.103C193.342 236.759 193.093 236.277 193.04 235.756C190.883 237.395 188.719 240.178 186.58 244.046ZM175.679 241.15C173.11 242.214 170.703 243.632 168.527 245.363C169.917 245.115 171.324 244.977 172.735 244.952C173.313 244.947 173.891 244.989 174.463 245.077C174.72 243.727 175.128 242.409 175.679 241.15Z" fill="white"/>
<path d="M239.575 209.289C239.769 209.292 239.961 209.333 240.139 209.411C240.317 209.489 240.478 209.601 240.612 209.742L240.499 209.956C240.657 209.907 240.822 209.879 240.988 209.873C241.087 209.859 241.188 209.879 241.274 209.93C241.361 209.981 241.428 210.059 241.464 210.153L241.524 210.32L239.772 210.916L239.825 211.071L240.457 210.844L240.57 211.166L240.266 211.273L240.475 211.392L240.38 211.601L240.493 211.923L241.345 211.792L241.405 211.959L241.292 212.173L241.351 212.346C241.474 212.296 241.606 212.27 241.739 212.269C242.186 212.269 242.531 212.602 242.77 213.276C242.875 213.249 242.983 213.235 243.091 213.234C243.193 213.219 243.297 213.239 243.386 213.291C243.475 213.343 243.543 213.424 243.58 213.52L243.699 213.842L234.64 218.318C233.846 218.604 233.565 219.844 233.8 222.037C232.06 235.01 231.174 243.197 231.142 246.598C230.731 247.474 230.307 247.986 229.89 248.135L229.02 247.718C228.858 247.779 228.687 247.814 228.513 247.819C228.347 247.822 228.184 247.768 228.052 247.666C227.92 247.564 227.827 247.421 227.786 247.259L227.673 247.486L227.524 247.539C227.405 247.277 226.702 246.985 225.414 246.663L224.634 246.073C223.871 243.924 224.409 237.304 226.249 226.215L226.457 222.722L220.855 225.78C220.221 226.013 219.552 226.138 218.876 226.149C217.95 226.154 217.048 225.854 216.308 225.297L211.659 227.478C210.566 227.876 210.169 228.976 210.467 230.78C210.33 230.828 210.294 231.746 210.371 233.528L210.52 233.474L214.591 231.686C214.97 231.99 215.419 232.195 215.896 232.282C215.946 232.289 215.996 232.289 216.045 232.282L216.331 233.092L216.826 233.456L216.88 233.611L216.403 233.778L216.463 233.945L216.617 233.891L217.523 233.379H218.608L218.668 233.545L218.554 233.76L218.614 233.927C218.812 233.899 219.011 233.883 219.21 233.879C219.524 233.879 219.703 233.939 219.746 234.058C218.825 235.548 215.479 238.003 209.71 241.424C208.617 249.594 207.916 254.244 207.606 255.377C206.748 255.681 206.372 255.973 206.486 256.306L206.331 256.36L205.735 256.217L205.854 256.002L205.621 255.359L205.3 255.472C205.413 255.788 205.365 255.985 205.145 256.068C205.074 255.911 204.963 255.776 204.822 255.676C204.682 255.577 204.518 255.516 204.346 255.502C204.244 255.503 204.144 255.521 204.048 255.555L204.108 255.71C204.227 256.306 204.167 256.604 203.917 256.694L203.708 256.581L203.535 256.64L203.327 257.075L202.397 256.479C202.326 256.504 202.252 256.518 202.177 256.521C201.98 256.521 201.837 256.396 201.747 256.157C201.504 255.329 201.376 254.47 201.366 253.607C200.691 254.38 199.94 255.085 199.125 255.71C197.698 256.737 196.148 257.582 194.512 258.225L192.724 258.863C191.349 259.367 189.898 259.631 188.433 259.644C185.044 259.644 181.905 258.086 179.016 254.971H178.987C178.814 254.971 178.581 254.739 178.295 254.274C178.295 254.822 178.2 255.126 177.991 255.204C176.215 257.853 174.065 260.232 171.608 262.266C167.802 265.282 162.452 269.077 155.558 273.65L155.355 273.554L155.296 273.382L156.238 272.529L156.124 272.207L154.503 273.143L154.444 272.976C154.36 272.738 154.563 272.488 155.04 272.225L154.926 271.915L154.456 272.088L154.336 271.766L154.664 271.647L154.61 271.498H153.544L153.639 271.296L153.472 270.819C153.36 270.863 153.241 270.887 153.12 270.89C153.02 270.896 152.921 270.866 152.841 270.806C152.76 270.746 152.703 270.66 152.679 270.563L152.578 270.771L152.256 270.884L152.203 270.735L152.298 270.527L152.244 270.378L151.94 270.485C151.923 270.42 151.883 270.362 151.827 270.323C151.772 270.284 151.704 270.265 151.636 270.27C151.538 270.272 151.441 270.293 151.35 270.33L151.297 270.175C151.106 269.647 154.843 266.667 162.507 261.235C167.474 257.262 170.273 254.791 170.905 253.821C164.826 255.538 160.654 256.396 158.389 256.396C157.245 256.396 156.595 256.175 156.44 255.734C155.826 255.598 155.258 255.302 154.794 254.876C154.33 254.45 153.988 253.909 153.8 253.309C153.371 252.093 153.502 250.448 154.193 248.374C160.022 240.379 166.399 235.155 173.325 232.699L173.646 232.586C173.792 232.536 173.945 232.511 174.099 232.514C174.74 232.561 175.365 232.731 175.941 233.015L176.144 233.11L176.299 233.057L176.37 233.736L177.199 235.59C177.622 237.336 177.348 238.379 176.358 238.731L175.411 239.064C171.29 240.53 166.64 243.781 161.458 248.815L161.566 249.119L161.721 249.065C166.715 247.746 170.386 247.086 172.735 247.086C174.087 247.086 174.993 247.307 175.47 247.742C175.778 247.802 176.07 247.923 176.328 248.1C176.162 243.836 178.393 239.052 183.021 233.748C186.852 229.934 190.165 227.53 192.963 226.537L193.129 226.477C193.334 226.405 193.55 226.368 193.767 226.37C194.756 226.37 195.998 227.055 197.492 228.426L197.725 228.533L197.993 229.302C198.164 229.787 197.498 230.494 195.996 231.424L196.05 231.573C199.364 233.611 201.549 235.858 202.606 238.313C203.138 232.711 203.039 228.887 202.308 226.841C202.624 225.053 203.16 223.992 203.917 223.723L206.724 223.455C211.529 220.958 216.488 218.768 221.57 216.899C221.601 216.956 221.652 216.999 221.713 217.019C224.701 215.64 228.412 213.77 232.846 211.41L235.94 210.486L238.979 209.408C239.153 209.344 239.336 209.31 239.521 209.306M186.532 252.772C187.04 252.767 187.546 252.705 188.04 252.587L189.351 252.123C192.867 250.871 195.414 247.692 196.991 242.587C197.046 241.051 196.869 239.516 196.467 238.033C195.871 236.621 195.376 235.798 195.054 235.56V235.041C194.232 233.635 193.749 232.932 193.594 232.932C190.547 234.493 187.583 237.882 184.702 243.099C183.208 246.127 182.811 248.608 183.51 250.543L183.564 250.698C183.754 251.337 184.158 251.892 184.708 252.27C185.258 252.647 185.92 252.824 186.585 252.772M155.123 270.932L155.445 270.819L155.391 270.67L155.063 270.783L155.123 270.932ZM239.575 205.134C238.915 205.136 238.26 205.251 237.638 205.474L234.7 206.517L231.72 207.411C231.456 207.491 231.2 207.596 230.957 207.727C227.059 209.801 223.722 211.494 221.01 212.775C220.748 212.813 220.49 212.876 220.241 212.966C215.238 214.793 210.352 216.924 205.61 219.349L203.583 219.546C203.243 219.577 202.909 219.651 202.588 219.766C200.8 220.362 199.536 221.822 198.779 224.027C197.367 222.882 195.62 222.229 193.803 222.168C193.111 222.165 192.423 222.282 191.771 222.514L191.604 222.573C188.189 223.765 184.452 226.465 180.113 230.762L179.946 230.941C179.608 230.356 179.133 229.861 178.563 229.499C178.102 229.205 177.588 229.003 177.05 228.903C176.123 228.528 175.135 228.326 174.135 228.307C173.506 228.305 172.882 228.41 172.288 228.617L171.966 228.73C164.266 231.465 157.161 237.235 150.856 245.877C150.599 246.227 150.398 246.615 150.26 247.027C149.264 250.042 149.145 252.54 149.902 254.667C150.243 255.696 150.797 256.642 151.528 257.442C152.259 258.242 153.151 258.879 154.146 259.31C154.853 259.83 155.667 260.186 156.53 260.353C154.366 261.933 152.656 263.22 151.35 264.263C150.521 264.915 149.725 265.609 148.966 266.343C147.28 268.018 146.743 269.77 147.375 271.558L147.435 271.713C147.625 272.238 147.919 272.72 148.298 273.129C148.678 273.539 149.136 273.868 149.646 274.097C149.901 274.301 150.179 274.475 150.474 274.615L150.641 274.693C150.858 275.222 151.182 275.701 151.592 276.1C152.002 276.499 152.49 276.809 153.025 277.011L153.103 277.041C153.24 277.125 153.381 277.203 153.526 277.273L153.728 277.369C154.379 277.678 155.099 277.814 155.817 277.763C156.536 277.712 157.229 277.475 157.829 277.077C164.79 272.464 170.285 268.56 174.165 265.485L174.242 265.419C175.996 263.962 177.616 262.35 179.082 260.603C181.764 262.65 185.041 263.766 188.415 263.78C190.355 263.766 192.277 263.422 194.101 262.761L195.889 262.123C197.311 261.593 198.674 260.913 199.954 260.097C200.301 260.288 200.671 260.432 201.056 260.526L201.122 260.568C201.78 260.963 202.535 261.17 203.303 261.164C203.707 261.166 204.109 261.108 204.495 260.991C204.922 260.857 205.324 260.656 205.687 260.395C205.894 260.424 206.103 260.438 206.313 260.437C206.788 260.438 207.26 260.358 207.707 260.198L207.862 260.145C209.466 259.307 210.774 257.999 211.611 256.396C211.861 255.484 212.291 253.249 213.56 243.88C215.89 242.499 218.131 240.975 220.271 239.315C219.895 244.083 220.217 246.097 220.682 247.42C220.939 248.138 221.386 248.772 221.975 249.256L222.756 249.893C223.232 250.282 223.787 250.561 224.383 250.71C224.657 250.776 224.86 250.835 224.979 250.877C225.451 251.229 225.991 251.478 226.565 251.61C227.099 251.832 227.667 251.959 228.245 251.985C229.194 252.381 230.257 252.409 231.225 252.063C233.484 251.264 234.515 249.083 234.849 248.392C235.113 247.843 235.252 247.242 235.254 246.633C235.284 243.427 236.166 235.31 237.876 222.591C237.915 222.254 237.915 221.915 237.876 221.578C237.876 221.494 237.876 221.417 237.876 221.345L245.499 217.585C246.415 217.132 247.132 216.358 247.516 215.411C247.899 214.464 247.922 213.41 247.579 212.447L247.466 212.125C247.128 211.164 246.477 210.344 245.618 209.795C245.582 209.488 245.51 209.186 245.404 208.895L245.344 208.728C245.107 208.054 244.713 207.446 244.195 206.954C243.677 206.462 243.05 206.1 242.364 205.897C241.502 205.373 240.513 205.095 239.504 205.093L239.575 205.134ZM221.195 230.011L221.451 229.946C221.451 229.999 221.451 230.053 221.451 230.113L221.219 230.011H221.195ZM188.415 245.012C189.534 242.912 190.885 240.945 192.444 239.148C192.474 239.207 192.504 239.279 192.533 239.35C192.737 240.17 192.855 241.009 192.885 241.854C191.729 245.304 190.09 247.432 187.998 248.171L187.348 248.404C187.475 247.213 187.838 246.061 188.415 245.012Z" fill="black"/>
</g>
<path d="M95.3757 65.9127H87.9225V54.504H84.2376V69.0771H95.3757V65.9127ZM109.434 66.0792H101.585V63.0397H108.518V60.2708H101.585V57.4811H109.434V54.504H97.8999V69.0771H109.434V66.0792ZM124.668 69.0771H128.415L122.19 54.504H117.506L111.177 69.0771H114.841L116.111 66.0376H123.398L124.668 69.0771ZM119.754 57.3354L122.149 63.0605H117.36L119.754 57.3354ZM130.429 69.0771H134.114V63.9974H136.383H136.592L140.401 69.0771H144.503L140.235 63.5185C142.4 62.7899 143.358 61.3534 143.358 59.105C143.358 56.0862 141.609 54.504 137.091 54.504H130.429V69.0771ZM134.031 57.5019H136.654C138.798 57.5019 139.527 58.064 139.527 59.3131C139.527 60.6455 138.632 61.2077 136.883 61.2077H134.031V57.5019ZM162.031 54.504H158.471V64.3929L151.268 54.504H146.938V69.0771H150.519V58.8968L157.972 69.0771H162.031V54.504ZM191.372 54.504H185.855L181.691 65.1424L177.444 54.504H171.802V69.0771H175.383V57.9807L179.839 69.0771H183.357L187.791 57.9807V69.0771H191.372V54.504ZM203.326 66.3291C200.141 66.3291 198.329 64.8718 198.329 61.7906C198.329 58.7302 200.057 57.2313 203.055 57.2313C206.324 57.2313 207.969 58.6886 207.969 61.7906C207.969 64.8926 206.428 66.3291 203.326 66.3291ZM203.18 69.3478C208.51 69.3478 211.883 67.0161 211.883 61.7906C211.883 57.0855 209.01 54.2334 203.076 54.2334C197.747 54.2334 194.416 56.8774 194.416 61.7906C194.416 66.7246 197.518 69.3478 203.18 69.3478ZM214.924 69.0771H218.609V63.9974H220.878H221.087L224.896 69.0771H228.998L224.73 63.5185C226.895 62.7899 227.853 61.3534 227.853 59.105C227.853 56.0862 226.104 54.504 221.586 54.504H214.924V69.0771ZM218.526 57.5019H221.149C223.293 57.5019 224.022 58.064 224.022 59.3131C224.022 60.6455 223.127 61.2077 221.378 61.2077H218.526V57.5019ZM242.966 66.0792H235.118V63.0397H242.05V60.2708H235.118V57.4811H242.966V54.504H231.433V69.0771H242.966V66.0792ZM88.8752 97.0771H92.6226L86.3978 82.504H81.7136L75.3847 97.0771H79.0488L80.3187 94.0376H87.6053L88.8752 97.0771ZM83.962 85.3354L86.3562 91.0605H81.5679L83.962 85.3354ZM98.3218 85.2937H101.382C103.277 85.2937 103.964 85.6685 103.964 86.7719C103.964 87.8336 103.318 88.479 101.257 88.479H98.3218V85.2937ZM98.3218 90.8732H101.299C103.381 90.8732 104.276 91.2895 104.276 92.6219C104.276 93.9335 103.381 94.2874 101.299 94.2874H98.3218V90.8732ZM102.007 97.0771C106.92 97.0771 108.107 95.1202 108.107 92.8093C108.107 91.1646 107.107 89.624 104.547 89.5199V89.4575C106.628 89.1036 107.628 87.9377 107.628 86.2098C107.628 83.7948 106.233 82.504 102.236 82.504H94.6368V97.0771H102.007ZM119.268 94.3291C116.083 94.3291 114.272 92.8718 114.272 89.7906C114.272 86.7302 116 85.2313 118.998 85.2313C122.266 85.2313 123.911 86.6886 123.911 89.7906C123.911 92.8926 122.37 94.3291 119.268 94.3291ZM119.122 97.3478C124.452 97.3478 127.825 95.0161 127.825 89.7906C127.825 85.0855 124.952 82.2334 119.018 82.2334C113.689 82.2334 110.358 84.8774 110.358 89.7906C110.358 94.7246 113.46 97.3478 119.122 97.3478ZM141.63 90.5401C141.63 92.955 141.005 94.1625 137.986 94.1625C135.155 94.1625 134.364 92.9759 134.364 90.5401V82.504H130.7V91.0189C130.7 95.7447 133.385 97.3478 137.986 97.3478C142.858 97.3478 145.294 95.599 145.294 91.0397V82.504H141.63V90.5401ZM156.334 85.6685H161.518V82.504H147.444V85.6685H152.649V97.0771H156.334V85.6685ZM173.586 85.2937H176.647C178.541 85.2937 179.228 85.6685 179.228 86.7719C179.228 87.8336 178.583 88.479 176.522 88.479H173.586V85.2937ZM173.586 90.8732H176.564C178.645 90.8732 179.541 91.2895 179.541 92.6219C179.541 93.9335 178.645 94.2874 176.564 94.2874H173.586V90.8732ZM177.271 97.0771C182.185 97.0771 183.371 95.1202 183.371 92.8093C183.371 91.1646 182.372 89.624 179.811 89.5199V89.4575C181.893 89.1036 182.892 87.9377 182.892 86.2098C182.892 83.7948 181.498 82.504 177.5 82.504H169.902V97.0771H177.271ZM189.953 85.2937H193.013C194.908 85.2937 195.595 85.6685 195.595 86.7719C195.595 87.8336 194.949 88.479 192.888 88.479H189.953V85.2937ZM189.953 90.8732H192.93C195.012 90.8732 195.907 91.2895 195.907 92.6219C195.907 93.9335 195.012 94.2874 192.93 94.2874H189.953V90.8732ZM193.638 97.0771C198.551 97.0771 199.738 95.1202 199.738 92.8093C199.738 91.1646 198.738 89.624 196.178 89.5199V89.4575C198.259 89.1036 199.259 87.9377 199.259 86.2098C199.259 83.7948 197.864 82.504 193.867 82.504H186.268V97.0771H193.638ZM202.197 96.4734C203.529 96.9939 205.153 97.3478 207.298 97.3478C211.399 97.3478 213.98 95.7239 213.98 92.7468C213.98 90.9773 213.252 89.5199 210.025 88.5831L209.338 88.3957C206.84 87.6671 205.799 87.3756 205.799 86.4804C205.799 85.6268 206.715 85.2105 208.568 85.2105C209.9 85.2105 211.607 85.3978 212.939 85.8142V82.8788C212.044 82.5248 210.608 82.2334 208.339 82.2334C204.362 82.2334 202.03 83.774 202.03 86.5429C202.03 88.6247 203.196 90.082 206.257 90.8523L206.902 91.0189C209.15 91.6435 209.962 91.8516 209.962 92.9134C209.962 93.9127 209.026 94.4123 206.944 94.4123C204.841 94.4123 203.009 93.8919 202.197 93.4547V96.4734ZM222.551 94.7871C220.532 94.7871 219.22 93.8502 219.22 91.7684C219.22 89.6657 220.386 88.7288 222.551 88.7288C224.904 88.7288 225.903 89.624 225.903 91.7684C225.903 93.8502 224.779 94.7871 222.551 94.7871ZM222.551 97.327C226.944 97.327 229.401 95.4116 229.401 91.7684C229.401 88.021 226.965 86.2098 222.551 86.2098C218.283 86.2098 215.723 88.1251 215.723 91.7684C215.723 95.5782 218.138 97.327 222.551 97.327ZM239.569 86.4596H236.217V85.8558C236.217 84.4193 236.675 83.8989 238.403 83.8989C238.965 83.8989 239.465 83.9613 239.652 84.0238V81.4839C238.924 81.3382 238.361 81.2965 237.529 81.2965C234.135 81.2965 232.865 82.7955 232.865 85.1896V86.4596H230.513V89.0827H232.865V97.0771H236.217V89.0827H239.569V86.4596ZM250.392 86.4596H246.728V83.1702L243.376 84.2112V86.4596H241.023V89.0827H243.376V93.767C243.376 96.057 244.625 97.327 247.831 97.327C248.934 97.327 249.871 97.1396 250.433 96.9106V94.3083C249.934 94.4956 249.33 94.5789 248.851 94.5789C247.144 94.5789 246.728 94.0168 246.728 92.7468V89.0827H250.392V86.4596Z" fill="white"/>
<defs>
<filter id="filter0_dd_993_1006" x="0.00512791" y="0.00512791" width="337.933" height="337.933" filterUnits="userSpaceOnUse" color-interpolation-filters="sRGB">
<feFlood flood-opacity="0" result="BackgroundImageFix"/>
<feColorMatrix in="SourceAlpha" type="matrix" values="0 0 0 0 0 0 0 0 0 0 0 0 0 0 0 0 0 0 127 0" result="hardAlpha"/>
<feOffset dx="-4.91795" dy="-4.91795"/>
<feGaussianBlur stdDeviation="10.5385"/>
<feColorMatrix type="matrix" values="0 0 0 0 0.12217 0 0 0 0 0.126834 0 0 0 0 0.129167 0 0 0 1 0"/>
<feBlend mode="normal" in2="BackgroundImageFix" result="effect1_dropShadow_993_1006"/>
<feColorMatrix in="SourceAlpha" type="matrix" values="0 0 0 0 0 0 0 0 0 0 0 0 0 0 0 0 0 0 127 0" result="hardAlpha"/>
<feOffset dx="9.8359" dy="9.8359"/>
<feGaussianBlur stdDeviation="14.0513"/>
<feColorMatrix type="matrix" values="0 0 0 0 0 0 0 0 0 0 0 0 0 0 0 0 0 0 0.75 0"/>
<feBlend mode="normal" in2="effect1_dropShadow_993_1006" result="effect2_dropShadow_993_1006"/>
<feBlend mode="normal" in="SourceGraphic" in2="effect2_dropShadow_993_1006" result="shape"/>
</filter>
<filter id="filter1_dd_993_1006" x="53.9128" y="100.959" width="222.01" height="218.968" filterUnits="userSpaceOnUse" color-interpolation-filters="sRGB">
<feFlood flood-opacity="0" result="BackgroundImageFix"/>
<feColorMatrix in="SourceAlpha" type="matrix" values="0 0 0 0 0 0 0 0 0 0 0 0 0 0 0 0 0 0 127 0" result="hardAlpha"/>
<feOffset dy="2.81026"/>
<feGaussianBlur stdDeviation="0.702564"/>
<feComposite in2="hardAlpha" operator="out"/>
<feColorMatrix type="matrix" values="0 0 0 0 0 0 0 0 0 0 0 0 0 0 0 0 0 0 0.25 0"/>
<feBlend mode="normal" in2="BackgroundImageFix" result="effect1_dropShadow_993_1006"/>
<feColorMatrix in="SourceAlpha" type="matrix" values="0 0 0 0 0 0 0 0 0 0 0 0 0 0 0 0 0 0 127 0" result="hardAlpha"/>
<feOffset dx="-7.02564" dy="7.02564"/>
<feGaussianBlur stdDeviation="17.5641"/>
<feComposite in2="hardAlpha" operator="out"/>
<feColorMatrix type="matrix" values="0 0 0 0 0.0313726 0 0 0 0 0.0431373 0 0 0 0 0.0509804 0 0 0 1 0"/>
<feBlend mode="normal" in2="effect1_dropShadow_993_1006" result="effect2_dropShadow_993_1006"/>
<feBlend mode="normal" in="SourceGraphic" in2="effect2_dropShadow_993_1006" result="shape"/>
</filter>
<linearGradient id="paint0_linear_993_1006" x1="26" y1="26" x2="281.281" y2="316.453" gradientUnits="userSpaceOnUse">
<stop/>
<stop offset="1" stop-color="#1A1C1F"/>
</linearGradient>
</defs>
</svg>
