<svg width="149" height="70" viewBox="0 0 149 70" fill="none" xmlns="http://www.w3.org/2000/svg">
<path d="M21.6482 30.5204H16.6178V57.4004H21.6482V43.922L34.1666 57.4004H40.541L26.9858 43.1156L39.6962 30.5204H33.6674L21.6482 42.8852V30.5204ZM63.6053 57.4004H68.7893L58.0757 30.5204H52.2005L41.3333 57.4004H46.3637L48.8213 50.9876H61.1477L63.6053 57.4004ZM55.0421 34.9364L59.4965 46.6868H50.4725L55.0421 34.9364ZM80.8154 35.0516H89.4938V30.5204H67.1066V35.0516H75.785V57.4004H80.8154V35.0516ZM92.8346 56.1716C94.9466 57.2084 97.481 57.8228 100.822 57.8228C107.119 57.8228 111.19 54.9428 111.19 49.7204C111.19 46.3412 109.961 43.8068 104.7 42.0404L103.587 41.6564C99.1322 40.1204 97.865 39.3524 97.865 37.4324C97.865 35.4356 99.5162 34.4372 102.703 34.4372C104.7 34.4372 107.311 34.706 109.5 35.5892V31.25C108.31 30.674 106.121 30.098 102.588 30.098C96.4058 30.098 92.6426 32.7476 92.6426 37.394C92.6426 41.4644 94.6394 43.73 99.3626 45.1508L100.399 45.4964C104.239 46.7252 105.737 47.378 105.737 49.9124C105.737 52.2548 104.047 53.522 100.361 53.522C97.097 53.522 94.217 52.5236 92.8346 51.7172V56.1716ZM134.26 45.65C134.26 50.8724 133.108 53.33 127.694 53.33C122.625 53.33 121.089 50.9108 121.089 45.65V30.5204H116.097V46.2644C116.097 54.7124 120.129 57.8228 127.694 57.8228C135.681 57.8228 139.291 54.4436 139.291 46.2644V30.5204H134.26V45.65Z" fill="white"/>
<g clip-path="url(#clip0_941_1584)">
<path d="M25.5346 15.2531C26.1883 14.9762 26.7842 14.5789 27.2912 14.082C27.7868 13.5739 28.1839 12.9783 28.4622 12.3254C28.7626 11.6389 28.9143 10.8966 28.9073 10.1473C28.9124 9.39433 28.7609 8.64854 28.4622 7.95734C28.1862 7.30317 27.7889 6.70715 27.2912 6.20075C26.7839 5.70416 26.1881 5.30696 25.5346 5.02969C24.8491 4.73264 24.1094 4.58114 23.3623 4.58472H20.0365V19.8085H15.9378V4.18656L-0.0238037 0C12.6354 0.240068 21.8399 0.445015 23.3389 0.45087C24.293 0.449864 25.2421 0.589932 26.1553 0.866574C26.4735 0.96724 26.7862 1.08453 27.0921 1.21791C28.2351 1.70315 29.2746 2.40274 30.1544 3.27896C31.0322 4.1655 31.7336 5.21065 32.2214 6.35886C32.7237 7.54949 32.9824 8.82864 32.9824 10.1209C32.9824 11.4131 32.7237 12.6923 32.2214 13.8829C31.2396 16.1919 29.4011 18.0304 27.0921 19.0122C25.9064 19.5205 24.6289 19.7796 23.3389 19.7734H20.9967L22.3259 15.6747H23.3272C24.0846 15.6934 24.8373 15.5496 25.5346 15.2531Z" fill="#E6332A"/>
<path d="M53.9685 19.6797H49.4717L47.7619 15.6045H40.3081L44.2487 11.4706H46.017L43.4583 5.40451L37.4156 19.6797H32.9187L41.2098 0.0878906H50.0103L47.03 3.23805L53.9685 19.6797Z" fill="#E6332A"/>
<path d="M62.9912 0.0878906L59.7884 3.4664V19.6797H55.6604V0.0878906H62.9912Z" fill="#E6332A"/>
<path d="M74.4621 4.22174V19.6797H70.3282V4.22174H64.6779V0.0878906H80.1125V4.22174H74.4621Z" fill="#E6332A"/>
<path d="M98.6326 19.6797H94.1357L92.4201 15.6045H84.9722L88.9069 11.4706H90.6811L88.1223 5.40451L82.0796 19.6797H77.5828L85.8739 0.0878906H94.6744L91.6941 3.23805L98.6326 19.6797Z" fill="#E6332A"/>
<path d="M116.796 19.6797H111.901L104.453 7.09084V19.6797H100.319V0.0878906H105.214L112.662 12.6827V0.0878906H119.999L116.796 3.4664V19.6797Z" fill="#E6332A"/>
<path d="M139.924 19.6798H135.427L133.712 15.581H126.264L130.199 11.4823H131.955L129.396 5.41038L123.354 19.6856H118.869L127.16 0.09375L149 0.164011L133.448 4.35643C135.611 9.45835 137.769 14.5661 139.924 19.6798Z" fill="#E6332A"/>
</g>
<defs>
<clipPath id="clip0_941_1584">
<rect width="149" height="19.7734" fill="white"/>
</clipPath>
</defs>
</svg>
