<svg width="31" height="30" viewBox="0 0 31 30" fill="none" xmlns="http://www.w3.org/2000/svg">
<path d="M7.69231 1C3.99592 1 1 4.13367 1 8C1 10.59 2.34738 12.8456 4.34615 14.0566V25.5C4.34615 27.4332 5.84412 29 7.69231 29C9.5405 29 11.0385 27.4332 11.0385 25.5V14.0566C13.0372 12.8456 14.3846 10.59 14.3846 8C14.3846 6.97333 14.1691 6.00057 13.7899 5.12207L9.92308 9.16667H8.80769H6.57692V5.66667L10.4437 1.62207C9.60385 1.2254 8.67385 1 7.69231 1ZM16.3169 10.3333C16.1117 11.1535 15.8003 11.9375 15.3954 12.6667H17.5717C18.6927 12.6667 19.7335 13.2488 20.3558 14.2253L21.6194 16.2054C21.5451 16.1942 21.4688 16.1775 21.395 16.1667H13.2692L13.3259 25.5H21.4734C22.1056 26.8712 23.438 27.8333 24.9808 27.8333C26.701 27.8333 28.1566 26.6379 28.6711 25.0101L30 24.3333V19.7783C30 18.684 29.2745 17.7342 28.2529 17.4997C27.2901 17.2784 26.0053 17.0054 24.6409 16.7386L22.2141 12.931C21.1768 11.3047 19.4433 10.3333 17.5739 10.3333H16.3169ZM24.9808 22C25.918 22 26.6538 22.7697 26.6538 23.75C26.6538 24.7303 25.918 25.5 24.9808 25.5C24.0435 25.5 23.3077 24.7303 23.3077 23.75C23.3077 22.7697 24.0435 22 24.9808 22ZM7.69231 24.3333C8.308 24.3333 8.80769 24.856 8.80769 25.5C8.80769 26.144 8.308 26.6667 7.69231 26.6667C7.07662 26.6667 6.57692 26.144 6.57692 25.5C6.57692 24.856 7.07662 24.3333 7.69231 24.3333Z" fill="url(#paint0_linear_1680_1818)" stroke="url(#paint1_radial_1680_1818)" stroke-opacity="0.2" stroke-width="1.66622"/>
<defs>
<linearGradient id="paint0_linear_1680_1818" x1="15.5" y1="1" x2="15.5" y2="29" gradientUnits="userSpaceOnUse">
<stop stop-color="white"/>
<stop offset="1" stop-color="white" stop-opacity="0"/>
</linearGradient>
<radialGradient id="paint1_radial_1680_1818" cx="0" cy="0" r="1" gradientUnits="userSpaceOnUse" gradientTransform="translate(1 1) rotate(43.9949) scale(40.3113 40.2865)">
<stop stop-color="#FAFAFA"/>
<stop offset="1" stop-color="#F7F7F7" stop-opacity="0"/>
</radialGradient>
</defs>
</svg>
