<svg width="251" height="60" viewBox="0 0 251 60" fill="none" xmlns="http://www.w3.org/2000/svg">
<g opacity="0.58">
<path d="M81.2284 7.8687C81.2284 9.6827 80.692 11.1272 79.6179 12.2048C78.3978 13.4862 76.8077 14.1273 74.8529 14.1273C72.9809 14.1273 71.3892 13.4778 70.0804 12.1769C68.7691 10.877 68.1147 9.26496 68.1147 7.34168C68.1147 5.41753 68.7691 3.80651 70.0804 2.50551C71.3892 1.20568 72.9809 0.555176 74.8529 0.555176C75.7818 0.555176 76.6711 0.73714 77.5154 1.1C78.3597 1.46373 79.037 1.94657 79.5437 2.55124L78.4036 3.69382C77.545 2.66626 76.3628 2.15286 74.8529 2.15286C73.4877 2.15286 72.3071 2.63337 71.3108 3.59496C70.3143 4.55752 69.8162 5.80578 69.8162 7.34168C69.8162 8.87768 70.3143 10.1258 71.3108 11.0885C72.3071 12.0501 73.4876 12.5305 74.8529 12.5305C76.3012 12.5305 77.5087 12.0475 78.4754 11.08C79.103 10.4498 79.4658 9.57372 79.563 8.44875H74.8528V6.88833H81.1379C81.1986 7.22764 81.2282 7.55323 81.2282 7.8687" fill="white"/>
<path d="M81.2283 7.8689H81.0121C81.0104 9.64155 80.4935 11.0183 79.4649 12.0519L79.4627 12.0537L79.4617 12.0554C78.2804 13.2926 76.7619 13.9084 74.8528 13.911C73.0308 13.9084 71.5057 13.2859 70.2322 12.024C68.9616 10.7596 68.3333 9.21602 68.3308 7.34188C68.3333 5.46687 68.9616 3.92416 70.2322 2.66062C71.5057 1.39787 73.0308 0.774515 74.8528 0.771887C75.7538 0.771887 76.6118 0.948014 77.4299 1.2989C78.249 1.65252 78.896 2.1159 79.378 2.69118L79.5436 2.55144L79.3908 2.39838L78.2507 3.54174L78.4035 3.69403L78.57 3.55546C77.6714 2.477 76.4101 1.93335 74.8528 1.93656C73.4369 1.93481 72.1914 2.44158 71.1611 3.43966C70.1209 4.44096 69.5983 5.75947 69.6 7.34188C69.5983 8.92439 70.1209 10.2428 71.1611 11.2442C72.1914 12.2423 73.4369 12.749 74.8528 12.7472C76.349 12.7498 77.6243 12.2414 78.6282 11.2333C79.2986 10.5599 79.6787 9.62724 79.7784 8.46753L79.7985 8.23244H75.069V7.10504H81.1378V6.88853L80.9249 6.92658C80.9841 7.25489 81.012 7.56686 81.012 7.8689H81.4443C81.4443 7.53981 81.4139 7.20157 81.3505 6.8498L81.3185 6.67202H74.6367V8.66546H79.5629V8.44895L79.3477 8.43036C79.2523 9.51981 78.906 10.3402 78.3225 10.9273C77.3937 11.8541 76.2538 12.3116 74.8528 12.3142C73.5382 12.3124 72.4228 11.8591 71.461 10.933C70.5086 10.0102 70.0348 8.83214 70.0323 7.34188C70.0348 5.85162 70.5086 4.67352 71.461 3.75076C72.4228 2.82468 73.5381 2.37133 74.8528 2.36958C76.3146 2.37308 77.4184 2.85679 78.2383 3.83366L78.3903 4.01465L79.6965 2.70461L79.8366 2.56429L79.7091 2.41268C79.178 1.77853 78.4703 1.27516 77.6006 0.901501C76.7292 0.526673 75.8097 0.33887 74.8528 0.33887C72.9311 0.337216 71.2727 1.01379 69.9275 2.35274C68.5774 3.68906 67.8968 5.36878 67.8987 7.34188C67.8968 9.31411 68.5774 10.9948 69.9284 12.3319C71.2727 13.67 72.9311 14.3458 74.8528 14.344C76.8542 14.3458 78.5143 13.68 79.7742 12.3547L79.6178 12.205L79.7707 12.3582C80.8904 11.2375 81.4459 9.72358 81.4444 7.8689H81.2282M91.192 2.44236H85.2855V6.56138H90.6121V8.12239H85.2855V12.2414H91.192V13.8373H83.6203V0.846425H91.192V2.44236Z" fill="white"/>
<path d="M91.1921 2.44233V2.22582H85.0694V6.77786H90.3959V7.90526L85.0693 7.90584V12.4579H90.9759V13.6208H83.8366V1.0629H90.9759V2.44233H91.1921V2.22582V2.44233H91.4082V0.629883H83.4043V14.0538H91.4082V12.0249H85.5017V8.33886H90.8283V6.34484H85.5017V2.65884H91.4082V2.44233H91.1921ZM98.22 13.8374H96.5524V2.44223H92.9298V0.846294H101.843V2.44223H98.22V13.8372" fill="white"/>
<path d="M98.2202 13.8374V13.6208H96.7687V2.22582H93.1462V1.063H101.627V2.22582H98.0041V13.8373H98.2202V13.6208V13.8373H98.4364V2.65884H102.059V0.629883H92.7139V2.65874H96.3363V14.0537H98.4364V13.8372H98.2202M108.291 13.8374V0.846294H109.957V13.8372H108.291" fill="white"/>
<path d="M108.291 13.8374H108.507V1.0629H109.741V13.6208H108.291V13.8373H108.507H108.291V14.0538H110.173V0.629883H108.075V14.0538H108.291V13.8373M117.35 13.8374H115.682V2.44223H112.06V0.846294H120.972V2.44223H117.35V13.8372" fill="white"/>
<path d="M117.35 13.8372V13.6206H115.898V2.22565H112.276V1.06283H120.756V2.22565H117.134V13.8371H117.35V13.6206V13.8371H117.566V2.65867H121.189V0.629712H111.844V2.65857H115.466V14.0536H117.566V13.837H117.35M129.565 11.0708C130.525 12.0442 131.7 12.5304 133.089 12.5304C134.478 12.5304 135.653 12.0442 136.612 11.0708C137.572 10.0973 138.054 8.85296 138.054 7.34168C138.054 5.8305 137.572 4.58613 136.612 3.61267C135.653 2.63921 134.478 2.15286 133.089 2.15286C131.7 2.15286 130.525 2.63921 129.565 3.61267C128.607 4.58613 128.125 5.8304 128.125 7.34168C128.125 8.85296 128.607 10.0973 129.565 11.0708ZM137.844 12.1583C136.569 13.4717 134.984 14.1273 133.089 14.1273C131.192 14.1273 129.607 13.4717 128.335 12.1583C127.059 10.8464 126.424 9.24054 126.424 7.34168C126.424 5.44283 127.059 3.83667 128.335 2.52506C129.607 1.21142 131.192 0.555176 133.089 0.555176C134.974 0.555176 136.555 1.21492 137.836 2.53353C139.115 3.85204 139.755 5.4547 139.755 7.34168C139.755 9.24054 139.117 10.8464 137.844 12.1583Z" fill="white"/>
<path d="M129.565 11.071L129.411 11.2232C130.407 12.2356 131.649 12.7498 133.089 12.7472C134.528 12.7498 135.771 12.2356 136.765 11.2232C137.767 10.2098 138.272 8.8989 138.27 7.34189C138.271 5.78497 137.767 4.47395 136.765 3.46059C135.771 2.4482 134.528 1.93403 133.089 1.93656C131.649 1.93403 130.407 2.4482 129.411 3.46059C128.412 4.47395 127.907 5.78497 127.909 7.34189C127.907 8.8988 128.412 10.2098 129.411 11.2232L129.565 11.071L129.719 10.9187C128.802 9.98407 128.343 8.8084 128.342 7.34189C128.343 5.87546 128.802 4.6998 129.719 3.76506C130.644 2.83062 131.749 2.37221 133.089 2.36968C134.427 2.37221 135.535 2.83062 136.458 3.76506C137.377 4.6998 137.835 5.87546 137.837 7.34189C137.835 8.80831 137.377 9.98407 136.458 10.9187C135.535 11.8532 134.427 12.3116 133.089 12.3141C131.749 12.3116 130.644 11.8532 129.719 10.9187L129.565 11.071ZM137.844 12.1585L137.69 12.0081C136.45 13.2801 134.935 13.9085 133.089 13.911C131.242 13.9084 129.726 13.2801 128.489 12.0081L128.483 12.0013L128.489 12.0081C127.252 10.7317 126.642 9.19248 126.64 7.34189C126.642 5.4913 127.252 3.95209 128.489 2.6758C129.726 1.40371 131.242 0.774518 133.089 0.771988C134.923 0.774518 136.435 1.40633 137.681 2.68505C138.923 3.96727 139.537 5.50404 139.539 7.34189C139.537 9.19248 138.924 10.7317 137.69 12.0081L137.844 12.1585L138 12.3089C139.31 10.9609 139.973 9.28881 139.972 7.34189C139.973 5.40605 139.308 3.73733 137.991 2.3833C136.674 1.02392 135.024 0.336538 133.089 0.338873C131.143 0.336538 129.488 1.02071 128.179 2.37483V2.37386C126.866 3.72283 126.206 5.39496 126.208 7.34189C126.206 9.28881 126.866 10.9609 128.179 12.3098L128.185 12.3159L128.179 12.3089C129.488 13.6631 131.143 14.3458 133.089 14.344C135.033 14.3458 136.688 13.6631 138 12.3089L137.844 12.1585ZM142.094 13.8374V0.84633H144.123L150.426 10.9524H150.498L150.426 8.44885V0.84633H152.094V13.8372H150.354L143.759 3.24145H143.688L143.759 5.74585V13.8372H142.094" fill="white"/>
<path d="M142.094 13.8374H142.31V1.0629H144.003L150.306 11.1689H150.72L150.642 8.4457V1.063H151.878V13.6208H150.474L143.879 3.02501H143.466L143.543 5.74942V13.6208H142.094V13.8373H142.31H142.094V14.0538H143.976V5.74251L143.904 3.23568L143.688 3.24151V3.45802H143.759V3.24151L143.576 3.35663L150.234 14.0538H152.31V0.629883H150.21V8.45145L150.282 10.9583L150.498 10.9524V10.7359H150.426V10.9524L150.609 10.8375L144.242 0.629883H141.878V14.0538H142.094V13.8373M209.885 50.645H213.919V23.578H209.885L209.885 50.645ZM246.216 33.3282L241.593 45.063H241.454L236.655 33.3281H232.31L239.506 49.7298L235.404 58.8531H239.612L250.702 33.3281L246.216 33.3282ZM223.342 47.5707C222.019 47.5707 220.177 46.9092 220.177 45.272C220.177 43.1828 222.473 42.3819 224.453 42.3819C226.227 42.3819 227.06 42.7649 228.138 43.2879C227.825 45.7946 225.67 47.5707 223.342 47.5707ZM223.828 32.736C220.908 32.736 217.883 34.0248 216.632 36.8803L220.211 38.3772C220.977 36.8803 222.401 36.3922 223.897 36.3922C225.983 36.3922 228.104 37.6465 228.138 39.8751V40.1534C227.408 39.7355 225.845 39.1088 223.932 39.1088C220.073 39.1088 216.143 41.2324 216.143 45.2025C216.143 48.8242 219.308 51.1575 222.853 51.1575C225.566 51.1575 227.06 49.9387 228 48.5112H228.138V50.6002H232.031V40.2226C232.031 35.4179 228.452 32.736 223.828 32.736ZM198.9 36.623H193.163V27.3451H198.9C201.915 27.3451 203.627 29.8459 203.627 31.984C203.627 34.0815 201.915 36.623 198.9 36.623ZM198.796 23.578H189.131V50.645H193.163V40.3901H198.796C203.266 40.3901 207.661 37.1483 207.661 31.984C207.661 26.8199 203.266 23.578 198.796 23.578ZM146.092 47.5757C143.306 47.5757 140.973 45.2389 140.973 42.0292C140.973 38.7858 143.306 36.4134 146.092 36.4134C148.844 36.4134 151.003 38.7857 151.003 42.0292C151.003 45.2389 148.844 47.5757 146.093 47.5757H146.092ZM150.724 34.8437H150.585C149.68 33.7626 147.937 32.786 145.744 32.786C141.147 32.786 136.933 36.832 136.933 42.0292C136.933 47.1918 141.147 51.2032 145.744 51.2032C147.937 51.2032 149.68 50.2263 150.585 49.1107H150.724V50.4361C150.724 53.9597 148.844 55.8431 145.814 55.8431C143.341 55.8431 141.809 54.0636 141.181 52.564L137.665 54.0289C138.675 56.4706 141.356 59.4706 145.814 59.4706C150.55 59.4706 154.555 56.6795 154.555 49.8779V33.3441H150.724V34.8437ZM157.341 50.645H161.38V23.577H157.341V50.645ZM167.336 41.7155C167.231 38.1572 170.087 36.3439 172.141 36.3439C173.744 36.3439 175.102 37.1457 175.554 38.2978L167.336 41.7155ZM179.873 38.6461C179.107 36.5875 176.773 32.786 172.002 32.786C167.266 32.786 163.331 36.5182 163.331 41.9945C163.331 47.1572 167.231 51.2032 172.455 51.2032C176.669 51.2032 179.107 48.6219 180.117 47.1222L176.983 45.029C175.938 46.5641 174.51 47.5757 172.455 47.5757C170.4 47.5757 168.938 46.6336 167.997 44.7854L180.29 39.6923L179.873 38.6461ZM81.9318 35.6115V39.5181H91.2648C90.9862 41.7155 90.2548 43.3199 89.1403 44.4362C87.7825 45.797 85.6581 47.2966 81.9317 47.2966C76.1854 47.2966 71.6934 42.6575 71.6934 36.9021C71.6934 31.1467 76.1855 26.507 81.9318 26.507C85.0315 26.507 87.2945 27.7281 88.9663 29.2978L91.7175 26.5424C89.3844 24.3095 86.2846 22.6004 81.9318 22.6004C74.061 22.6004 67.4443 29.0188 67.4443 36.9021C67.4443 44.7854 74.061 51.2032 81.9318 51.2032C86.1808 51.2032 89.3844 49.8086 91.8914 47.1918C94.4686 44.6105 95.2699 40.983 95.2699 38.0533C95.2699 37.1457 95.2006 36.3093 95.0604 35.6115H81.9318ZM105.881 47.5757C103.094 47.5757 100.691 45.2734 100.691 41.9945C100.691 38.6807 103.094 36.4134 105.881 36.4134C108.666 36.4134 111.069 38.6807 111.069 41.9945C111.069 45.2735 108.666 47.5757 105.881 47.5757ZM105.881 32.786C100.796 32.786 96.6512 36.6576 96.6512 41.9945C96.6512 47.2966 100.796 51.2032 105.881 51.2032C110.965 51.2032 115.109 47.2966 115.109 41.9945C115.109 36.6576 110.965 32.786 105.881 32.786ZM126.013 47.5757C123.227 47.5757 120.824 45.2734 120.824 41.9945C120.824 38.6807 123.227 36.4134 126.013 36.4134C128.798 36.4134 131.201 38.6807 131.201 41.9945C131.201 45.2735 128.798 47.5757 126.013 47.5757H126.013ZM126.013 32.786C120.928 32.786 116.784 36.6576 116.784 41.9945C116.784 47.2966 120.928 51.2032 126.013 51.2032C131.097 51.2032 135.241 47.2966 135.241 41.9945C135.241 36.6576 131.097 32.786 126.013 32.786H126.013Z" fill="white"/>
<path d="M1.44165 2.16965C0.716221 2.82521 0.283203 3.91865 0.283203 5.37008V5.04196V52.9376V52.6221C0.283203 53.9625 0.654626 54.9977 1.28362 55.6643L1.44418 55.8183V55.819C1.95329 56.2791 2.60612 56.5235 3.35432 56.5227C4.08539 56.5227 4.90793 56.2892 5.77601 55.7963L37.1529 37.9396L47.9307 31.8053C49.2995 31.0264 50.068 30.0216 50.1964 28.9982V28.994C50.068 27.9682 49.2995 26.9641 47.9308 26.1852L37.1521 20.0516L5.7761 2.19495C4.90618 1.70111 4.08305 1.4668 3.35004 1.4668C2.60272 1.4668 1.95076 1.71036 1.44184 2.16965H1.44165Z" fill="#00C1FF"/>
<path d="M1.44427 55.8184L1.28362 55.6644C0.654625 54.9979 0.283203 53.9626 0.283203 52.6222V52.9377V5.05391V5.37016C0.283203 3.91872 0.716221 2.82528 1.44165 2.16972L28.2242 28.9949L1.44427 55.8184Z" fill="url(#paint0_linear_1325_220)"/>
<path d="M37.1531 37.9399L28.2244 28.9953L37.1523 20.052L47.9309 26.1855C49.2997 26.9646 50.0681 27.9685 50.1966 28.9944V28.9985C50.0681 30.0219 49.2997 31.0268 47.9309 31.8056L37.1532 37.9398" fill="url(#paint1_linear_1325_220)"/>
<path d="M3.35453 56.5229C2.60643 56.5236 1.95359 56.2792 1.44458 55.8191V55.8184L28.2245 28.995L37.1533 37.9397L5.77622 55.7965C4.90814 56.2895 4.0856 56.5229 3.35453 56.5229Z" fill="url(#paint2_linear_1325_220)"/>
<path d="M28.2246 28.9951L1.44189 2.16992C1.95101 1.71063 2.60297 1.46707 3.35019 1.46707C4.0832 1.46707 4.90642 1.70129 5.77626 2.19522L37.1524 20.0519L28.2245 28.9951" fill="url(#paint3_linear_1325_220)"/>
<path d="M3.35532 56.8403C2.60722 56.8403 1.95351 56.5959 1.4444 56.1358L1.44352 56.1366C1.44142 56.1345 1.43918 56.1325 1.43681 56.1308L1.29756 55.9945C1.29318 55.9903 1.28909 55.9853 1.28394 55.9803L1.44449 55.8195C1.9536 56.2796 2.60634 56.524 3.35464 56.5231C4.08561 56.5231 4.90815 56.2898 5.77623 55.7967L37.1532 37.94L37.3542 38.1415L37.1506 38.2573L5.77613 56.113C4.98502 56.5621 4.23254 56.7963 3.55285 56.8354C3.48705 56.8386 3.42119 56.8402 3.35532 56.8402" fill="url(#paint4_linear_1325_220)"/>
<path d="M1.28362 55.9805C0.654625 55.3139 0.283203 54.2795 0.283203 52.9383V52.6228C0.283203 53.9632 0.654625 54.9983 1.28362 55.665L1.44418 55.8189L1.28362 55.9805Z" fill="url(#paint5_linear_1325_220)"/>
<path d="M37.3541 38.141L37.1531 37.9396L47.9308 31.8053C49.2997 31.0266 50.0681 30.0217 50.1965 28.9982C50.1965 29.3738 50.1129 29.7493 49.9467 30.1148C49.6113 30.8514 48.9393 31.5475 47.9309 32.1217L37.3541 38.1411" fill="url(#paint6_linear_1325_220)"/>
<path d="M50.1967 28.9946C50.0682 27.9687 49.2998 26.9648 47.9311 26.1858L37.1523 20.0523L37.3534 19.8509H37.3543L47.9311 25.8703C49.4401 26.7296 50.1958 27.862 50.1967 28.9946Z" fill="url(#paint7_linear_1325_220)"/>
<path d="M0.283203 5.37061V5.03976C0.283203 4.92046 0.286414 4.80379 0.292545 4.69052V4.68537C0.292545 4.68381 0.292545 4.68216 0.293128 4.6804V4.66766C0.358227 3.51311 0.716221 2.61253 1.28362 2.01117L1.44165 2.17007C0.716221 2.82573 0.283203 3.91917 0.283203 5.37061Z" fill="url(#paint8_linear_1325_220)"/>
<path d="M37.1523 20.0522L5.77623 2.19538C4.9064 1.70154 4.08327 1.46733 3.35026 1.46733C2.60294 1.46733 1.95098 1.71088 1.44196 2.17018L1.28394 2.01118C1.33329 1.95885 1.38457 1.90837 1.43768 1.85986C1.43934 1.85811 1.44196 1.85636 1.44362 1.8547C1.94864 1.39892 2.59369 1.15536 3.3343 1.15098H3.35026C4.08327 1.15098 4.9064 1.38529 5.77623 1.87932L37.3542 19.8501L37.3533 19.8508L37.1523 20.0522Z" fill="url(#paint9_linear_1325_220)"/>
</g>
<defs>
<linearGradient id="paint0_linear_1325_220" x1="17.3989" y1="4.54782" x2="-5.68169" y2="27.6655" gradientUnits="userSpaceOnUse">
<stop stop-color="#00A0FF"/>
<stop offset="0.00657" stop-color="#00A1FF"/>
<stop offset="0.2601" stop-color="#00BEFF"/>
<stop offset="0.5122" stop-color="#00D2FF"/>
<stop offset="0.7604" stop-color="#00DFFF"/>
<stop offset="1" stop-color="#00E3FF"/>
</linearGradient>
<linearGradient id="paint1_linear_1325_220" x1="51.8643" y1="28.8407" x2="-0.441449" y2="28.8407" gradientUnits="userSpaceOnUse">
<stop stop-color="#FFE000"/>
<stop offset="0.4087" stop-color="#FFBD00"/>
<stop offset="0.7754" stop-color="#FFA500"/>
<stop offset="1" stop-color="#FF9C00"/>
</linearGradient>
<linearGradient id="paint2_linear_1325_220" x1="32.4129" y1="37.4993" x2="-6.69888" y2="76.3879" gradientUnits="userSpaceOnUse">
<stop stop-color="#FF3A44"/>
<stop offset="1" stop-color="#C31162"/>
</linearGradient>
<linearGradient id="paint3_linear_1325_220" x1="-5.46075" y1="-1.80705" x2="11.9705" y2="15.5514" gradientUnits="userSpaceOnUse">
<stop stop-color="#32A071"/>
<stop offset="0.0685" stop-color="#2DA771"/>
<stop offset="0.4762" stop-color="#15CF74"/>
<stop offset="0.8009" stop-color="#06E775"/>
<stop offset="1" stop-color="#00F076"/>
</linearGradient>
<linearGradient id="paint4_linear_1325_220" x1="32.3934" y1="43.7041" x2="1.07071" y2="75.0774" gradientUnits="userSpaceOnUse">
<stop stop-color="#CC2E36"/>
<stop offset="1" stop-color="#9C0E4E"/>
</linearGradient>
<linearGradient id="paint5_linear_1325_220" x1="3.85104" y1="4.54833" x2="-16.4826" y2="24.9151" gradientUnits="userSpaceOnUse">
<stop stop-color="#008DE0"/>
<stop offset="0.00657" stop-color="#008DE0"/>
<stop offset="0.2601" stop-color="#00A7E0"/>
<stop offset="0.5122" stop-color="#00B8E0"/>
<stop offset="0.7604" stop-color="#00C4E0"/>
<stop offset="1" stop-color="#00C7E0"/>
</linearGradient>
<linearGradient id="paint6_linear_1325_220" x1="51.8643" y1="28.9962" x2="-0.441502" y2="28.9962" gradientUnits="userSpaceOnUse">
<stop stop-color="#E0C500"/>
<stop offset="0.4087" stop-color="#E0A600"/>
<stop offset="0.7754" stop-color="#E09100"/>
<stop offset="1" stop-color="#E08900"/>
</linearGradient>
<linearGradient id="paint7_linear_1325_220" x1="51.8644" y1="28.9968" x2="-0.441197" y2="28.9968" gradientUnits="userSpaceOnUse">
<stop stop-color="#FFE840"/>
<stop offset="0.4087" stop-color="#FFCE40"/>
<stop offset="0.7754" stop-color="#FFBC40"/>
<stop offset="1" stop-color="#FFB540"/>
</linearGradient>
<linearGradient id="paint8_linear_1325_220" x1="3.82897" y1="4.58505" x2="-15.7559" y2="23.3518" gradientUnits="userSpaceOnUse">
<stop stop-color="#40B8FF"/>
<stop offset="0.00657" stop-color="#40B9FF"/>
<stop offset="0.2601" stop-color="#40CEFF"/>
<stop offset="0.5122" stop-color="#40DDFF"/>
<stop offset="0.7604" stop-color="#40E7FF"/>
<stop offset="1" stop-color="#40EAFF"/>
</linearGradient>
<linearGradient id="paint9_linear_1325_220" x1="-5.4998" y1="3.86623" x2="8.48716" y2="17.8759" gradientUnits="userSpaceOnUse">
<stop stop-color="#65B895"/>
<stop offset="0.0685" stop-color="#62BD95"/>
<stop offset="0.4762" stop-color="#50DB97"/>
<stop offset="0.8009" stop-color="#44ED98"/>
<stop offset="1" stop-color="#40F498"/>
</linearGradient>
</defs>
</svg>
