<svg width="21" height="21" viewBox="0 0 21 21" fill="none" xmlns="http://www.w3.org/2000/svg">
<g clip-path="url(#clip0_1907_937)">
<path d="M5.99844 -0.299988C2.52534 -0.299988 -0.299805 2.52777 -0.299805 6.00177V15.0018C-0.299805 18.4749 2.52795 21.3 6.00195 21.3H15.002C18.4751 21.3 21.3002 18.4723 21.3002 14.9983V5.99825C21.3002 2.52515 18.4724 -0.299988 14.9984 -0.299988H5.99844ZM16.8002 3.30001C17.297 3.30001 17.7002 3.70321 17.7002 4.20001C17.7002 4.69681 17.297 5.10001 16.8002 5.10001C16.3034 5.10001 15.9002 4.69681 15.9002 4.20001C15.9002 3.70321 16.3034 3.30001 16.8002 3.30001ZM10.5002 5.10001C13.4783 5.10001 15.9002 7.52191 15.9002 10.5C15.9002 13.4781 13.4783 15.9 10.5002 15.9C7.5221 15.9 5.1002 13.4781 5.1002 10.5C5.1002 7.52191 7.5221 5.10001 10.5002 5.10001ZM10.5002 6.90001C9.54542 6.90001 8.62974 7.2793 7.95461 7.95443C7.27948 8.62956 6.9002 9.54523 6.9002 10.5C6.9002 11.4548 7.27948 12.3705 7.95461 13.0456C8.62974 13.7207 9.54542 14.1 10.5002 14.1C11.455 14.1 12.3706 13.7207 13.0458 13.0456C13.7209 12.3705 14.1002 11.4548 14.1002 10.5C14.1002 9.54523 13.7209 8.62956 13.0458 7.95443C12.3706 7.2793 11.455 6.90001 10.5002 6.90001Z" fill="#1FE5D3"/>
</g>
<defs>
<clipPath id="clip0_1907_937">
<rect width="21" height="21" fill="white"/>
</clipPath>
</defs>
</svg>
