<svg width="26" height="22" viewBox="0 0 26 22" fill="none" xmlns="http://www.w3.org/2000/svg">
<path d="M11.1758 21.8032C8.12507 21.8032 5.07436 21.7931 2.02365 21.8032C1.64105 21.8136 1.26763 21.685 0.972477 21.4413C0.677326 21.1977 0.480423 20.8553 0.418199 20.4777C0.406714 20.3984 0.401077 20.3183 0.401334 20.2382V1.80579C0.396311 1.60004 0.432907 1.3954 0.508927 1.20415C0.584946 1.0129 0.698819 0.838967 0.843717 0.69281C0.988614 0.546652 1.16155 0.431276 1.35214 0.353604C1.54273 0.275932 1.74705 0.237567 1.95283 0.240808C2.92926 0.232376 3.90568 0.240808 4.88211 0.240808C10.0538 0.240808 15.2198 0.240808 20.3802 0.240808C20.7217 0.231384 21.0571 0.333651 21.3352 0.53209C21.6134 0.730528 21.8193 1.0143 21.9215 1.34034C21.9634 1.48861 21.9861 1.64164 21.989 1.79567C21.989 7.94993 21.989 14.1036 21.989 20.2567C21.994 20.4612 21.9577 20.6645 21.8822 20.8545C21.8067 21.0445 21.6935 21.2173 21.5496 21.3626C21.4056 21.5078 21.2338 21.6224 21.0444 21.6996C20.8551 21.7767 20.6521 21.8149 20.4476 21.8116C19.2958 21.82 18.144 21.8116 16.9922 21.8116L11.1758 21.8032ZM11.9144 9.64083C11.9144 9.26307 11.9144 8.887 11.9144 8.51094C11.9144 8.3423 11.8554 8.29339 11.6918 8.29508C10.8081 8.29508 9.92615 8.29508 9.04416 8.29508C8.77771 8.29508 8.77771 8.29507 8.77771 8.55984C8.77771 11.8382 8.77771 15.1171 8.77771 18.3966C8.77771 18.6041 8.84516 18.6597 9.04416 18.6563C9.95313 18.6479 10.8621 18.6563 11.7711 18.6563C12.0392 18.6563 12.0409 18.6563 12.0409 18.3899C12.0409 16.7406 12.0409 15.0913 12.0409 13.442C12.0393 13.0995 12.0675 12.7576 12.1252 12.42C12.25 11.732 12.562 11.167 13.3057 10.9815C13.5413 10.9281 13.7827 10.9048 14.0241 10.9124C14.7914 10.9208 15.272 11.2817 15.4424 12.0305C15.5306 12.4434 15.5753 12.8645 15.5756 13.2868C15.5891 14.9834 15.5756 16.6799 15.5756 18.3764C15.5756 18.653 15.5756 18.6563 15.8589 18.6563C16.7611 18.6563 17.6634 18.6563 18.5572 18.6563C18.7562 18.6563 18.8219 18.6058 18.8202 18.3966C18.8202 16.4303 18.8354 14.4639 18.8051 12.4942C18.7915 11.837 18.709 11.183 18.5589 10.5431C18.2975 9.39798 17.6296 8.56153 16.4576 8.23268C16.047 8.13806 15.6298 8.07492 15.2097 8.0438C14.483 7.9638 13.7502 8.12435 13.1236 8.50082C12.6429 8.789 12.2304 9.17793 11.9144 9.64083ZM3.56503 13.4825C3.56503 15.125 3.56503 16.7676 3.56503 18.4101C3.56503 18.6074 3.62743 18.6614 3.81799 18.6597C4.73989 18.653 5.66179 18.653 6.58369 18.6597C6.76077 18.6597 6.8316 18.6142 6.8316 18.4202C6.8316 15.1239 6.8316 11.8264 6.8316 8.5278C6.8316 8.33386 6.76245 8.29339 6.58538 8.29508C5.66966 8.29508 4.75394 8.29508 3.83823 8.29508C3.57009 8.29508 3.57009 8.29508 3.57009 8.57333L3.56503 13.4825ZM5.19747 6.91391C5.4432 6.91593 5.68689 6.86909 5.91438 6.77613C6.14186 6.68318 6.34861 6.54595 6.52261 6.37242C6.69662 6.19889 6.8344 5.99251 6.92798 5.76528C7.02155 5.53805 7.06904 5.29449 7.06769 5.04875C7.06902 4.80222 7.02165 4.55785 6.92828 4.32968C6.83491 4.10151 6.69739 3.89404 6.52361 3.71916C6.34983 3.54429 6.14322 3.40546 5.91564 3.31066C5.68807 3.21585 5.444 3.16694 5.19747 3.16672C4.94986 3.16488 4.70439 3.21263 4.47553 3.30715C4.24667 3.40167 4.03905 3.54105 3.86491 3.71708C3.69077 3.89311 3.55363 4.10222 3.46158 4.33209C3.36952 4.56195 3.32443 4.80792 3.32893 5.05549C3.32848 5.30052 3.37657 5.54322 3.47044 5.76956C3.56431 5.9959 3.70209 6.2014 3.87583 6.37419C4.04956 6.54698 4.2558 6.68364 4.48265 6.77628C4.70949 6.86892 4.95244 6.91569 5.19747 6.91391Z" fill="#1FE5D3"/>
<path d="M24.4882 19.061C24.6802 19.0567 24.8712 19.0911 25.0496 19.1622C25.2281 19.2333 25.3904 19.3396 25.5269 19.4749C25.6633 19.6101 25.7712 19.7714 25.8439 19.9492C25.9167 20.1269 25.9528 20.3176 25.9503 20.5096C25.9496 20.7015 25.9111 20.8913 25.8368 21.0682C25.7625 21.245 25.654 21.4055 25.5175 21.5403C25.381 21.6751 25.2192 21.7815 25.0414 21.8536C24.8636 21.9256 24.6733 21.9617 24.4814 21.96C24.0976 21.9586 23.7298 21.8059 23.458 21.535C23.1861 21.2641 23.0321 20.8968 23.0294 20.513C23.0267 20.321 23.0626 20.1304 23.135 19.9526C23.2074 19.7747 23.3149 19.6133 23.451 19.4778C23.5871 19.3423 23.7491 19.2356 23.9272 19.164C24.1054 19.0924 24.2962 19.0574 24.4882 19.061ZM23.1627 20.5063C23.1631 20.8564 23.3013 21.1923 23.5475 21.4413C23.7937 21.6903 24.1279 21.8324 24.4781 21.8369C24.832 21.8373 25.1718 21.6976 25.423 21.4482C25.6742 21.1989 25.8165 20.8602 25.8188 20.5063C25.8158 20.1557 25.6765 19.8201 25.4303 19.5705C25.1841 19.3208 24.8505 19.1768 24.5 19.169C24.1463 19.172 23.8079 19.3139 23.5578 19.5641C23.3076 19.8142 23.1658 20.1526 23.1627 20.5063Z" fill="#1FE5D3"/>
<path d="M24.6707 20.6059C24.814 20.8268 24.9456 21.0275 25.0754 21.2298L25.0383 21.2838C24.9674 21.2552 24.9018 21.2147 24.8444 21.1641C24.7404 21.0235 24.6463 20.8759 24.5628 20.7222C24.5517 20.694 24.535 20.6683 24.5138 20.6466C24.4926 20.6248 24.4673 20.6076 24.4393 20.5958C24.4113 20.584 24.3813 20.5779 24.351 20.5779C24.3206 20.5779 24.2906 20.584 24.2626 20.5958C24.2103 20.6194 24.1867 20.7425 24.1766 20.8217C24.1614 20.9347 24.1766 21.0511 24.1766 21.159C24.1766 21.1944 24.1294 21.2248 24.1041 21.2585C24.0703 21.2282 24.0063 21.1978 24.0046 21.1658C23.9978 20.7284 23.9978 20.2916 24.0046 19.8554C24.0046 19.8166 24.0889 19.7526 24.1361 19.7492C24.3305 19.7382 24.5253 19.7382 24.7196 19.7492C24.8187 19.7473 24.9147 19.7841 24.9871 19.8518C25.0595 19.9195 25.1027 20.0127 25.1075 20.1118C25.1178 20.2062 25.0944 20.3012 25.0413 20.3799C24.9881 20.4587 24.9088 20.516 24.8174 20.5418L24.6707 20.6059ZM24.1732 19.8908C24.1732 20.0595 24.1648 20.1944 24.1732 20.3259C24.1784 20.3514 24.1899 20.3751 24.2067 20.3948C24.2235 20.4146 24.2451 20.4297 24.2693 20.4389C24.3959 20.4541 24.5239 20.4541 24.6505 20.4389C24.6876 20.4369 24.7239 20.4268 24.7568 20.4093C24.7897 20.3918 24.8184 20.3674 24.8408 20.3377C24.8633 20.308 24.879 20.2737 24.8869 20.2373C24.8948 20.201 24.8947 20.1633 24.8866 20.1269C24.8697 19.9583 24.7618 19.901 24.6117 19.8976C24.4616 19.8942 24.3385 19.8908 24.1732 19.8908Z" fill="#1FE5D3"/>
</svg>
