<svg width="43" height="43" viewBox="0 0 43 43" fill="none" xmlns="http://www.w3.org/2000/svg">
<path d="M42.517 16.9713H34.7701C33.8192 14.1853 32.0101 11.7643 29.5971 10.0484C27.184 8.33262 24.2883 7.4083 21.3169 7.40539C18.3456 7.4083 15.4499 8.33262 13.0368 10.0484C10.6237 11.7643 8.81463 14.1853 7.8638 16.9713H0.130371C0.70971 14.2677 1.81682 11.7021 3.38959 9.41838C5.3746 6.51905 8.04788 4.14581 11.1752 2.50667C14.3025 0.867532 17.7883 0.0125348 21.3271 0.0166161C26.2867 0.0147561 31.0968 1.69735 34.9535 4.78325C38.8103 7.86916 41.4802 12.1715 42.517 16.9713Z" fill="white"/>
<path d="M42.5169 25.45C41.6574 30.1951 39.0597 34.499 35.1826 37.6014C31.3055 40.7038 26.3985 42.4051 21.3286 42.4046C17.8165 42.4085 14.3569 41.5942 11.2531 40.0331C8.1494 38.472 5.49622 36.2117 3.52615 33.4504C1.80229 31.0461 0.644048 28.3174 0.130249 25.45H7.70806C8.51358 28.2939 10.2833 30.8065 12.7436 32.5992C15.2039 34.3919 18.2175 35.3649 21.3186 35.3676C24.4196 35.3649 27.4333 34.3919 29.8935 32.5992C32.3538 30.8065 34.1235 28.2939 34.9291 25.45H42.5169Z" fill="#21E7D6"/>
</svg>
