<svg width="727" height="162" viewBox="0 0 727 162" fill="none" xmlns="http://www.w3.org/2000/svg">
<path d="M193.159 54.1556V120.94H170.206V54.1556C170.204 45.9175 166.929 38.0177 161.103 32.1934C155.277 26.3691 147.376 23.0972 139.138 23.0972C130.901 23.0972 123.001 26.3694 117.177 32.194C111.352 38.0186 108.08 45.9184 108.08 54.1556V120.94H85.1176V54.1556C85.1176 45.9184 81.8454 38.0186 76.0208 32.194C70.1962 26.3694 62.2964 23.0972 54.0592 23.0972C49.9797 23.0959 45.94 23.8984 42.1707 25.4586C38.4015 27.0189 34.9765 29.3064 32.0914 32.1906C29.2064 35.0748 26.9178 38.4991 25.3564 42.2678C23.7949 46.0366 22.9913 50.0761 22.9913 54.1556V120.94H8.54037e-07V54.1556C-0.00126072 47.0611 1.39518 40.0359 4.10953 33.4812C6.82388 26.9265 10.8029 20.9708 15.8195 15.9543C20.836 10.9377 26.7917 6.95862 33.3464 4.24426C39.9011 1.52991 46.9263 0.133528 54.0208 0.13479C62.2212 0.127668 70.3152 1.99053 77.6874 5.58177C85.0596 9.17301 91.5159 14.398 96.5652 20.8595C101.612 14.3977 108.066 9.1723 115.437 5.58095C122.808 1.9896 130.901 0.126989 139.1 0.13479C146.198 0.12848 153.227 1.52115 159.786 4.23324C166.345 6.94533 172.305 10.9236 177.326 15.9407C182.347 20.9577 186.329 26.9152 189.046 33.4724C191.763 40.0295 193.16 47.0579 193.159 54.1556Z" fill="white"/>
<path d="M553.845 4.13916H579.42L529.173 120.901H498.297L448.051 4.13916H473.625L513.74 97.3335L553.845 4.13916Z" fill="white"/>
<path d="M727 4.13916L677.829 118.049L666.113 145.179L659.217 161.15H633.623L651.947 118.711L595.343 4.13916H621.551L664.173 90.3996L701.406 4.13916H727Z" fill="white"/>
<path d="M339.423 71.8838C337.954 80.5166 334.643 88.7317 329.714 95.9699C324.081 104.283 316.496 111.088 307.622 115.788C298.748 120.488 288.856 122.939 278.815 122.927C264.319 122.929 250.289 117.807 239.204 108.467C228.119 99.1269 220.692 86.1694 218.234 71.8838H239.9C242.203 80.4456 247.263 88.0101 254.298 93.4073C261.332 98.8045 269.948 101.734 278.815 101.742C287.681 101.734 296.297 98.8045 303.331 93.4073C310.366 88.0101 315.426 80.4456 317.729 71.8838H339.423Z" fill="white"/>
<path d="M440.704 48.614H418.721C416.023 40.6258 410.889 33.6839 404.042 28.7642C397.195 23.8444 388.978 21.1941 380.546 21.1858C372.115 21.1941 363.898 23.8444 357.051 28.7642C350.203 33.6839 345.07 40.6258 342.372 48.614H320.427C322.071 40.8621 325.213 33.5057 329.676 26.9576C335.308 18.6444 342.894 11.8396 351.768 7.13974C360.642 2.43986 370.533 -0.0116605 380.575 4.16989e-05C394.649 -0.00529148 408.298 4.81918 419.242 13.6674C430.186 22.5156 437.762 34.8515 440.704 48.614Z" fill="white"/>
<path d="M339.01 48.614H317.018C314.32 40.6258 309.186 33.6839 302.339 28.7642C295.492 23.8444 287.275 21.1941 278.843 21.1858C270.412 21.1941 262.195 23.8444 255.347 28.7642C248.5 33.6839 243.367 40.6258 240.669 48.614H218.724C221.666 34.8531 229.241 22.5184 240.183 13.6704C251.125 4.82241 264.771 -0.00309228 278.843 4.16989e-05C288.885 -0.0116605 298.776 2.43986 307.65 7.13974C316.524 11.8396 324.11 18.6444 329.743 26.9576C334.213 33.5042 337.361 40.8607 339.01 48.614Z" fill="#21E7D6"/>
<path d="M441.165 71.8838C438.708 86.1694 431.28 99.1269 420.195 108.467C409.11 117.807 395.08 122.929 380.585 122.927C370.543 122.939 360.652 120.488 351.778 115.788C342.904 111.088 335.318 104.283 329.685 95.9699C324.757 88.7317 321.445 80.5166 319.976 71.8838H341.642C343.945 80.4456 349.005 88.0101 356.039 93.4073C363.074 98.8045 371.69 101.734 380.556 101.742C389.422 101.734 398.039 98.8045 405.073 93.4073C412.107 88.0101 417.167 80.4456 419.47 71.8838H441.165Z" fill="#21E7D6"/>
<path d="M8.61569 149.919H3.15527V146.028H8.15793V144.687H3.15527V141.221H8.61569V139.848H1.6839V151.292H8.61569V149.919ZM18.7017 146.338C18.7017 143.853 17.6718 142.823 15.2522 142.823C14.0751 142.823 12.9797 143.183 12.3094 144.229H12.2767V142.954H10.8871V151.292H12.2767V147.434C12.2767 145.341 13.0942 144.066 15.007 144.066C16.8053 144.066 17.3284 144.753 17.3284 146.976V151.292H18.7017V146.338ZM27.6915 144.18H27.6588C27.1357 143.314 26.0894 142.823 24.8469 142.823C21.9859 142.823 20.6616 144.524 20.6616 147.025C20.6616 149.51 21.8224 151.423 24.6343 151.423C25.9422 151.423 27.0703 150.932 27.7242 150.017H27.7569V151.292H29.0811V139.031H27.6915V144.18ZM24.9123 144.066C26.7923 144.066 27.6915 145.325 27.6915 147.139C27.6915 149.036 26.8087 150.18 24.9286 150.18C23.0812 150.18 22.1494 149.069 22.1494 147.09C22.1494 145.129 22.9995 144.066 24.9123 144.066ZM35.4015 150.18C33.7013 150.18 32.6386 149.232 32.6386 147.123C32.6386 145.047 33.6359 144.066 35.4015 144.066C37.3797 144.066 38.1644 145.047 38.1644 147.123C38.1644 149.216 37.2489 150.18 35.4015 150.18ZM35.4015 151.423C38.1317 151.423 39.6521 149.804 39.6521 147.123C39.6521 144.311 38.2625 142.823 35.4015 142.823C32.6059 142.823 31.1509 144.393 31.1509 147.123C31.1509 149.919 32.5405 151.423 35.4015 151.423ZM43.1219 147.499C43.1219 145.308 43.6777 144.099 45.6395 144.099C45.9175 144.099 46.2117 144.131 46.5551 144.246V142.938C46.2444 142.872 45.7376 142.823 45.4924 142.823C44.3153 142.823 43.5469 143.298 43.0401 144.393H43.0074V142.954H41.7322V151.292H43.1219V147.499ZM47.7112 150.965C48.2507 151.21 48.921 151.423 49.9673 151.423C51.7984 151.423 53.2207 150.671 53.2207 148.921C53.2207 145.897 49.1008 146.731 49.1008 145.047C49.1008 144.328 49.8365 144.066 50.752 144.066C51.5368 144.066 52.2398 144.197 52.7466 144.393V143.085C52.5504 143.003 51.7984 142.823 50.7684 142.823C48.7575 142.823 47.6131 143.772 47.6131 145.161C47.6131 147.908 51.733 147.205 51.733 148.905C51.733 149.772 51.0954 150.18 50.0327 150.18C49.5096 150.18 48.7085 150.115 47.7112 149.608V150.965ZM62.0723 149.592C61.4837 149.919 60.8134 150.18 59.5219 150.18C57.2985 150.18 56.3339 149.314 56.1868 147.466H62.7753V147.025C62.7753 144.54 61.7616 142.823 58.8026 142.823C56.2195 142.823 54.7318 144.475 54.7318 147.09C54.7318 149.886 56.1704 151.423 59.4238 151.423C60.6663 151.423 61.5655 151.178 62.0723 150.867V149.592ZM56.2031 146.322C56.383 144.818 57.2821 144.066 58.868 144.066C60.5846 144.066 61.3202 144.965 61.2712 146.322H56.2031ZM71.277 144.18H71.2443C70.7212 143.314 69.6749 142.823 68.4324 142.823C65.5714 142.823 64.2471 144.524 64.2471 147.025C64.2471 149.51 65.4079 151.423 68.2198 151.423C69.5277 151.423 70.6558 150.932 71.3097 150.017H71.3424V151.292H72.6666V139.031H71.277V144.18ZM68.4978 144.066C70.3778 144.066 71.277 145.325 71.277 147.139C71.277 149.036 70.3942 150.18 68.5141 150.18C66.6667 150.18 65.7349 149.069 65.7349 147.09C65.7349 145.129 66.585 144.066 68.4978 144.066ZM80.7504 150.033H80.7994C81.4534 151.014 82.5487 151.423 83.8566 151.423C86.7339 151.423 87.862 149.69 87.862 146.976C87.862 144.36 86.6685 142.823 84.0037 142.823C82.6795 142.823 81.5678 143.216 80.8648 144.18H80.8321V139.031H79.4425V151.292H80.7504V150.033ZM83.6441 150.18C81.7803 150.18 80.8321 148.889 80.8321 147.139C80.8321 145.129 81.9111 144.066 83.7912 144.066C85.4261 144.066 86.3743 144.981 86.3743 146.992C86.3743 149.281 85.4914 150.18 83.6441 150.18ZM89.474 154.676C89.7846 154.742 89.9971 154.791 90.5039 154.791C92.711 154.791 93.2668 153.139 93.9208 151.439L97.1415 142.954H95.7355L93.2341 149.902L90.226 142.954H88.7383L92.4821 151.554L92.3513 151.913C91.959 153.009 91.4358 153.548 90.3078 153.548C90.1279 153.548 89.8336 153.499 89.5884 153.417L89.474 154.676ZM104.583 141.221H106.921C108.621 141.221 109.308 141.581 109.308 142.905C109.308 143.951 108.671 144.785 106.66 144.785H104.583V141.221ZM104.583 146.028H106.692C108.638 146.028 109.553 146.616 109.553 148.055C109.553 149.494 108.671 149.919 106.905 149.919H104.583V146.028ZM106.938 151.292C110.24 151.292 111.139 149.755 111.139 147.908C111.139 146.6 110.256 145.472 108.605 145.341V145.308C110.076 144.998 110.812 144.148 110.812 142.742C110.812 140.845 109.88 139.848 107.117 139.848H103.112V151.292H106.938ZM115.344 141.221H117.682C119.382 141.221 120.069 141.581 120.069 142.905C120.069 143.951 119.431 144.785 117.42 144.785H115.344V141.221ZM115.344 146.028H117.453C119.398 146.028 120.314 146.616 120.314 148.055C120.314 149.494 119.431 149.919 117.666 149.919H115.344V146.028ZM117.698 151.292C121.001 151.292 121.9 149.755 121.9 147.908C121.9 146.6 121.017 145.472 119.366 145.341V145.308C120.837 144.998 121.573 144.148 121.573 142.742C121.573 140.845 120.641 139.848 117.878 139.848H113.873V151.292H117.698ZM124.176 150.736C125.009 151.178 125.99 151.455 127.249 151.455C129.636 151.455 131.271 150.262 131.271 148.104C131.271 146.6 130.715 145.668 128.541 144.883L128.083 144.72C126.072 144.017 125.696 143.51 125.696 142.611C125.696 141.565 126.513 141.058 127.952 141.058C128.72 141.058 129.636 141.172 130.552 141.565V140.159C130.208 139.946 129.391 139.685 128.034 139.685C125.614 139.685 124.127 140.764 124.127 142.611C124.127 144.377 125.042 145.112 126.808 145.766L127.233 145.913C128.982 146.518 129.685 146.894 129.685 148.202C129.685 149.396 128.884 150.082 127.167 150.082C125.876 150.082 124.748 149.657 124.176 149.281V150.736ZM137.261 150.18C135.56 150.18 134.498 149.232 134.498 147.123C134.498 145.047 135.495 144.066 137.261 144.066C139.239 144.066 140.024 145.047 140.024 147.123C140.024 149.216 139.108 150.18 137.261 150.18ZM137.261 151.423C139.991 151.423 141.511 149.804 141.511 147.123C141.511 144.311 140.122 142.823 137.261 142.823C134.465 142.823 133.01 144.393 133.01 147.123C133.01 149.919 134.4 151.423 137.261 151.423ZM148.153 142.954H145.651V142.12C145.651 140.502 145.995 140.142 147.303 140.142C147.679 140.142 148.006 140.191 148.136 140.24V138.998C147.679 138.932 147.368 138.9 147.041 138.9C144.85 138.9 144.262 140.077 144.262 141.826V142.954H142.512V144.197H144.262V151.292H145.651V144.197H148.153V142.954ZM154.891 142.954H152.357V140.698L150.967 141.189V142.954H149.218V144.197H150.967V149.003C150.967 150.622 151.866 151.423 153.648 151.423C154.139 151.423 154.564 151.341 154.924 151.161V149.951C154.58 150.131 154.221 150.18 153.845 150.18C152.684 150.18 152.357 149.723 152.357 148.693V144.197H154.891V142.954Z" fill="white"/>
</svg>
