<svg width="148" height="33" viewBox="0 0 148 33" fill="none" xmlns="http://www.w3.org/2000/svg">
<path d="M39.3226 11.0247V24.6204H34.65V11.0247C34.6495 9.34763 33.9829 7.73941 32.7968 6.55372C31.6108 5.36804 30.0024 4.70195 28.3253 4.70195C26.6484 4.70195 25.0402 5.3681 23.8544 6.55384C22.6687 7.73959 22.0025 9.34781 22.0025 11.0247V24.6204H17.3279V11.0247C17.3279 9.34781 16.6618 7.73959 15.476 6.55384C14.2903 5.3681 12.6821 4.70195 11.0052 4.70195C10.1747 4.7017 9.3523 4.86505 8.58497 5.18268C7.81763 5.50031 7.12039 5.966 6.53306 6.55315C5.94573 7.1403 5.47983 7.8374 5.16196 8.60464C4.84409 9.37188 4.68048 10.1942 4.68048 11.0247V24.6204H1.73862e-07V11.0247C-0.000256653 9.58044 0.284026 8.15027 0.836604 6.81589C1.38918 5.48151 2.19922 4.26907 3.22047 3.24782C4.24172 2.22657 5.45416 1.41652 6.78854 0.86394C8.12292 0.311362 9.55309 0.0270919 10.9974 0.0273487C12.6668 0.0258988 14.3145 0.405133 15.8153 1.13622C17.3161 1.86732 18.6305 2.93101 19.6584 4.24642C20.6858 2.93094 21.9998 1.86717 23.5003 1.13606C25.0008 0.404944 26.6483 0.0257605 28.3175 0.0273487C29.7624 0.0260641 31.1934 0.309579 32.5287 0.861697C33.8639 1.41381 35.0773 2.2237 36.0994 3.24505C37.1215 4.26641 37.9322 5.4792 38.4853 6.81409C39.0384 8.14898 39.3229 9.57978 39.3226 11.0247Z" fill="white"/>
<path d="M112.75 0.842773H117.956L107.727 24.6127H101.442L91.2126 0.842773H96.419L104.585 19.8149L112.75 0.842773Z" fill="white"/>
<path d="M148 0.842773L137.99 24.032L135.605 29.5552L134.201 32.8065H128.991L132.721 24.1669L121.198 0.842773H126.533L135.21 18.4034L142.79 0.842773H148Z" fill="white"/>
<path d="M69.0985 14.6338C68.7994 16.3912 68.1253 18.0636 67.1219 19.5371C65.9752 21.2295 64.4309 22.6148 62.6244 23.5716C60.8178 24.5284 58.8042 25.0275 56.7599 25.0251C53.809 25.0254 50.9529 23.9827 48.6962 22.0813C46.4396 20.1798 44.9275 17.542 44.4272 14.6338H48.8379C49.3068 16.3768 50.3369 17.9167 51.7689 19.0155C53.2009 20.1142 54.955 20.7105 56.7599 20.7122C58.5649 20.7105 60.319 20.1142 61.751 19.0155C63.183 17.9167 64.2131 16.3768 64.6819 14.6338H69.0985Z" fill="white"/>
<path d="M89.7169 9.89665H85.2417C84.6925 8.27045 83.6474 6.85725 82.2535 5.85571C80.8595 4.85416 79.1867 4.31462 77.4703 4.31293C75.7538 4.31462 74.0811 4.85416 72.6871 5.85571C71.2931 6.85725 70.2481 8.27045 69.6988 9.89665H65.2314C65.5661 8.31855 66.2057 6.82097 67.1142 5.48794C68.2609 3.79556 69.8052 2.41027 71.6117 1.45348C73.4182 0.496699 75.4319 -0.00237381 77.4761 8.48892e-06C80.3412 -0.00107722 83.1198 0.981071 85.3477 2.78235C87.5757 4.58364 89.118 7.09494 89.7169 9.89665Z" fill="white"/>
<path d="M69.0145 9.89665H64.5374C63.9881 8.27045 62.9431 6.85725 61.5491 5.85571C60.1552 4.85416 58.4824 4.31462 56.7659 4.31293C55.0495 4.31462 53.3767 4.85416 51.9827 5.85571C50.5888 6.85725 49.5437 8.27045 48.9945 9.89665H44.5271C45.126 7.09527 46.668 4.58422 48.8956 2.78297C51.1231 0.981729 53.9012 -0.000629516 56.7659 8.48892e-06C58.8102 -0.00237381 60.8239 0.496699 62.6304 1.45348C64.4369 2.41027 65.9812 3.79556 67.1279 5.48794C68.0378 6.82066 68.6787 8.31826 69.0145 9.89665Z" fill="#21E7D6"/>
<path d="M89.8109 14.6338C89.3106 17.542 87.7986 20.1798 85.5419 22.0813C83.2852 23.9827 80.4291 25.0254 77.4782 25.0251C75.4339 25.0275 73.4203 24.5284 71.6137 23.5716C69.8072 22.6148 68.2629 21.2295 67.1162 19.5371C66.1129 18.0636 65.4387 16.3912 65.1396 14.6338H69.5503C70.0192 16.3768 71.0493 17.9167 72.4813 19.0155C73.9133 20.1142 75.6674 20.7105 77.4723 20.7122C79.2773 20.7105 81.0314 20.1142 82.4634 19.0155C83.8954 17.9167 84.9255 16.3768 85.3943 14.6338H89.8109Z" fill="#21E7D6"/>
</svg>
