<svg width="52" height="30" viewBox="0 0 52 30" fill="none" xmlns="http://www.w3.org/2000/svg">
<path d="M28.5714 17.8564C28.2251 19.7893 27.4444 21.6287 26.2824 23.2493C24.9544 25.1106 23.166 26.6342 21.0739 27.6864C18.9817 28.7387 16.6498 29.2876 14.2823 29.285C10.8649 29.2853 7.55728 28.1386 4.94385 26.0473C2.33043 23.9561 0.579363 21.055 0 17.8564H5.10794C5.65092 19.7734 6.84386 21.4671 8.50223 22.6755C10.1606 23.8839 12.192 24.5398 14.2823 24.5416C16.3726 24.5398 18.404 23.8839 20.0624 22.6755C21.7208 21.4671 22.9137 19.7734 23.4567 17.8564H28.5714Z" fill="#21E7D6"/>
<path d="M52 12.1424H46.8825C46.2544 10.2645 45.0593 8.63257 43.4653 7.47599C41.8712 6.31941 39.9583 5.69636 37.9955 5.6944C36.0327 5.69636 34.1198 6.31941 32.5258 7.47599C30.9318 8.63257 29.7367 10.2645 29.1086 12.1424H24C24.3827 10.3201 25.114 8.59066 26.153 7.05129C27.4643 5.09695 29.2302 3.49722 31.296 2.39234C33.3619 1.28745 35.6646 0.711126 38.0022 0.713877C41.2785 0.712623 44.4559 1.8468 47.0037 3.92691C49.5514 6.00701 51.3151 8.90705 52 12.1424Z" fill="#21E7D6"/>
<path d="M28 12.1424H22.8806C22.2526 10.2645 21.0576 8.63257 19.4637 7.47599C17.8698 6.31941 15.9571 5.69636 13.9944 5.6944C12.0317 5.69636 10.119 6.31941 8.52511 7.47599C6.9312 8.63257 5.73623 10.2645 5.10818 12.1424H0C0.684806 8.90743 2.44802 6.00769 4.99508 3.92762C7.54214 1.84756 10.7188 0.71314 13.9944 0.713877C16.3319 0.711126 18.6344 1.28745 20.7001 2.39234C22.7658 3.49722 24.5315 5.09695 25.8427 7.05129C26.8832 8.59031 27.616 10.3197 28 12.1424Z" fill="#21E7D6"/>
<path d="M52 17.8564C51.4322 21.055 49.7162 23.9561 47.155 26.0473C44.5939 28.1386 41.3524 29.2853 38.0033 29.285C35.6832 29.2876 33.3979 28.7387 31.3476 27.6864C29.2973 26.6342 27.5447 25.1106 26.2433 23.2493C25.1045 21.6287 24.3394 19.7893 24 17.8564H29.0058C29.5379 19.7734 30.707 21.4671 32.3322 22.6755C33.9574 23.8839 35.9482 24.5398 37.9967 24.5416C40.0452 24.5398 42.036 23.8839 43.6612 22.6755C45.2864 21.4671 46.4555 19.7734 46.9876 17.8564H52Z" fill="#21E7D6"/>
</svg>
