<svg width="27" height="31" viewBox="0 0 27 31" fill="none" xmlns="http://www.w3.org/2000/svg">
<path d="M13.0659 20.2598C13.0381 20.2928 13.0094 20.3249 12.979 20.3562H13.1528C13.1258 20.3249 13.0972 20.2928 13.0659 20.2598Z" fill="url(#paint0_linear_1680_1806)" stroke="url(#paint1_radial_1680_1806)" stroke-opacity="0.2" stroke-width="1.66622"/>
<path d="M24.9884 13.9944L23.3062 9.60397C23.0387 8.90684 22.5053 8.34442 21.8233 8.04026C21.1414 7.73609 20.3666 7.71506 19.6691 7.98178L16.5646 9.17214L14.7105 9.88635H14.7061C14.6171 9.9208 14.53 9.96025 14.4454 10.0045C14.3898 10.0341 14.336 10.0653 14.283 10.0984L14.223 10.1383C14.203 10.1514 14.183 10.1653 14.1639 10.18C14.1036 10.223 14.0456 10.2691 13.9902 10.3182C13.9667 10.3382 13.9441 10.359 13.9224 10.3799C13.8859 10.4138 13.8503 10.4494 13.8164 10.4859C13.7825 10.5224 13.7712 10.5345 13.7495 10.5597L13.713 10.6032C13.6956 10.624 13.6782 10.6457 13.6617 10.6675L13.6261 10.7144C13.564 10.7999 13.5074 10.8893 13.4567 10.982C13.4419 11.0081 13.4289 11.0341 13.4158 11.0602C13.4028 11.0863 13.3802 11.1332 13.3637 11.1714C13.3472 11.2096 13.3368 11.2331 13.3246 11.2644C13.3124 11.2957 13.2924 11.3513 13.2794 11.3912C13.2764 11.3986 13.2738 11.4062 13.2716 11.4138C13.2673 11.4269 13.2638 11.4399 13.2603 11.4529C13.2552 11.4675 13.2508 11.4822 13.2473 11.4972C13.2473 11.5077 13.2412 11.519 13.2386 11.5294C13.2299 11.5633 13.2221 11.5963 13.2134 11.631C13.2134 11.6458 13.2073 11.6606 13.2047 11.6762C13.1977 11.7092 13.1925 11.7423 13.1864 11.7762C13.1804 11.81 13.1751 11.8561 13.1708 11.8969C13.1656 11.9386 13.163 11.9838 13.1612 12.0229C13.1612 12.0394 13.1612 12.0551 13.1612 12.0716C13.1612 12.0881 13.1612 12.1176 13.1612 12.1411C13.1612 12.1645 13.1612 12.1984 13.1612 12.228C13.1751 12.6138 13.2808 12.9907 13.4697 13.3275C13.6585 13.6642 13.925 13.951 14.247 14.164C14.5689 14.377 14.9371 14.5102 15.3209 14.5523C15.7046 14.5944 16.0929 14.5443 16.4534 14.4062L18.2789 13.7094C18.8366 13.9984 19.3232 14.4073 19.7039 14.9069C20.0846 15.4064 20.3499 15.9841 20.4806 16.5984L20.5675 17.0181H18.4909L18.4119 16.7809C18.2634 16.3408 17.9805 15.9586 17.6031 15.6881C17.2256 15.4176 16.7727 15.2725 16.3083 15.2734C16.1778 15.2731 16.0475 15.2847 15.9191 15.3081C15.5272 15.3775 15.1614 15.5514 14.8602 15.8114C14.5589 16.0713 14.3334 16.4078 14.2074 16.7852L14.1274 17.0224H12.0109L11.9309 16.7852C11.7513 16.2472 11.3714 15.7992 10.87 15.534C10.8457 15.521 10.8214 15.508 10.7962 15.4967C10.6591 15.4303 10.5155 15.3782 10.3678 15.3411C9.82697 15.2058 9.25499 15.2792 8.76581 15.5466C8.27663 15.8141 7.90615 16.256 7.72818 16.7843L7.64911 17.0215H4.33349C3.89282 17.0215 3.45903 16.9123 3.07088 16.7037C2.68274 16.495 2.35232 16.1935 2.10917 15.826L1.91454 15.5306C1.88269 15.4823 1.83507 15.4467 1.77984 15.4297C1.7246 15.4127 1.66517 15.4154 1.61171 15.4373C1.55825 15.4593 1.51408 15.4991 1.48674 15.55C1.45941 15.601 1.45061 15.6598 1.46186 15.7165L2.68784 21.8273C2.78782 22.3196 3.04521 22.7661 3.42117 23.0993L4.05979 23.6658C4.29289 23.8727 4.48171 24.1246 4.61491 24.4064C4.7481 24.6882 4.82291 24.994 4.83482 25.3054L4.90955 27.2543C4.93274 27.8532 5.18761 28.4197 5.6204 28.8343C6.05319 29.249 6.63009 29.4793 7.22944 29.4769L16.9365 29.436C17.5475 29.4326 18.1323 29.1873 18.563 28.7539C18.9936 28.3204 19.2351 27.7341 19.2347 27.1231V23.7649C19.2348 23.2089 19.4353 22.6715 19.7994 22.2513L24.4835 16.8478C24.8182 16.4625 25.0419 15.9935 25.1308 15.4909C25.2198 14.9884 25.1705 14.4711 24.9884 13.9944ZM20.5084 18.2128C20.3748 19.001 20.022 19.7357 19.4903 20.3327C18.9586 20.9298 18.2695 21.365 17.5019 21.5887C16.7344 21.8124 15.9194 21.8154 15.1502 21.5974C14.381 21.3795 13.6887 20.9494 13.1526 20.3563H12.9788C12.4426 20.9488 11.7504 21.3785 10.9815 21.5962C10.2125 21.8138 9.39783 21.8106 8.63061 21.587C7.86338 21.3634 7.17458 20.9283 6.64299 20.3316C6.11141 19.7349 5.7585 19.0006 5.62463 18.2128L5.55512 17.807H7.61349L7.68213 18.0677C7.8088 18.539 8.08735 18.9553 8.47464 19.2523C8.86192 19.5492 9.33632 19.7101 9.82434 19.7101C10.3124 19.7101 10.7868 19.5492 11.174 19.2523C11.5613 18.9553 11.8399 18.539 11.9665 18.0677L12.0352 17.807H14.0918L14.1613 18.0677C14.2877 18.5391 14.5661 18.9557 14.9533 19.2528C15.3405 19.55 15.815 19.711 16.3031 19.711C16.7912 19.711 17.2656 19.55 17.6529 19.2528C18.0401 18.9557 18.3185 18.5391 18.4449 18.0677L18.5144 17.807H20.5727L20.5084 18.2128Z" fill="url(#paint2_linear_1680_1806)" stroke="url(#paint3_radial_1680_1806)" stroke-opacity="0.2" stroke-width="1.66622"/>
<path d="M13.1528 20.3562H12.979C13.0077 20.3249 13.0363 20.2928 13.0659 20.2598C13.0972 20.2928 13.1258 20.3249 13.1528 20.3562Z" fill="url(#paint4_linear_1680_1806)" stroke="url(#paint5_radial_1680_1806)" stroke-opacity="0.2" stroke-width="1.66622"/>
<path d="M20.8858 4.67358C20.8861 5.20225 20.6969 5.71351 20.3527 6.11478C20.0085 6.51605 19.532 6.78078 19.0095 6.86102C18.4869 6.94127 17.9529 6.83172 17.5042 6.55223C17.0554 6.27273 16.7216 5.84177 16.5632 5.3374L16.1027 3.87682C15.9265 3.31708 15.9799 2.71029 16.2511 2.18992C16.5224 1.66955 16.9892 1.27824 17.5489 1.10207C18.1087 0.925897 18.7155 0.979297 19.2358 1.25052C19.7562 1.52174 20.1475 1.98857 20.3237 2.54831L20.7833 4.00889C20.8512 4.22393 20.8857 4.44808 20.8858 4.67358Z" fill="url(#paint6_linear_1680_1806)" stroke="url(#paint7_radial_1680_1806)" stroke-opacity="0.2" stroke-width="1.66622"/>
<path d="M6.77162 12.8922C6.93995 13.4494 6.88187 14.0505 6.60997 14.5652C6.33808 15.0799 5.8743 15.4666 5.31915 15.6417C4.76401 15.8167 4.16225 15.7659 3.64433 15.5002C3.12641 15.2345 2.73407 14.7754 2.55237 14.2224L1.10222 9.62697C0.925932 9.06735 0.979176 8.46061 1.25024 7.94025C1.5213 7.41988 1.98797 7.0285 2.54759 6.85222C3.10721 6.67593 3.71395 6.72918 4.23431 7.00024C4.75468 7.2713 5.14606 7.73797 5.32234 8.29759L6.77162 12.8922Z" fill="url(#paint8_linear_1680_1806)" stroke="url(#paint9_radial_1680_1806)" stroke-opacity="0.2" stroke-width="1.66622"/>
<path d="M12.0237 11.7707C12.1876 12.2836 12.1587 12.8387 11.9426 13.3319C11.7265 13.8251 11.3379 14.2225 10.8497 14.4497C10.3615 14.6769 9.80717 14.7181 9.2907 14.5658C8.77422 14.4135 8.33104 14.078 8.04423 13.6223C7.94435 13.4661 7.86519 13.2976 7.80876 13.121C7.80607 13.1147 7.80375 13.1083 7.80181 13.1018L7.04676 10.7055V10.6959L6.73049 9.69325V9.68369C6.73049 9.67413 6.72354 9.66544 6.72093 9.65589L6.10664 7.70526L5.96327 7.25084C5.7871 6.69111 5.8405 6.08431 6.11173 5.56394C6.38295 5.04358 6.84978 4.65226 7.40951 4.47609C7.96925 4.29992 8.57605 4.35332 9.09642 4.62454C9.61678 4.89577 10.0081 5.3626 10.1843 5.92233L10.3268 6.37502L10.9358 8.32216L11.2669 9.3709L12.0237 11.7707Z" fill="url(#paint10_linear_1680_1806)" stroke="url(#paint11_radial_1680_1806)" stroke-opacity="0.2" stroke-width="1.66622"/>
<path d="M15.879 6.62601C15.8783 7.15433 15.6887 7.66497 15.3443 8.06564C15 8.46631 14.5236 8.73056 14.0014 8.81064C13.4792 8.89071 12.9456 8.78132 12.497 8.50224C12.0484 8.22316 11.7144 7.7928 11.5555 7.28896L10.876 5.13155C10.7001 4.57181 10.7537 3.9651 11.0251 3.4449C11.2965 2.9247 11.7634 2.53361 12.3231 2.35767C12.8829 2.18173 13.4896 2.23535 14.0098 2.50673C14.53 2.77812 14.9211 3.24504 15.097 3.80478L15.7756 5.96219C15.8435 6.17695 15.8784 6.40078 15.879 6.62601Z" fill="url(#paint12_linear_1680_1806)" stroke="url(#paint13_radial_1680_1806)" stroke-opacity="0.2" stroke-width="1.66622"/>
<defs>
<linearGradient id="paint0_linear_1680_1806" x1="13.0659" y1="20.2598" x2="13.0659" y2="20.3562" gradientUnits="userSpaceOnUse">
<stop stop-color="white"/>
<stop offset="1" stop-color="white" stop-opacity="0"/>
</linearGradient>
<radialGradient id="paint1_radial_1680_1806" cx="0" cy="0" r="1" gradientUnits="userSpaceOnUse" gradientTransform="translate(12.979 20.2598) rotate(29.03) scale(0.198744 0.168654)">
<stop stop-color="#FAFAFA"/>
<stop offset="1" stop-color="#F7F7F7" stop-opacity="0"/>
</radialGradient>
<linearGradient id="paint2_linear_1680_1806" x1="13.3155" y1="7.7959" x2="13.3155" y2="29.4769" gradientUnits="userSpaceOnUse">
<stop stop-color="white"/>
<stop offset="1" stop-color="white" stop-opacity="0"/>
</linearGradient>
<radialGradient id="paint3_radial_1680_1806" cx="0" cy="0" r="1" gradientUnits="userSpaceOnUse" gradientTransform="translate(1.45709 7.7959) rotate(42.4323) scale(32.1334 32.0044)">
<stop stop-color="#FAFAFA"/>
<stop offset="1" stop-color="#F7F7F7" stop-opacity="0"/>
</radialGradient>
<linearGradient id="paint4_linear_1680_1806" x1="13.0659" y1="20.2598" x2="13.0659" y2="20.3562" gradientUnits="userSpaceOnUse">
<stop stop-color="white"/>
<stop offset="1" stop-color="white" stop-opacity="0"/>
</linearGradient>
<radialGradient id="paint5_radial_1680_1806" cx="0" cy="0" r="1" gradientUnits="userSpaceOnUse" gradientTransform="translate(12.979 20.2598) rotate(29.03) scale(0.198744 0.168654)">
<stop stop-color="#FAFAFA"/>
<stop offset="1" stop-color="#F7F7F7" stop-opacity="0"/>
</radialGradient>
<linearGradient id="paint6_linear_1680_1806" x1="18.4432" y1="1" x2="18.4432" y2="6.88666" gradientUnits="userSpaceOnUse">
<stop stop-color="white"/>
<stop offset="1" stop-color="white" stop-opacity="0"/>
</linearGradient>
<radialGradient id="paint7_radial_1680_1806" cx="0" cy="0" r="1" gradientUnits="userSpaceOnUse" gradientTransform="translate(16.0006 1) rotate(50.3114) scale(7.64972 7.51861)">
<stop stop-color="#FAFAFA"/>
<stop offset="1" stop-color="#F7F7F7" stop-opacity="0"/>
</radialGradient>
<linearGradient id="paint8_linear_1680_1806" x1="3.93307" y1="6.75" x2="3.93307" y2="15.744" gradientUnits="userSpaceOnUse">
<stop stop-color="white"/>
<stop offset="1" stop-color="white" stop-opacity="0"/>
</linearGradient>
<radialGradient id="paint9_radial_1680_1806" cx="0" cy="0" r="1" gradientUnits="userSpaceOnUse" gradientTransform="translate(1 6.75) rotate(56.8866) scale(10.738 9.82685)">
<stop stop-color="#FAFAFA"/>
<stop offset="1" stop-color="#F7F7F7" stop-opacity="0"/>
</radialGradient>
<linearGradient id="paint10_linear_1680_1806" x1="8.99492" y1="4.37402" x2="8.99492" y2="14.6562" gradientUnits="userSpaceOnUse">
<stop stop-color="white"/>
<stop offset="1" stop-color="white" stop-opacity="0"/>
</linearGradient>
<radialGradient id="paint11_radial_1680_1806" cx="0" cy="0" r="1" gradientUnits="userSpaceOnUse" gradientTransform="translate(5.86121 4.37402) rotate(58.6359) scale(12.0417 10.7032)">
<stop stop-color="#FAFAFA"/>
<stop offset="1" stop-color="#F7F7F7" stop-opacity="0"/>
</radialGradient>
<linearGradient id="paint12_linear_1680_1806" x1="13.3266" y1="2.25586" x2="13.3266" y2="8.83621" gradientUnits="userSpaceOnUse">
<stop stop-color="white"/>
<stop offset="1" stop-color="white" stop-opacity="0"/>
</linearGradient>
<radialGradient id="paint13_radial_1680_1806" cx="0" cy="0" r="1" gradientUnits="userSpaceOnUse" gradientTransform="translate(10.7742 2.25586) rotate(52.197) scale(8.32825 8.06682)">
<stop stop-color="#FAFAFA"/>
<stop offset="1" stop-color="#F7F7F7" stop-opacity="0"/>
</radialGradient>
</defs>
</svg>
