<svg width="31" height="31" viewBox="0 0 31 31" fill="none" xmlns="http://www.w3.org/2000/svg">
<path d="M26.1673 1C25.2062 1 24.2838 1.38256 23.6043 2.06201L21.0602 4.60612L22.7689 6.31478L25.313 3.77067C25.5398 3.54387 25.8476 3.41667 26.1673 3.41667H30V1H26.1673ZM11.875 4.625L10.3339 6.1661C9.36399 7.13601 9.22155 8.60873 9.8855 9.73918L3.43791 16.1868C2.72654 16.8981 2.34878 17.8124 2.26497 18.7498C1.44914 19.9458 1 21.3664 1 22.835V30H3.41667V22.835C3.41667 22.5912 3.4514 22.3532 3.48747 22.1152L7.72607 26.3538C9.33934 27.967 11.9916 27.967 13.6049 26.3538L20.0525 19.9062C21.1825 20.5701 22.6557 20.4277 23.6256 19.4578L25.1667 17.9167V11.875L17.9167 4.625H11.875ZM13.0833 14.084C13.7017 14.084 14.3201 14.3201 14.792 14.792L18.2707 18.2707L11.8962 24.6451C11.2064 25.3349 10.1245 25.3349 9.43473 24.6451L5.47933 20.6873L10.6667 15.5V19.125C10.6644 19.2851 10.694 19.4441 10.7537 19.5927C10.8134 19.7413 10.902 19.8765 11.0145 19.9905C11.1269 20.1046 11.2609 20.1951 11.4086 20.2569C11.5563 20.3187 11.7149 20.3505 11.875 20.3505C12.0351 20.3505 12.1937 20.3187 12.3414 20.2569C12.4891 20.1951 12.6231 20.1046 12.7355 19.9905C12.848 19.8765 12.9366 19.7413 12.9963 19.5927C13.056 19.4441 13.0856 19.2851 13.0833 19.125V14.084Z" fill="url(#paint0_linear_1680_1804)" stroke="url(#paint1_radial_1680_1804)" stroke-opacity="0.2" stroke-width="1.66622"/>
<defs>
<linearGradient id="paint0_linear_1680_1804" x1="15.5" y1="1" x2="15.5" y2="30" gradientUnits="userSpaceOnUse">
<stop stop-color="white"/>
<stop offset="1" stop-color="white" stop-opacity="0"/>
</linearGradient>
<radialGradient id="paint1_radial_1680_1804" cx="0" cy="0" r="1" gradientUnits="userSpaceOnUse" gradientTransform="translate(1 1) rotate(45) scale(41.0122)">
<stop stop-color="#FAFAFA"/>
<stop offset="1" stop-color="#F7F7F7" stop-opacity="0"/>
</radialGradient>
</defs>
</svg>
