<svg width="24" height="19" viewBox="0 0 24 19" fill="none" xmlns="http://www.w3.org/2000/svg">
<path fill-rule="evenodd" clip-rule="evenodd" d="M12.2471 6.2217C11.336 1.54879 17.1063 -1.23094 20.5067 2.13741C20.5067 2.13741 22.0256 1.72337 23.3619 0.895297C22.9706 1.96895 22.2225 2.88467 21.2361 3.49724C21.2361 3.49724 23.0576 3.26099 23.8479 2.78769C23.8479 2.78769 23.0576 4.38457 21.6004 4.97639C22.3899 15.6821 10.5465 22.1881 0.950684 16.8649C0.950684 16.8649 5.68817 17.1052 7.69386 14.854C7.69386 14.854 4.77867 15.0902 3.32067 11.6602C3.32067 11.6602 4.41438 12.0743 5.50726 11.5417C5.50726 11.5417 2.10607 11.0091 1.80674 7.04657C1.80674 7.04657 2.89963 7.87464 4.11423 7.57833C4.11423 7.57833 0.348734 5.39043 2.47448 1.42706C2.47448 1.42706 6.48338 6.39228 12.2529 6.2185L12.2471 6.2217Z" fill="#1FE5D3"/>
</svg>
