<svg width="149" height="82" viewBox="0 0 149 82" fill="none" xmlns="http://www.w3.org/2000/svg">
<path d="M48.1319 43.5204H43.0631L35.0759 66.0612L27.2039 43.5204H21.7895L31.6967 70.4004H38.2247L48.1319 43.5204ZM75.9944 43.5204H70.9256L62.9384 66.0612L55.0664 43.5204H49.652L59.5592 70.4004H66.0872L75.9944 43.5204ZM78.7283 69.1716C80.8403 70.2084 83.3747 70.8228 86.7155 70.8228C93.0131 70.8228 97.0835 67.9428 97.0835 62.7204C97.0835 59.3412 95.8547 56.8068 90.5939 55.0404L89.4803 54.6564C85.0259 53.1204 83.7587 52.3524 83.7587 50.4324C83.7587 48.4356 85.4099 47.4372 88.5971 47.4372C90.5939 47.4372 93.2051 47.706 95.3939 48.5892V44.25C94.2035 43.674 92.0147 43.098 88.4819 43.098C82.2995 43.098 78.5363 45.7476 78.5363 50.394C78.5363 54.4644 80.5331 56.73 85.2563 58.1508L86.2931 58.4964C90.1331 59.7252 91.6307 60.378 91.6307 62.9124C91.6307 65.2548 89.9411 66.522 86.2547 66.522C82.9907 66.522 80.1107 65.5236 78.7283 64.7172V69.1716ZM122.604 66.7908C118.956 66.7908 116.882 64.4484 116.882 61.2612C116.882 58.9956 119.186 56.9988 122.719 56.9988C125.829 56.9988 128.056 58.7268 128.056 61.8372C128.056 65.0628 125.829 66.7908 122.604 66.7908ZM130.706 43.8276C128.709 43.2516 126.751 43.098 124.869 43.098C114.732 43.098 111.276 49.7796 111.276 57.9972C111.276 64.602 113.81 70.8228 122.565 70.8228C128.824 70.8228 133.317 67.2516 133.317 61.722C133.317 55.8468 128.94 53.1972 123.679 53.1972C119.608 53.1972 117.496 54.6564 116.152 56.1924C116.152 50.8164 119.34 47.4756 125.023 47.4756C127.173 47.4756 128.901 47.7828 130.706 48.3588V43.8276Z" fill="white"/>
<g clip-path="url(#clip0_941_1597)">
<path d="M74.5 34.7368C89.5706 34.7368 101.788 27.6905 101.788 18.9983C101.788 10.3061 89.5706 3.25977 74.5 3.25977C59.4293 3.25977 47.2122 10.3061 47.2122 18.9983C47.2122 27.6905 59.4293 34.7368 74.5 34.7368Z" fill="url(#paint0_radial_941_1597)"/>
<path d="M69.5612 15.9712L65.8346 25.0083H63.4103L59.6941 15.9712H62.354L64.7125 21.8556L67.1369 15.9712H69.5612Z" fill="url(#paint1_linear_941_1597)"/>
<path d="M79.0786 15.9712L75.352 25.0083H72.9277L69.215 15.9712H71.8714L74.2334 21.8556L76.6577 15.9712H79.0786Z" fill="url(#paint2_linear_941_1597)"/>
<path d="M80.5955 24.9187C80.0221 24.7757 79.4763 24.5323 78.9816 24.1989L79.7885 22.313C80.2081 22.5937 80.6641 22.8106 81.1427 22.9572C81.6336 23.1179 82.145 23.2004 82.6597 23.202C83.6063 23.202 84.0785 22.962 84.0762 22.4822C84.0751 22.3542 84.0354 22.2298 83.9627 22.1265C83.89 22.0232 83.788 21.9462 83.671 21.9063C83.2504 21.7349 82.8157 21.6035 82.3722 21.514C81.8164 21.3961 81.269 21.2386 80.734 21.0426C80.298 20.8777 79.9095 20.6003 79.605 20.2364C79.2727 19.8162 79.1035 19.2823 79.1305 18.7392C79.1254 18.2067 79.2778 17.6853 79.5669 17.2456C79.8927 16.7719 80.3439 16.4069 80.8656 16.1947C81.5385 15.9182 82.2585 15.7872 82.9818 15.8096C83.5505 15.8086 84.1176 15.875 84.6719 16.0075C85.1858 16.1256 85.6796 16.3234 86.1369 16.5942L85.3819 18.4945C84.6427 18.0545 83.8091 17.8144 82.9575 17.7963C82.5875 17.7682 82.2172 17.8467 81.8873 18.023C81.7846 18.0799 81.6984 18.1643 81.6375 18.2674C81.5766 18.3705 81.5433 18.4887 81.541 18.6096C81.5439 18.7322 81.584 18.8508 81.6555 18.9483C81.727 19.0459 81.8263 19.1175 81.9393 19.1531C82.3552 19.3125 82.7841 19.433 83.2207 19.513C83.7795 19.6279 84.3294 19.7855 84.8658 19.9844C85.2996 20.1503 85.6874 20.4247 85.9949 20.7834C86.3285 21.2002 86.4991 21.732 86.4728 22.2734C86.4775 22.7987 86.3264 23.3127 86.0399 23.7454C85.7097 24.2185 85.2569 24.5842 84.7342 24.7999C84.0629 25.0781 83.3441 25.2116 82.6216 25.1923C81.9378 25.1904 81.257 25.0985 80.5955 24.9187Z" fill="url(#paint3_linear_941_1597)"/>
<path d="M72.1622 3.31738H68.0408V10.0872H72.1622V3.31738Z" fill="#0E0E0E"/>
<path d="M76.2075 3.31738H72.0861V10.0872H76.2075V3.31738Z" fill="#B11917"/>
<path d="M80.5297 3.31738H76.4083V10.0872H80.5297V3.31738Z" fill="#E9C110"/>
<path d="M74.5 34.7368C89.5706 34.7368 101.788 27.6905 101.788 18.9983C101.788 10.3061 89.5706 3.25977 74.5 3.25977C59.4293 3.25977 47.2122 10.3061 47.2122 18.9983C47.2122 27.6905 59.4293 34.7368 74.5 34.7368Z" stroke="url(#paint4_linear_941_1597)" stroke-width="2" stroke-miterlimit="10"/>
<path d="M70.2262 7.81592L70.9985 9.28432L72.4115 10.0869L70.9985 10.8895L70.2262 12.3579L69.4538 10.8895L68.0408 10.0869L69.4538 9.28432L70.2262 7.81592Z" fill="url(#paint5_linear_941_1597)"/>
<path d="M74.3476 7.81592L75.1199 9.28432L76.533 10.0869L75.1199 10.8895L74.3476 12.3579L73.5753 10.8895L72.1622 10.0869L73.5753 9.28432L74.3476 7.81592Z" fill="url(#paint6_linear_941_1597)"/>
<path d="M78.4725 7.81592L79.2448 9.28432L80.6579 10.0869L79.2448 10.8895L78.4725 12.3579L77.7002 10.8895L76.2871 10.0869L77.7002 9.28432L78.4725 7.81592Z" fill="url(#paint7_linear_941_1597)"/>
</g>
<defs>
<radialGradient id="paint0_radial_941_1597" cx="0" cy="0" r="1" gradientUnits="userSpaceOnUse" gradientTransform="translate(74.5 18.9983) scale(22.0685 22.933)">
<stop offset="0.49" stop-color="#E73E22"/>
<stop offset="1" stop-color="#A61C20"/>
</radialGradient>
<linearGradient id="paint1_linear_941_1597" x1="61.0448" y1="23.5867" x2="66.6587" y2="14.229" gradientUnits="userSpaceOnUse">
<stop stop-color="white"/>
<stop offset="0.43" stop-color="#575756"/>
<stop offset="0.86" stop-color="#E1E1E1"/>
</linearGradient>
<linearGradient id="paint2_linear_941_1597" x1="70.5622" y1="23.5867" x2="76.1761" y2="14.229" gradientUnits="userSpaceOnUse">
<stop stop-color="white"/>
<stop offset="0.43" stop-color="#575756"/>
<stop offset="0.86" stop-color="#E1E1E1"/>
</linearGradient>
<linearGradient id="paint3_linear_941_1597" x1="80.3011" y1="25.0051" x2="85.563" y2="16.233" gradientUnits="userSpaceOnUse">
<stop stop-color="white"/>
<stop offset="0.43" stop-color="#575756"/>
<stop offset="0.86" stop-color="#E1E1E1"/>
</linearGradient>
<linearGradient id="paint4_linear_941_1597" x1="65.0346" y1="36.0325" x2="85.0735" y2="2.63472" gradientUnits="userSpaceOnUse">
<stop stop-color="white"/>
<stop offset="0.43" stop-color="#575756"/>
<stop offset="0.86" stop-color="#E1E1E1"/>
</linearGradient>
<linearGradient id="paint5_linear_941_1597" x1="69.2807" y1="11.7928" x2="71.2828" y2="8.45116" gradientUnits="userSpaceOnUse">
<stop stop-color="white"/>
<stop offset="0.43" stop-color="#575756"/>
<stop offset="0.86" stop-color="#E1E1E1"/>
</linearGradient>
<linearGradient id="paint6_linear_941_1597" x1="73.4021" y1="11.7928" x2="75.4043" y2="8.45116" gradientUnits="userSpaceOnUse">
<stop stop-color="white"/>
<stop offset="0.43" stop-color="#575756"/>
<stop offset="0.86" stop-color="#E1E1E1"/>
</linearGradient>
<linearGradient id="paint7_linear_941_1597" x1="77.527" y1="11.7928" x2="79.5291" y2="8.45116" gradientUnits="userSpaceOnUse">
<stop stop-color="white"/>
<stop offset="0.43" stop-color="#575756"/>
<stop offset="0.86" stop-color="#E1E1E1"/>
</linearGradient>
<clipPath id="clip0_941_1597">
<rect width="57" height="34" fill="white" transform="translate(46 2)"/>
</clipPath>
</defs>
</svg>
